<svg width="713" height="713" viewBox="0 0 713 713" fill="none" xmlns="http://www.w3.org/2000/svg">
<path d="M356.2 712.8C552.924 712.8 712.4 553.324 712.4 356.6C712.4 159.877 552.924 0.400391 356.2 0.400391C159.476 0.400391 0 159.877 0 356.6C0 553.324 159.476 712.8 356.2 712.8Z" fill="url(#paint0_linear_83_5)"/>
<path d="M174.2 211.3C179.3 201.7 186.7 193.5 195.8 187.5L347.3 81.2998L192.1 338.8C192.1 338.8 178.5 315.8 173.2 304.2C159.9 274.5 160.3 240.5 174.2 211.3ZM111.7 388.9C115.1 438.7 139.8 484.6 179.5 514.8L347.1 632C347.1 632 242.3 480.4 153.8 329.6C144.8 313.7 138.8 296.2 136 278.2C134.8 270 134.8 261.7 136 253.5C133.7 257.8 129.2 266.6 129.2 266.6C120.2 285 114.1 304.6 111.1 324.8C109.4 346.1 109.6 367.5 111.7 388.9ZM538.9 409.3C533.5 397.7 520 374.7 520 374.7L365.1 632L516.6 526C525.6 519.9 533 511.8 538.2 502.2C552.2 472.9 552.5 438.9 539.2 409.3H538.9ZM600.4 324.5C597 274.7 572.3 228.8 532.6 198.6L365.3 81.2998C365.3 81.2998 470.1 232.9 558.5 383.7C567.4 399.6 573.4 417.1 576.2 435.1C577.4 443.3 577.4 451.6 576.2 459.8C578.5 455.5 583 446.7 583 446.7C592 428.3 598.1 408.7 601.1 388.5C602.9 367.1 602.7 345.7 600.6 324.3L600.4 324.5Z" fill="white"/>
<defs>
<linearGradient id="paint0_linear_83_5" x1="-0.0555" y1="356.639" x2="712.445" y2="356.639" gradientUnits="userSpaceOnUse">
<stop stop-color="#513EFF"/>
<stop offset="0.18" stop-color="#5157FF"/>
<stop offset="0.57" stop-color="#5298FF"/>
<stop offset="1" stop-color="#52E5FF"/>
</linearGradient>
</defs>
</svg>
