<svg width="727" height="727" viewBox="0 0 727 727" fill="none" xmlns="http://www.w3.org/2000/svg">
<path d="M363.3 39.1C184.7 39.1 39.2998 184.4 39.2998 363.1C39.2998 541.7 184.6 687.1 363.3 687.1C541.9 687.1 687.3 541.8 687.3 363.1C687.3 184.4 541.9 39.1 363.3 39.1Z" fill="#AF5352"/>
<path d="M710.4 414.8C710.4 414.2 710.4 413.6 710.5 413V412.9C712.8 396.5 714 379.8 714 363.1V362.3C714 358.9 715.3 355.7 717.7 353.3C720 351 723.1 349.6 726.4 349.6C726.1 340.7 725.4 331.9 724.5 323.2C724 323.3 723.4 323.3 722.9 323.3C716.6 323.3 711.2 318.6 710.3 312.4C707.9 296 704.4 279.7 699.7 263.9L699.6 263.5C699.2 262.3 699.1 261.1 699.1 259.9C699.1 254.4 702.8 249.5 708 247.8C705.2 239.4 702.1 231.1 698.7 223C697.1 223.7 695.4 224.1 693.6 224.1C688.6 224.1 684.1 221.2 682 216.7C675 201.6 666.9 186.9 657.9 172.9C656.6 170.9 655.9 168.5 655.9 166.1C655.9 161.8 658 157.9 661.5 155.5C656.4 148.3 651.1 141.2 645.6 134.4C643.3 136.3 640.4 137.4 637.5 137.4C633.8 137.4 630.3 135.8 627.9 133C617 120.5 605.1 108.6 592.4 97.7C589.6 95.3 588 91.8 588 88.1C588 85.1 589.1 82.3 591 80C584.1 74.5 577 69.2 569.8 64.1C567.4 67.6 563.5 69.8 559.2 69.8C556.8 69.8 554.4 69.1 552.4 67.8C538.4 58.8 523.6 50.8 508.5 43.8C503.9 41.7 501 37.2 501 32.2C501 30.5 501.4 28.8 502 27.2C493.9 23.8 485.6 20.8 477.1 18C475.5 23.3 470.5 26.9 465 26.9C463.8 26.9 462.6 26.7 461.4 26.4C445.5 21.8 429 18.2 412.5 15.9C406.2 15 401.5 9.6 401.5 3.3C401.5 2.8 401.5 2.3 401.6 1.8C392.9 0.899995 384.1 0.3 375.2 0C375.1 6.9 369.4 12.5 362.5 12.5C345.8 12.5 329 13.7 312.6 16.1C312 16.2 311.4 16.2 310.8 16.2C304.6 16.2 299.3 11.6 298.3 5.5C289.6 7.1 280.9 9 272.4 11.1C272.7 12.2 272.9 13.4 272.9 14.5C272.9 20.1 269.1 25.1 263.8 26.7C247.8 31.4 232.1 37.3 217 44.3C215.3 45.1 213.5 45.5 211.7 45.5C206.8 45.5 202.4 42.7 200.3 38.3C192.4 42.3 184.7 46.5 177.1 51C178.3 53 179 55.3 179 57.6C179 62 176.8 66 173.2 68.4C159.2 77.4 145.8 87.5 133.2 98.5C130.9 100.5 127.9 101.6 124.8 101.6C121.2 101.6 117.8 100.1 115.4 97.4C108.9 103.4 102.7 109.7 96.7001 116.1C99.4001 118.5 100.9 121.9 100.9 125.5C100.9 128.6 99.8 131.5 97.8 133.8C97.7001 133.9 97.7001 133.9 97.6001 134C86.8001 146.6 76.7001 160 67.8 173.9C65.5 177.6 61.4001 179.7 57.1001 179.7C54.8001 179.7 52.5 179 50.5 177.8C46 185.4 41.8 193.1 37.8 201.1C42.2001 203.2 45 207.7 45 212.6C45 214.4 44.6 216.2 43.9 217.8C37 233 31.1 248.7 26.5 264.7C24.9 270.1 19.9 273.9 14.3 273.9C13.2 273.9 12.1 273.7 11 273.4C8.8 281.9 7.00002 290.5 5.40002 299.3C11.5 300.3 16.1001 305.6 16.1001 311.8C16.1001 312.4 16.1 313 16 313.6C13.7 329.9 12.5 346.6 12.5 363.2V363.6C12.5 370.5 6.9 376.2 0 376.3C0.3 385.2 0.900024 394 1.90002 402.7C2.40002 402.6 3 402.6 3.5 402.6C9.8 402.6 15.1001 407.3 16.1001 413.4V413.5C16.1001 413.6 16.1001 413.7 16.1001 413.8C18.5001 430.2 22.0001 446.5 26.7001 462.4C27.1001 463.5 27.2001 464.8 27.2001 466C27.2001 471.5 23.5 476.4 18.3 478.1C21.1 486.5 24.2001 494.8 27.6001 502.9C29.2001 502.2 30.9001 501.8 32.7001 501.8C37.7001 501.8 42.2001 504.7 44.2001 509.2C51.1001 524.3 59.2001 539 68.3 553C69.6001 555 70.3 557.4 70.3 559.8C70.3 564.1 68.2001 568 64.7001 570.4C69.8001 577.7 75.1001 584.7 80.6001 591.6C82.9001 589.7 85.7001 588.6 88.7001 588.6C92.4001 588.6 95.9 590.2 98.3 593C109.2 605.6 121.1 617.5 133.7 628.4C136.5 630.8 138.1 634.3 138.1 638C138.1 641 137 643.9 135.1 646.1C142 651.6 149 656.9 156.3 662C158.7 658.5 162.6 656.4 166.9 656.4C169.3 656.4 171.6 657.1 173.6 658.3L173.7 658.4C173.8 658.4 173.9 658.5 174 658.6C187.9 667.5 202.6 675.6 217.7 682.4C222.2 684.5 225.2 689 225.1 694C225.1 695.7 224.7 697.4 224 699C232.1 702.4 240.4 705.5 248.9 708.3C250.6 703 255.5 699.4 261 699.4C262.2 699.4 263.4 699.6 264.6 699.9C280.5 704.6 296.9 708.1 313.4 710.5H313.5C319.8 711.4 324.4 716.8 324.4 723.1C324.4 723.6 324.4 724.1 324.3 724.6C333 725.5 341.8 726.1 350.7 726.4C350.8 723.1 352.1 720 354.4 717.6C356.8 715.2 360 713.9 363.4 713.9C380.1 713.9 396.9 712.7 413.3 710.3C413.9 710.2 414.5 710.2 415.1 710.2C421.3 710.2 426.6 714.8 427.6 720.9C436.3 719.3 445 717.4 453.5 715.3C453.2 714.2 453 713 453 711.9C453 706.3 456.8 701.3 462.1 699.7C478.1 695 493.8 689.1 509 682.2H509.1C510.8 681.4 512.5 681 514.3 681C519.2 681 523.6 683.8 525.8 688.2C533.7 684.3 541.4 680 549 675.5C547.8 673.5 547.1 671.2 547.1 668.9C547.1 664.5 549.3 660.5 552.9 658.1C566.8 649.1 580.3 639 592.9 628.1C595.2 626.1 598.2 625 601.2 625C604.8 625 608.2 626.5 610.6 629.2C617.1 623.2 623.3 616.9 629.3 610.5C626.6 608.1 625.1 604.7 625.1 601.1C625.1 598 626.2 595.1 628.2 592.8C639.1 580.2 649.2 566.7 658.2 552.7L658.4 552.4C660.8 548.9 664.7 546.9 668.9 546.9C671.3 546.9 673.5 547.6 675.6 548.8C680.1 541.2 684.4 533.5 688.3 525.5C683.9 523.4 681.1 518.9 681.1 514C681.1 512.2 681.5 510.4 682.2 508.8C689.1 493.6 695 477.9 699.7 461.9C701.3 456.5 706.3 452.7 711.9 452.7C713 452.7 714.2 452.9 715.3 453.2C717.5 444.7 719.4 436.1 720.9 427.3C715 426.4 710.4 421 710.4 414.8ZM363.3 697.1C179.1 697.1 29.3 547.3 29.3 363.1C29.3 178.9 179.1 29.1 363.3 29.1C547.5 29.1 697.3 178.9 697.3 363.1C697.3 547.2 547.5 697.1 363.3 697.1Z" fill="#395E9C"/>
<path d="M604.1 363.1C604.1 496.1 496.3 604 363.3 604C230.3 604 122.4 496.2 122.4 363.1C122.4 230.1 230.2 122.3 363.3 122.3C496.3 122.2 604.1 230.1 604.1 363.1Z" fill="white"/>
<path d="M259.34 269.92V294.64H212.78V335.92H255.02V359.2H212.78V430H185.18V269.92H259.34ZM320.322 387.28H297.042L291.282 430H264.402L289.842 269.92H325.602L354.162 430H327.282L320.322 387.28ZM316.962 364L312.642 336.88C311.922 332.56 310.482 321.76 309.522 312.16C309.042 307.36 309.042 307.12 307.842 294.64C305.922 319.12 305.442 323.68 303.762 336.88L299.922 364H316.962ZM448.118 322.48H420.518V313.36C420.518 294.4 418.118 289.84 408.278 289.84C397.958 289.84 395.078 295.6 395.078 316.24V383.92C395.078 404.32 397.958 410.08 408.278 410.08C418.118 410.08 420.518 405.28 420.518 386.56V371.68H448.118V376.24C448.118 401.2 446.438 410.8 440.918 418.96C434.918 427.6 423.158 432.4 407.798 432.4C392.438 432.4 380.678 427.6 374.678 418.96C369.158 410.8 367.478 401.2 367.478 376.24V323.92C367.478 298.72 369.158 289.12 374.678 280.96C380.678 272.32 392.438 267.52 407.798 267.52C423.158 267.52 434.918 271.84 440.918 280C446.438 287.2 448.118 296.08 448.118 319.12V322.48ZM540.59 269.92V295.6H494.03V336.16H537.95V359.44H494.03V404.32H543.23V430H466.43V269.92H540.59Z" fill="#395E9C"/>
<path d="M261.377 209.104C265.505 209.104 268.945 210.096 271.697 212.08C274.481 214.064 275.873 216.544 275.873 219.52C275.873 221.856 274.977 224 273.185 225.952C271.425 227.904 269.121 229.296 266.273 230.128C268.673 230.992 270.465 232.224 271.649 233.824C272.865 235.424 273.473 237.2 273.473 239.152C273.473 242.224 272.161 244.976 269.537 247.408C266.913 249.84 263.553 251.056 259.457 251.056C255.937 251.056 252.625 249.888 249.521 247.552C247.057 250.208 243.969 251.536 240.257 251.536C237.985 251.536 236.145 251.008 234.737 249.952C233.329 248.896 232.625 247.488 232.625 245.728C232.625 244.032 233.409 242.48 234.977 241.072C236.577 239.664 238.769 238.96 241.553 238.96C243.665 238.96 245.697 239.568 247.649 240.784C248.225 239.376 248.673 238.176 248.993 237.184C251.649 229.216 253.889 223.6 255.713 220.336C257.537 217.072 259.441 215.44 261.425 215.44C262.225 215.44 262.833 215.632 263.249 216.016C263.697 216.368 263.921 216.848 263.921 217.456C263.921 218.256 263.553 219.072 262.817 219.904C261.857 220.928 261.057 222 260.417 223.12C259.777 224.24 259.025 225.888 258.161 228.064H258.785C262.305 228.064 265.025 227.376 266.945 226C268.897 224.592 269.873 222.624 269.873 220.096C269.873 217.952 269.073 216.224 267.473 214.912C265.873 213.568 263.761 212.896 261.137 212.896C257.585 212.896 254.353 213.92 251.441 215.968C248.561 217.984 247.121 220.592 247.121 223.792C247.121 224.72 247.297 225.456 247.649 226C248.001 226.512 248.369 226.832 248.753 226.96C249.169 227.088 249.553 227.312 249.905 227.632C250.257 227.92 250.433 228.32 250.433 228.832C250.433 229.984 249.665 230.56 248.129 230.56C246.369 230.56 244.913 229.936 243.761 228.688C242.641 227.44 242.081 225.84 242.081 223.888C242.081 219.888 244.001 216.432 247.841 213.52C251.681 210.576 256.193 209.104 261.377 209.104ZM257.633 231.328H256.961L255.137 236.8C254.241 239.392 253.249 241.728 252.161 243.808C253.825 245.056 255.169 245.952 256.193 246.496C257.249 247.008 258.465 247.264 259.841 247.264C262.305 247.264 264.193 246.432 265.505 244.768C266.849 243.104 267.521 241.28 267.521 239.296C267.521 236.992 266.577 235.088 264.689 233.584C262.833 232.08 260.481 231.328 257.633 231.328ZM245.681 244.624C243.857 243.216 242.417 242.512 241.361 242.512C240.305 242.512 239.489 242.8 238.913 243.376C238.337 243.952 238.049 244.64 238.049 245.44C238.049 246.144 238.289 246.752 238.769 247.264C239.249 247.744 239.905 247.984 240.737 247.984C242.337 247.984 243.985 246.864 245.681 244.624ZM288.88 215.68C289.936 215.68 290.752 216 291.328 216.64C291.904 217.28 292.192 218.048 292.192 218.944C292.192 219.872 291.872 220.688 291.232 221.392C290.624 222.064 289.792 222.4 288.736 222.4C287.744 222.4 286.944 222.096 286.336 221.488C285.728 220.88 285.424 220.096 285.424 219.136C285.424 218.144 285.744 217.328 286.384 216.688C287.056 216.016 287.888 215.68 288.88 215.68ZM285.616 224.464C286.416 224.464 287.056 224.72 287.536 225.232C288.048 225.712 288.304 226.288 288.304 226.96C288.304 227.312 288.24 227.696 288.112 228.112C288.016 228.528 287.84 228.992 287.584 229.504C287.328 229.984 287.104 230.4 286.912 230.752C286.72 231.104 286.432 231.584 286.048 232.192C285.696 232.8 285.44 233.248 285.28 233.536C283.456 236.864 282.544 240.112 282.544 243.28C282.544 245.936 283.392 247.264 285.088 247.264C286.304 247.264 287.856 246.336 289.744 244.48C291.632 242.624 293.44 240.16 295.168 237.088C295.456 236.576 295.888 236.272 296.464 236.176H296.704C297.12 236.176 297.472 236.288 297.76 236.512C298.08 236.736 298.24 237.04 298.24 237.424C298.24 237.68 298.176 237.92 298.048 238.144C295.904 242.112 293.52 245.264 290.896 247.6C288.272 249.904 285.696 251.056 283.168 251.056C281.088 251.056 279.456 250.448 278.272 249.232C277.088 247.984 276.496 246.256 276.496 244.048C276.496 240.016 278.464 234.192 282.4 226.576C282.688 226.032 283.136 225.552 283.744 225.136C284.352 224.688 284.976 224.464 285.616 224.464ZM308.986 224.944C311.994 224.944 314.346 225.776 316.042 227.44C317.738 229.104 318.586 231.408 318.586 234.352C318.586 238.48 317.13 242.288 314.218 245.776C314.346 245.808 314.538 245.824 314.794 245.824C316.938 245.824 319.05 245.072 321.13 243.568C323.242 242.064 325.114 239.904 326.746 237.088C327.034 236.576 327.45 236.288 327.994 236.224H328.186C328.602 236.224 328.97 236.352 329.29 236.608C329.642 236.864 329.818 237.184 329.818 237.568C329.818 237.696 329.754 237.888 329.626 238.144C327.706 241.536 325.37 244.224 322.618 246.208C319.866 248.16 317.034 249.136 314.122 249.136C313.034 249.136 311.946 248.976 310.858 248.656C308.458 250.256 305.786 251.056 302.842 251.056C299.802 251.056 297.386 250.208 295.594 248.512C293.802 246.784 292.906 244.464 292.906 241.552C292.906 237.136 294.506 233.264 297.706 229.936C300.938 226.608 304.698 224.944 308.986 224.944ZM308.362 228.736C305.994 228.736 303.818 230.032 301.834 232.624C299.882 235.184 298.906 238 298.906 241.072C298.906 242.992 299.306 244.512 300.106 245.632C300.938 246.72 302.074 247.264 303.514 247.264C304.826 247.264 306.186 246.768 307.594 245.776C307.53 245.456 307.498 245.216 307.498 245.056C307.498 244.256 307.786 243.584 308.362 243.04C308.97 242.496 309.738 242.176 310.666 242.08C311.946 239.936 312.586 237.536 312.586 234.88C312.586 232.96 312.218 231.456 311.482 230.368C310.746 229.28 309.706 228.736 308.362 228.736ZM333.764 224.464C335.524 224.464 336.404 225.168 336.404 226.576C336.404 227.12 336.292 227.664 336.068 228.208C338.948 226.032 341.604 224.944 344.036 224.944C347.492 224.944 349.396 226.368 349.748 229.216C352.98 226.368 356.084 224.944 359.06 224.944C362.9 224.944 364.82 226.672 364.82 230.128C364.82 231.824 364.084 234.16 362.612 237.136C361.172 240.08 360.452 242.336 360.452 243.904C360.452 246.144 361.348 247.264 363.14 247.264C364.676 247.264 366.452 246.368 368.468 244.576C370.484 242.752 372.372 240.256 374.132 237.088C374.42 236.576 374.852 236.272 375.428 236.176H375.668C376.084 236.176 376.436 236.288 376.724 236.512C377.044 236.736 377.204 237.04 377.204 237.424C377.204 237.68 377.14 237.92 377.012 238.144C374.9 242.176 372.452 245.344 369.668 247.648C366.884 249.92 364.116 251.056 361.364 251.056C359.316 251.056 357.684 250.496 356.468 249.376C355.252 248.224 354.644 246.704 354.644 244.816C354.644 243.216 355.332 240.832 356.708 237.664C358.084 234.496 358.772 232.368 358.772 231.28C358.772 230.352 358.644 229.696 358.388 229.312C358.132 228.928 357.7 228.736 357.092 228.736C355.62 228.736 354.02 229.488 352.292 230.992C350.564 232.496 348.996 234.512 347.588 237.04C346.98 238.448 346.516 239.568 346.196 240.4C345.876 241.232 345.508 242.512 345.092 244.24C344.676 245.968 344.436 247.68 344.372 249.376C344.34 249.824 344.02 250.208 343.412 250.528C342.836 250.88 342.164 251.056 341.396 251.056C340.564 251.056 339.892 250.864 339.38 250.48C338.9 250.128 338.66 249.648 338.66 249.04C338.66 247.12 339.076 244.944 339.908 242.512C340.772 240.048 341.62 237.792 342.452 235.744C343.316 233.696 343.748 232.208 343.748 231.28C343.748 230.352 343.62 229.696 343.364 229.312C343.108 228.928 342.676 228.736 342.068 228.736C340.436 228.736 338.564 229.616 336.452 231.376C334.372 233.104 332.628 235.216 331.22 237.712C329.908 240.528 328.724 244.416 327.668 249.376C327.54 249.888 327.188 250.288 326.612 250.576C326.068 250.896 325.428 251.056 324.692 251.056C323.924 251.056 323.268 250.896 322.724 250.576C322.18 250.256 321.908 249.84 321.908 249.328C321.908 249.264 321.924 249.136 321.956 248.944C322.18 247.824 322.452 246.672 322.772 245.488C323.092 244.272 323.412 243.184 323.732 242.224C324.02 241.264 324.404 240.176 324.884 238.96C325.364 237.744 325.748 236.784 326.036 236.08C326.324 235.376 326.74 234.432 327.284 233.248C327.86 232.064 328.244 231.248 328.436 230.8C328.66 230.352 329.044 229.584 329.588 228.496C330.164 227.376 330.484 226.736 330.548 226.576C330.804 226.032 331.236 225.552 331.844 225.136C332.484 224.688 333.124 224.464 333.764 224.464ZM387.154 224.944C389.298 224.944 391.058 225.456 392.434 226.48C393.842 227.504 394.546 228.848 394.546 230.512C394.546 233.296 393.106 235.632 390.226 237.52C387.346 239.408 383.858 240.352 379.762 240.352C379.282 240.352 378.658 240.32 377.89 240.256V240.928C377.89 242.944 378.402 244.512 379.426 245.632C380.482 246.72 381.97 247.264 383.89 247.264C386.354 247.264 388.898 246.352 391.522 244.528C394.146 242.672 396.306 240.192 398.002 237.088C398.29 236.576 398.706 236.288 399.25 236.224H399.49C399.906 236.224 400.274 236.352 400.594 236.608C400.914 236.832 401.074 237.12 401.074 237.472C401.074 237.696 401.01 237.92 400.882 238.144C398.674 242.176 395.954 245.344 392.722 247.648C389.522 249.92 386.114 251.056 382.498 251.056C379.33 251.056 376.77 250.176 374.818 248.416C372.866 246.656 371.89 244.32 371.89 241.408C371.89 237.28 373.474 233.504 376.642 230.08C379.81 226.656 383.314 224.944 387.154 224.944ZM386.866 228.736C385.234 228.736 383.618 229.536 382.018 231.136C380.45 232.736 379.266 234.752 378.466 237.184C379.17 237.248 379.698 237.28 380.05 237.28C382.674 237.28 384.786 236.736 386.386 235.648C387.986 234.56 388.786 233.088 388.786 231.232C388.786 230.432 388.594 229.824 388.21 229.408C387.826 228.96 387.378 228.736 386.866 228.736ZM409.43 213.424C410.23 213.424 410.87 213.68 411.35 214.192C411.862 214.672 412.118 215.232 412.118 215.872C412.118 216.544 411.926 217.36 411.542 218.32C411.158 219.28 410.774 220.096 410.39 220.768C410.006 221.44 409.446 222.368 408.71 223.552C408.582 223.776 408.31 224.24 407.894 224.944H409.958C411.27 224.944 411.926 225.392 411.926 226.288C411.926 226.736 411.686 227.136 411.206 227.488C410.758 227.84 410.15 228.016 409.382 228.016H406.262C402.966 234.8 401.318 239.888 401.318 243.28C401.318 244.528 401.558 245.504 402.038 246.208C402.518 246.912 403.174 247.264 404.006 247.264C405.286 247.264 406.934 246.32 408.95 244.432C410.998 242.544 412.902 240.096 414.662 237.088C414.982 236.576 415.414 236.272 415.958 236.176H416.198C416.614 236.176 416.966 236.288 417.254 236.512C417.574 236.736 417.734 237.04 417.734 237.424C417.734 237.68 417.67 237.92 417.542 238.144C415.398 242.048 412.934 245.184 410.15 247.552C407.398 249.888 404.71 251.056 402.086 251.056C400.038 251.056 398.438 250.432 397.286 249.184C396.102 247.936 395.51 246.224 395.51 244.048C395.51 240.688 397.046 235.344 400.118 228.016H399.446C398.134 228.016 397.478 227.568 397.478 226.672C397.478 226.224 397.702 225.824 398.15 225.472C398.63 225.12 399.254 224.944 400.022 224.944H401.51C402.63 222.512 404.198 219.376 406.214 215.536C406.502 214.992 406.95 214.512 407.558 214.096C408.166 213.648 408.79 213.424 409.43 213.424ZM420.886 218.704C422.518 218.704 423.334 219.744 423.334 221.824C423.334 223.104 423.206 224.24 422.95 225.232C425.83 227.12 427.702 228.528 428.566 229.456C429.462 230.384 429.91 231.216 429.91 231.952C429.91 232.24 429.894 232.512 429.862 232.768C429.83 233.024 429.734 233.312 429.574 233.632C429.446 233.952 429.334 234.224 429.238 234.448C429.174 234.64 428.998 234.96 428.71 235.408C428.454 235.856 428.246 236.192 428.086 236.416C427.958 236.64 427.686 237.072 427.27 237.712C426.854 238.32 426.55 238.784 426.358 239.104C424.662 241.696 423.814 243.584 423.814 244.768C423.814 246.432 424.614 247.264 426.214 247.264C429.126 247.264 432.47 243.872 436.246 237.088C436.726 236.224 437.398 235.936 438.262 236.224C438.998 236.448 439.35 236.896 439.318 237.568C439.286 237.76 439.222 237.952 439.126 238.144C434.518 246.752 429.574 251.056 424.294 251.056C422.406 251.056 420.886 250.576 419.734 249.616C418.582 248.656 418.006 247.376 418.006 245.776C418.006 243.6 419.238 240.672 421.702 236.992C423.174 234.912 423.91 233.408 423.91 232.48C423.91 231.52 423.094 230.416 421.462 229.168C420.47 232.144 419.158 235.136 417.526 238.144C417.014 239.104 416.326 239.424 415.462 239.104C414.758 238.848 414.422 238.384 414.454 237.712C414.454 237.488 414.518 237.28 414.646 237.088C416.63 233.568 418.022 230.112 418.822 226.72C417.286 225.568 416.518 224.416 416.518 223.264C416.518 222.112 416.95 221.072 417.814 220.144C418.678 219.184 419.702 218.704 420.886 218.704ZM446.24 215.68C447.296 215.68 448.112 216 448.688 216.64C449.264 217.28 449.552 218.048 449.552 218.944C449.552 219.872 449.232 220.688 448.592 221.392C447.984 222.064 447.152 222.4 446.096 222.4C445.104 222.4 444.304 222.096 443.696 221.488C443.088 220.88 442.784 220.096 442.784 219.136C442.784 218.144 443.104 217.328 443.744 216.688C444.416 216.016 445.248 215.68 446.24 215.68ZM442.976 224.464C443.776 224.464 444.416 224.72 444.896 225.232C445.408 225.712 445.664 226.288 445.664 226.96C445.664 227.312 445.6 227.696 445.472 228.112C445.376 228.528 445.2 228.992 444.944 229.504C444.688 229.984 444.464 230.4 444.272 230.752C444.08 231.104 443.792 231.584 443.408 232.192C443.056 232.8 442.8 233.248 442.64 233.536C440.816 236.864 439.904 240.112 439.904 243.28C439.904 245.936 440.752 247.264 442.448 247.264C443.664 247.264 445.216 246.336 447.104 244.48C448.992 242.624 450.8 240.16 452.528 237.088C452.816 236.576 453.248 236.272 453.824 236.176H454.064C454.48 236.176 454.832 236.288 455.12 236.512C455.44 236.736 455.6 237.04 455.6 237.424C455.6 237.68 455.536 237.92 455.408 238.144C453.264 242.112 450.88 245.264 448.256 247.6C445.632 249.904 443.056 251.056 440.528 251.056C438.448 251.056 436.816 250.448 435.632 249.232C434.448 247.984 433.856 246.256 433.856 244.048C433.856 240.016 435.824 234.192 439.76 226.576C440.048 226.032 440.496 225.552 441.104 225.136C441.712 224.688 442.336 224.464 442.976 224.464ZM465.529 224.944C467.545 224.944 469.113 225.424 470.233 226.384C471.385 227.312 471.961 228.56 471.961 230.128C471.961 231.792 471.449 233.296 470.425 234.64C469.433 235.952 468.233 236.608 466.825 236.608C465.961 236.608 465.289 236.352 464.809 235.84C464.329 235.328 464.089 234.704 464.089 233.968C464.089 233.264 464.313 232.64 464.761 232.096C465.241 231.52 465.881 231.2 466.681 231.136C466.873 230.784 466.969 230.448 466.969 230.128C466.969 229.2 466.393 228.736 465.241 228.736C463.097 228.736 461.065 230.032 459.145 232.624C457.225 235.216 456.265 237.984 456.265 240.928C456.265 242.944 456.777 244.512 457.801 245.632C458.857 246.72 460.345 247.264 462.265 247.264C465.081 247.264 467.689 246.368 470.089 244.576C472.521 242.784 474.617 240.288 476.377 237.088C476.697 236.544 477.113 236.24 477.625 236.176H477.817C478.233 236.176 478.601 236.32 478.921 236.608C479.241 236.864 479.401 237.184 479.401 237.568C479.401 237.76 479.353 237.952 479.257 238.144C477.177 242.208 474.521 245.376 471.289 247.648C468.089 249.92 464.617 251.056 460.873 251.056C457.705 251.056 455.145 250.176 453.193 248.416C451.241 246.656 450.265 244.32 450.265 241.408C450.265 237.28 451.849 233.504 455.017 230.08C458.185 226.656 461.689 224.944 465.529 224.944ZM485.597 217.696C487.485 217.696 488.429 218.48 488.429 220.048C488.429 221.072 488.077 222.304 487.373 223.744C488.173 225.696 489.229 227.856 490.541 230.224C491.885 232.56 492.909 234.512 493.613 236.08C494.349 237.616 494.717 239.072 494.717 240.448C494.717 243.328 493.485 245.824 491.021 247.936C488.557 250.016 485.645 251.056 482.285 251.056C479.693 251.056 477.661 250.368 476.189 248.992C474.749 247.584 474.029 245.76 474.029 243.52C474.029 243.04 474.061 242.592 474.125 242.176C474.189 241.728 474.317 241.28 474.509 240.832C474.701 240.352 474.861 239.984 474.989 239.728C475.117 239.44 475.357 238.992 475.709 238.384C476.029 237.776 476.253 237.344 476.381 237.088C478.685 232.64 480.525 228.512 481.901 224.704C481.421 223.776 481.181 223.008 481.181 222.4C481.181 221.216 481.613 220.144 482.477 219.184C483.373 218.192 484.413 217.696 485.597 217.696ZM483.869 228.784C483.357 229.968 482.781 231.2 482.141 232.48C481.501 233.728 480.893 234.912 480.317 236.032C479.773 237.12 479.421 237.824 479.261 238.144C478.621 239.36 478.301 240.784 478.301 242.416C478.301 243.888 478.669 245.072 479.405 245.968C480.173 246.832 481.197 247.264 482.477 247.264C484.269 247.264 485.757 246.608 486.941 245.296C488.125 243.952 488.717 242.272 488.717 240.256C488.717 239.2 488.493 238.096 488.045 236.944C487.629 235.792 486.861 234.24 485.741 232.288C484.653 230.304 484.029 229.136 483.869 228.784Z" fill="#395E9C"/>
<path d="M284.88 444.384C288.08 448.053 289.68 453.237 289.68 459.936C289.68 464.885 288.421 469.92 285.904 475.04C283.386 480.16 280.144 484.704 276.176 488.672C272.208 492.597 267.642 495.819 262.48 498.336C257.317 500.811 252.24 502.048 247.248 502.048C245.84 502.048 244.666 501.728 243.728 501.088C242.789 500.491 242.32 499.68 242.32 498.656C242.32 498.016 242.618 497.013 243.216 495.648C245.562 490.315 247.61 483.573 249.36 475.424C251.109 467.232 252.538 461.771 253.648 459.04C248.058 462.325 244.453 464.608 242.832 465.888C238.992 468.789 237.072 471.605 237.072 474.336C237.072 475.573 237.306 476.555 237.776 477.28C238.245 478.005 238.736 478.475 239.248 478.688C239.802 478.901 240.314 479.221 240.784 479.648C241.253 480.075 241.488 480.629 241.488 481.312C241.488 482.848 240.464 483.616 238.416 483.616C236.069 483.616 234.128 482.784 232.592 481.12C231.098 479.456 230.352 477.323 230.352 474.72C230.352 473.44 230.586 472.203 231.056 471.008C231.525 469.771 232.293 468.533 233.36 467.296C234.469 466.059 235.536 464.971 236.56 464.032C237.584 463.093 239.077 461.963 241.04 460.64C243.002 459.275 244.602 458.208 245.84 457.44C247.077 456.629 248.954 455.477 251.472 453.984C253.989 452.448 255.866 451.296 257.104 450.528C257.573 449.333 258.448 448.203 259.728 447.136C261.008 446.027 262.181 445.472 263.248 445.472C264.442 445.472 265.445 445.835 266.256 446.56C267.066 447.285 267.472 448.096 267.472 448.992C267.472 450.4 266.64 451.595 264.976 452.576C263.354 454.496 261.904 457.952 260.624 462.944C259.344 467.893 257.936 473.632 256.4 480.16C254.906 486.645 253.221 492 251.344 496.224C256.336 495.627 261.178 493.493 265.872 489.824C270.608 486.112 274.426 481.525 277.328 476.064C280.229 470.56 281.68 465.035 281.68 459.488C281.68 457.013 281.445 454.667 280.976 452.448C280.549 450.187 280.037 448.651 279.44 447.84C278.8 446.987 278.48 446.411 278.48 446.112C278.48 445.216 278.821 444.491 279.504 443.936C280.186 443.381 280.997 443.104 281.936 443.104C283.088 443.104 284.069 443.531 284.88 444.384ZM307.518 466.592C310.377 466.592 312.724 467.275 314.558 468.64C316.436 470.005 317.374 471.797 317.374 474.016C317.374 477.728 315.454 480.843 311.614 483.36C307.774 485.877 303.124 487.136 297.662 487.136C297.022 487.136 296.19 487.093 295.166 487.008V487.904C295.166 490.592 295.849 492.683 297.214 494.176C298.622 495.627 300.606 496.352 303.166 496.352C306.452 496.352 309.844 495.136 313.342 492.704C316.841 490.229 319.721 486.923 321.982 482.784C322.366 482.101 322.921 481.717 323.646 481.632H323.966C324.521 481.632 325.012 481.803 325.438 482.144C325.865 482.443 326.078 482.827 326.078 483.296C326.078 483.595 325.993 483.893 325.822 484.192C322.878 489.568 319.252 493.792 314.942 496.864C310.676 499.893 306.132 501.408 301.31 501.408C297.086 501.408 293.673 500.235 291.07 497.888C288.468 495.541 287.166 492.427 287.166 488.544C287.166 483.04 289.278 478.005 293.502 473.44C297.726 468.875 302.398 466.592 307.518 466.592ZM307.134 471.648C304.958 471.648 302.804 472.715 300.67 474.848C298.58 476.981 297.001 479.669 295.934 482.912C296.873 482.997 297.577 483.04 298.046 483.04C301.545 483.04 304.361 482.315 306.494 480.864C308.628 479.413 309.694 477.451 309.694 474.976C309.694 473.909 309.438 473.099 308.926 472.544C308.414 471.947 307.817 471.648 307.134 471.648ZM330.307 458.272C332.483 458.272 333.571 459.659 333.571 462.432C333.571 464.139 333.4 465.653 333.059 466.976C336.899 469.493 339.395 471.371 340.547 472.608C341.741 473.845 342.339 474.955 342.339 475.936C342.339 476.32 342.317 476.683 342.275 477.024C342.232 477.365 342.104 477.749 341.891 478.176C341.72 478.603 341.571 478.965 341.443 479.264C341.357 479.52 341.123 479.947 340.739 480.544C340.397 481.141 340.12 481.589 339.907 481.888C339.736 482.187 339.373 482.763 338.819 483.616C338.264 484.427 337.859 485.045 337.603 485.472C335.341 488.928 334.211 491.445 334.211 493.024C334.211 495.243 335.277 496.352 337.411 496.352C341.293 496.352 345.752 491.829 350.787 482.784C351.427 481.632 352.323 481.248 353.475 481.632C354.456 481.931 354.925 482.528 354.883 483.424C354.84 483.68 354.755 483.936 354.627 484.192C348.483 495.669 341.891 501.408 334.851 501.408C332.333 501.408 330.307 500.768 328.771 499.488C327.235 498.208 326.467 496.501 326.467 494.368C326.467 491.467 328.109 487.563 331.395 482.656C333.357 479.883 334.339 477.877 334.339 476.64C334.339 475.36 333.251 473.888 331.075 472.224C329.752 476.192 328.003 480.181 325.827 484.192C325.144 485.472 324.227 485.899 323.075 485.472C322.136 485.131 321.688 484.512 321.731 483.616C321.731 483.317 321.816 483.04 321.987 482.784C324.632 478.091 326.488 473.483 327.555 468.96C325.507 467.424 324.483 465.888 324.483 464.352C324.483 462.816 325.059 461.429 326.211 460.192C327.363 458.912 328.728 458.272 330.307 458.272ZM364.111 454.24C365.519 454.24 366.607 454.667 367.375 455.52C368.143 456.373 368.527 457.397 368.527 458.592C368.527 459.829 368.101 460.917 367.247 461.856C366.437 462.752 365.327 463.2 363.919 463.2C362.597 463.2 361.53 462.795 360.719 461.984C359.909 461.173 359.503 460.128 359.503 458.848C359.503 457.525 359.93 456.437 360.783 455.584C361.679 454.688 362.789 454.24 364.111 454.24ZM359.759 465.952C360.826 465.952 361.679 466.293 362.319 466.976C363.002 467.616 363.343 468.384 363.343 469.28C363.343 469.749 363.258 470.261 363.087 470.816C362.959 471.371 362.725 471.989 362.383 472.672C362.042 473.312 361.743 473.867 361.487 474.336C361.231 474.805 360.847 475.445 360.335 476.256C359.866 477.067 359.525 477.664 359.311 478.048C356.879 482.485 355.663 486.816 355.663 491.04C355.663 494.581 356.794 496.352 359.055 496.352C360.677 496.352 362.746 495.115 365.263 492.64C367.781 490.165 370.191 486.88 372.495 482.784C372.879 482.101 373.455 481.696 374.223 481.568H374.543C375.098 481.568 375.567 481.717 375.951 482.016C376.378 482.315 376.591 482.72 376.591 483.232C376.591 483.573 376.506 483.893 376.335 484.192C373.477 489.483 370.298 493.685 366.799 496.8C363.301 499.872 359.866 501.408 356.495 501.408C353.722 501.408 351.546 500.597 349.967 498.976C348.389 497.312 347.599 495.008 347.599 492.064C347.599 486.688 350.223 478.923 355.471 468.768C355.855 468.043 356.453 467.403 357.263 466.848C358.074 466.251 358.906 465.952 359.759 465.952ZM389.767 447.392C390.876 447.392 391.751 447.712 392.391 448.352C393.073 448.992 393.415 449.803 393.415 450.784C393.415 452.32 392.796 454.475 391.559 457.248C390.321 459.979 388.657 463.179 386.567 466.848C384.476 470.475 383.409 472.331 383.367 472.416C380.721 477.621 378.46 482.805 376.583 487.968C377.991 489.291 378.759 490.08 378.887 490.336C380.849 491.189 382.663 491.616 384.327 491.616C389.617 491.616 393.884 488.672 397.127 482.784C397.681 481.888 398.321 481.44 399.047 481.44C399.601 481.44 400.092 481.653 400.519 482.08C400.945 482.507 401.159 482.976 401.159 483.488C401.159 483.701 401.095 483.936 400.967 484.192C398.919 488.032 396.38 490.976 393.351 493.024C390.364 495.029 387.036 496.032 383.367 496.032C382.94 496.032 382.343 495.989 381.575 495.904C383.153 500.896 383.943 505.632 383.943 510.112C383.943 515.531 382.855 519.797 380.679 522.912C378.545 526.069 375.516 527.648 371.591 527.648C368.647 527.648 366.385 526.645 364.807 524.64C363.185 522.677 362.375 519.883 362.375 516.256C362.375 509.088 365.063 498.4 370.439 484.192C375.815 469.941 380.871 458.613 385.607 450.208C386.631 448.331 388.017 447.392 389.767 447.392ZM374.663 494.368C373.255 498.123 372.06 502.112 371.079 506.336C370.055 510.56 369.543 514.101 369.543 516.96C369.543 520.715 370.481 522.592 372.359 522.592C374.236 522.592 375.687 521.44 376.711 519.136C377.735 516.875 378.247 513.952 378.247 510.368C378.247 507.168 377.927 504.075 377.287 501.088C376.647 498.101 375.772 495.861 374.663 494.368ZM410.424 454.24C411.832 454.24 412.92 454.667 413.688 455.52C414.456 456.373 414.84 457.397 414.84 458.592C414.84 459.829 414.413 460.917 413.56 461.856C412.749 462.752 411.64 463.2 410.232 463.2C408.909 463.2 407.842 462.795 407.032 461.984C406.221 461.173 405.816 460.128 405.816 458.848C405.816 457.525 406.242 456.437 407.096 455.584C407.992 454.688 409.101 454.24 410.424 454.24ZM406.072 465.952C407.138 465.952 407.992 466.293 408.632 466.976C409.314 467.616 409.656 468.384 409.656 469.28C409.656 469.749 409.57 470.261 409.4 470.816C409.272 471.371 409.037 471.989 408.696 472.672C408.354 473.312 408.056 473.867 407.8 474.336C407.544 474.805 407.16 475.445 406.648 476.256C406.178 477.067 405.837 477.664 405.624 478.048C403.192 482.485 401.976 486.816 401.976 491.04C401.976 494.581 403.106 496.352 405.368 496.352C406.989 496.352 409.058 495.115 411.576 492.64C414.093 490.165 416.504 486.88 418.808 482.784C419.192 482.101 419.768 481.696 420.536 481.568H420.856C421.41 481.568 421.88 481.717 422.264 482.016C422.69 482.315 422.904 482.72 422.904 483.232C422.904 483.573 422.818 483.893 422.648 484.192C419.789 489.483 416.61 493.685 413.112 496.8C409.613 499.872 406.178 501.408 402.808 501.408C400.034 501.408 397.858 500.597 396.28 498.976C394.701 497.312 393.912 495.008 393.912 492.064C393.912 486.688 396.536 478.923 401.784 468.768C402.168 468.043 402.765 467.403 403.576 466.848C404.386 466.251 405.218 465.952 406.072 465.952ZM436.143 466.592C439.002 466.592 441.349 467.275 443.183 468.64C445.061 470.005 445.999 471.797 445.999 474.016C445.999 477.728 444.079 480.843 440.239 483.36C436.399 485.877 431.749 487.136 426.287 487.136C425.647 487.136 424.815 487.093 423.791 487.008V487.904C423.791 490.592 424.474 492.683 425.839 494.176C427.247 495.627 429.231 496.352 431.791 496.352C435.077 496.352 438.469 495.136 441.967 492.704C445.466 490.229 448.346 486.923 450.607 482.784C450.991 482.101 451.546 481.717 452.271 481.632H452.591C453.146 481.632 453.637 481.803 454.063 482.144C454.49 482.443 454.703 482.827 454.703 483.296C454.703 483.595 454.618 483.893 454.447 484.192C451.503 489.568 447.877 493.792 443.567 496.864C439.301 499.893 434.757 501.408 429.935 501.408C425.711 501.408 422.298 500.235 419.695 497.888C417.093 495.541 415.791 492.427 415.791 488.544C415.791 483.04 417.903 478.005 422.127 473.44C426.351 468.875 431.023 466.592 436.143 466.592ZM435.759 471.648C433.583 471.648 431.429 472.715 429.295 474.848C427.205 476.981 425.626 479.669 424.559 482.912C425.498 482.997 426.202 483.04 426.671 483.04C430.17 483.04 432.986 482.315 435.119 480.864C437.253 479.413 438.319 477.451 438.319 474.976C438.319 473.909 438.063 473.099 437.551 472.544C437.039 471.947 436.442 471.648 435.759 471.648ZM490.74 447.392C491.849 447.392 492.724 447.712 493.364 448.352C494.046 448.992 494.388 449.803 494.388 450.784C494.388 452.235 493.854 454.155 492.788 456.544C491.764 458.933 490.142 462.091 487.924 466.016C485.705 469.941 484.51 472.075 484.34 472.416C482.804 475.36 481.46 478.603 480.308 482.144C479.198 485.643 478.644 488.587 478.644 490.976C478.644 492.555 478.942 493.856 479.54 494.88C480.18 495.861 481.14 496.352 482.42 496.352C484.297 496.352 486.537 495.136 489.14 492.704C491.742 490.272 494.174 486.965 496.436 482.784C496.777 482.144 497.353 481.739 498.164 481.568H498.484C499.038 481.568 499.508 481.717 499.892 482.016C500.318 482.315 500.532 482.72 500.532 483.232C500.532 483.573 500.446 483.893 500.276 484.192C497.502 489.44 494.302 493.621 490.676 496.736C487.049 499.851 483.465 501.408 479.924 501.408C477.79 501.408 475.956 500.896 474.42 499.872C472.884 498.805 471.86 497.376 471.348 495.584C467.593 499.467 463.518 501.408 459.124 501.408C455.454 501.408 452.553 500.363 450.42 498.272C448.286 496.139 447.22 493.259 447.22 489.632C447.22 486.901 447.838 484.149 449.076 481.376C450.27 478.56 451.806 476.085 453.684 473.952C455.604 471.776 457.801 470.005 460.276 468.64C462.793 467.275 465.268 466.592 467.7 466.592C470.26 466.592 472.372 467.168 474.036 468.32C475.7 469.472 476.788 470.816 477.3 472.352C482.206 459.595 485.3 452.213 486.58 450.208C487.774 448.331 489.161 447.392 490.74 447.392ZM468.02 471.648C465.076 471.648 462.196 473.525 459.38 477.28C456.606 481.035 455.22 484.917 455.22 488.928C455.22 491.275 455.689 493.109 456.628 494.432C457.609 495.712 458.974 496.352 460.724 496.352C463.241 496.352 465.588 495.072 467.764 492.512C469.982 489.909 471.732 486.368 473.012 481.888C473.054 481.504 473.076 480.693 473.076 479.456C473.076 477.152 472.606 475.275 471.668 473.824C470.729 472.373 469.513 471.648 468.02 471.648Z" fill="#395E9C"/>
</svg>
