<svg width="649" height="730" viewBox="0 0 649 730" fill="none" xmlns="http://www.w3.org/2000/svg">
<path d="M12.8588 453.947C14.9353 450.46 17.012 447.025 18.2366 443.085C18.5029 442.206 19.4613 441.78 20.5262 441.834C15.6276 417.101 13.045 391.41 13.045 365.027C13.045 329.751 17.6776 295.674 26.2502 263.513C26.1703 263.54 26.1168 263.62 26.037 263.62C24.9721 263.966 23.6145 264.232 22.6295 263.859C21.0321 263.247 21.7243 261.73 22.2834 260.745C23.0554 259.36 24.1468 258.136 25.1052 256.858C25.1052 254.808 25.7176 253.077 27.8475 252.305C28.4864 251.879 29.1253 251.453 29.7642 251.027C35.8875 230.847 43.6082 211.466 52.7132 193.122C51.6483 192.084 50.6099 190.993 49.6248 189.901C48.2138 188.277 47.7881 186.36 49.5719 184.523C51.1692 182.899 53.1126 182.313 55.056 183.458C55.7482 183.858 56.3605 184.363 56.9728 184.843C75.8751 149.115 100.209 117.487 128.668 91.4228C128.828 91.1566 129.041 90.9702 129.307 90.8371C146.745 74.9432 165.701 61.1526 185.908 49.758C185.801 49.7314 185.695 49.6781 185.615 49.6248C182.101 47.4151 178.933 44.8061 176.883 41.0789C176.723 40.786 176.59 40.4932 176.456 40.1737C132.822 65.4389 94.9107 101.54 65.519 145.281C67.2761 145.813 67.4623 147.997 67.4091 149.887C67.4091 152.363 67.7286 154.865 67.4091 157.288C66.85 161.175 63.8416 163.677 59.7683 164.157C57.6651 164.396 56.201 163.837 54.9231 161.974C29.3119 204.863 11.5807 254.195 4.07306 307.308C5.13798 305.631 7.26782 304.646 9.07818 305.311C10.0366 305.684 10.6758 306.935 11.2881 307.628C10.8355 310.183 8.0665 311.861 5.40421 311.355C4.63214 311.195 3.99345 310.742 3.67398 310.13C1.25129 328.047 0 346.364 0 365.027C0 378.817 0.718546 392.448 2.04969 405.866C2.95487 405.547 3.88667 405.254 4.71198 404.854C5.93664 405.28 6.20293 405.84 5.77697 406.691C2.18287 414.039 2.82197 415.291 10.2498 415.237C10.6491 415.237 11.0483 414.971 11.4477 414.945C12.7256 414.838 13.9237 415.131 13.8971 416.648C13.8971 417.287 13.1783 418.193 12.5659 418.459C9.71729 419.683 6.84204 420.855 3.94014 422.026C5.56414 433.607 7.64069 445.002 10.2231 456.183C11.0484 455.438 12.0067 454.852 12.7255 454.027L12.8055 453.974L12.8588 453.947ZM108.994 95.6559C110.272 95.4163 111.364 95.9753 111.47 97.3331C111.577 98.6909 110.698 99.5162 109.26 99.6227C108.089 99.7025 106.811 99.4629 106.758 98.0786C106.705 96.8007 107.743 95.8955 108.994 95.6559ZM60.0079 175.205C60.2475 175.125 60.5938 175.418 60.9133 175.525C60.8866 175.791 60.9664 176.19 60.8067 176.297C60.5671 176.483 60.1145 176.616 59.8749 176.483C58.8899 176.004 58.9429 175.471 60.0079 175.205ZM31.4149 209.149C31.761 208.75 32.9592 208.723 33.5981 208.963C36.6065 210.081 38.2039 212.264 37.911 215.965C37.4318 216.657 36.979 218.041 36.0472 218.521C34.4232 219.373 32.9325 218.547 31.8676 217.11C31.628 216.79 31.3884 216.444 31.2286 216.071C30.2968 213.729 29.6045 211.332 31.4415 209.149H31.4149ZM4.47247 378.365C3.24781 377.806 2.76868 376.581 3.22127 375.33C3.8336 373.599 5.24448 372.801 7.08146 373.253C8.33274 373.546 9.13169 374.424 9.34467 375.809C9.07844 377.513 6.20299 379.137 4.49912 378.365H4.47247ZM7.21471 347.748C4.71215 347.961 1.73023 345.033 1.73023 342.37C1.73023 339.655 4.41925 336.86 7.16141 336.939C9.8237 336.993 11.8204 338.271 12.5126 340.933C13.2847 343.941 10.4627 347.482 7.21471 347.775V347.748ZM12.406 288.06C12.7788 286.329 13.2048 283.933 13.8438 281.59C14.2165 280.179 16.9588 279.886 17.9438 281.084C21.1652 284.998 21.5113 288.858 18.6094 292.133C17.9172 292.905 16.5326 293.278 15.4145 293.411C13.9236 293.624 13.3647 292.319 12.9387 291.175C12.6459 290.429 12.6457 289.577 12.4327 288.06H12.406Z" fill="#264761"/>
<path d="M552.052 624.574C597.391 574.15 629.632 508.817 642.411 435.711C641.319 437.787 638.87 439.092 636.527 438.453C634.291 437.814 633.252 436.163 633.678 433.821C634.157 430.999 636.287 429.082 638.524 429.401C640.627 429.694 642.437 431.398 642.837 433.182C646.564 411.111 648.534 388.322 648.534 365.054C648.534 250.255 601.198 147.704 527.4 80.7207C526.095 81.7856 524.631 82.5311 523.14 82.6109C522.421 81.9986 521.383 81.333 520.717 80.4278C520.318 79.8954 520.211 78.6973 520.531 78.1649C521.01 77.3928 521.516 76.674 522.075 75.9818C516.857 71.4293 511.506 67.0631 506.048 62.8833C506.261 64.2677 505.063 64.7204 503.679 65.2528C499.792 64.7204 496.144 63.0963 493.349 59.8749C492.177 58.5172 492.018 56.8399 493.083 55.4023C493.402 54.9763 493.775 54.577 494.174 54.2309C444.736 19.8607 386.538 0 324.293 0C273.949 0 226.241 12.992 183.698 36.1273C187.585 38.2572 190.513 43.3954 189.768 47.6018C222.993 29.4982 259.493 17.9172 297.963 14.2698C297.67 13.6043 297.59 12.9388 297.883 12.4063C298.043 12.1134 298.416 11.9537 298.735 11.7141C300.226 12.0069 301.318 12.8057 302.037 13.9238C309.384 13.3381 316.812 13.0186 324.293 13.0186C406.079 13.0186 480.596 48.9063 536.185 107.45C544.092 106.545 548.219 107.477 546.755 109.793C545.157 112.349 543.001 112.588 540.791 112.402C545.29 117.327 549.683 122.412 553.916 127.657C554.102 126.166 554.715 124.888 556.685 125.234C557.883 125.447 558.735 126.246 558.815 127.657C558.548 129.201 557.723 130.346 556.126 130.426C566.029 142.938 575.161 156.223 583.414 170.254C583.867 169.854 584.586 169.721 585.278 169.828C585.943 169.934 586.929 170.467 587.008 170.972C587.248 172.25 586.369 172.969 585.225 173.368C617.039 228.584 635.569 294.449 635.569 365.107C635.569 446.6 610.969 521.676 569.73 581.418C570.13 581.418 570.529 581.418 570.928 581.445C572.046 581.951 573.084 582.563 572.845 584C572.286 587.408 568.905 589.538 565.843 588.18C565.657 588.1 565.47 587.914 565.284 587.728C543.693 617.545 517.895 643.29 488.876 663.816C488.876 666.878 487.252 669.673 484.35 671.457C483.738 671.83 482.78 671.67 482.007 671.75C481.182 671.617 480.33 670.924 479.718 670.046C440.316 695.817 395.51 712.137 347.722 716.157C347.136 717.594 346.976 719.112 347.722 721.002C348.813 723.664 349.478 726.353 349.505 729.042C412.601 723.558 470.719 697.627 518.587 657.16C518.241 657.267 517.895 657.4 517.522 657.48C515.898 657.959 514.301 657.4 513.077 656.095C511.506 654.445 511.133 652.448 512.065 650.451C513.982 646.378 520.664 644.408 524.844 646.697C525.456 647.017 525.722 647.975 526.308 648.88C526.175 649.413 526.095 650.052 525.962 650.691C534.534 642.997 542.761 634.824 550.615 626.198C550.828 625.479 551.334 624.947 552.052 624.627V624.574ZM635.409 459.006C636.048 459.139 636.9 459.778 637.113 460.364C637.565 461.668 635.462 463.372 633.838 463.159C633.279 462.653 632.454 462.227 632.267 461.588C631.762 460.018 633.439 458.633 635.435 459.006H635.409ZM460.177 688.948C459.964 689.534 459.058 690.066 458.34 690.199C456.689 690.545 455.118 690.199 453.894 688.868C452.989 687.883 452.776 686.712 453.601 685.673C454.054 685.088 454.905 684.795 455.891 684.156C457.089 684.955 458.499 685.727 459.644 686.765C460.123 687.191 460.363 688.336 460.123 688.948H460.177Z" fill="#264761"/>
<path d="M334.33 723.264C332.84 722.865 331.269 722.705 329.884 722.04C327.621 720.975 326.716 719.271 327.621 717.008C326.503 717.008 325.412 717.061 324.294 717.061C184.15 717.061 65.3857 611.768 26.4896 467.471C26.1701 467.817 25.7175 468.137 25.1584 468.483C23.5078 469.361 21.8572 469.388 20.18 468.589C19.328 467.871 18.5026 467.152 17.7305 466.353C18.5558 467.099 19.3813 467.844 20.2066 468.589C18.9021 468.376 18.1299 467.578 17.7305 466.353C15.8935 465.661 14.0567 464.995 12.2197 464.303C20.3131 496.464 32.2134 526.814 47.3619 554.715C47.495 554.315 47.6549 553.916 47.8945 553.57C48.5335 552.558 49.199 551.546 49.8379 550.535C50.0243 549.31 50.1307 548.085 50.3969 546.887C50.8495 544.891 52.3137 544.145 54.0176 544.971C57.798 546.808 58.0376 548.937 55.3221 553.676C54.4169 554.368 53.4854 555.087 52.6068 555.806C51.6484 556.632 50.6898 557.457 49.7313 558.282C49.6781 558.415 49.625 558.548 49.5451 558.681C56.0145 570.289 63.0694 581.444 70.6303 592.12C71.0296 591.534 71.5088 591.002 72.2542 590.576C73.2925 589.191 74.7834 588.233 76.2477 589.245C80.7469 592.359 80.9867 595.714 77.4192 600.879C77.4192 600.879 77.2863 601.065 77.233 601.172C82.5576 608.227 88.1215 615.042 93.8987 621.645C94.9103 621.192 96.0553 621.032 97.3598 621.405C101.193 622.497 103.643 625.239 104.601 629.046C104.974 630.51 104.947 632.107 104.974 633.652C134.818 664.534 169.774 689.214 208.271 705.853C209.442 705.667 210.827 705.64 212.69 705.667C217.961 705.773 220.97 707.637 221.849 711.337C254.036 723.424 288.459 730 324.24 730C328.979 730 333.665 729.867 338.351 729.627C337.818 727.045 336.806 724.729 334.277 723.211L334.33 723.264Z" fill="#264761"/>
<path d="M25.3978 463.664C25.3978 463.664 25.4511 463.717 25.4777 463.744C24.5459 460.096 23.6407 456.449 22.7888 452.748C21.5907 453.92 20.2862 455.011 19.1414 456.263C17.2512 458.339 18.6357 459.937 20.2064 461.427C22.3096 461.268 24.1997 461.64 25.3711 463.664H25.3978Z" fill="#264761"/>
<path d="M460.336 625.078C459.83 625.317 459.351 625.53 458.845 625.637C459.324 625.637 459.803 625.424 460.336 625.078Z" fill="#264761"/>
<path d="M90.3071 352.4L103.565 339.461L85.0625 336.772L76.7828 320L68.5031 336.772L68.3432 336.799L50 339.461L63.3914 352.507L63.3648 352.693L60.2234 370.956L76.7828 362.251L76.9424 362.33L93.3422 370.956L90.1742 352.507L90.3071 352.4Z" fill="#264761"/>
<path d="M587.307 352.4L600.592 339.461L582.063 336.772L573.809 320L565.529 336.772L565.343 336.799L547 339.461L560.418 352.507L560.365 352.693L557.25 370.956L573.809 362.251L573.942 362.33L590.342 370.956L587.201 352.507L587.307 352.4Z" fill="#264761"/>
<path d="M65.5874 240.646L73.1332 244.165L69.9899 250.906L114.45 260.369L78.6224 232.393L75.479 239.134L67.9332 235.616L77.3164 215.493L84.8623 219.012L82.235 224.646L138.361 268.457L136.016 273.488L66.4008 258.603L63.75 264.287L56.2041 260.769L65.5874 240.646Z" fill="#264761"/>
<path d="M172.839 195.058L166.461 189.706L171.813 183.328L184.569 194.032L157.81 225.922L151.432 220.57L156.784 214.192L110.011 174.945L104.66 181.323L98.2815 175.972L125.041 144.081L137.797 154.785L132.445 161.163L126.067 155.811L115.363 168.567L134.497 184.623L143.417 173.993L137.039 168.641L142.391 162.263L161.525 178.318L156.173 184.696L149.795 179.345L140.875 189.975L162.136 207.814L172.839 195.058Z" fill="#264761"/>
<path d="M208.449 127.051L215.659 122.889C220.466 120.113 221.482 116.322 218.707 111.515L210.381 97.094C207.605 92.287 203.814 91.2712 199.007 94.0465L191.797 98.2095L208.449 127.051ZM222.325 151.087L227.132 148.311L231.295 155.522L212.067 166.623L207.904 159.412L215.115 155.249L184.586 102.372L177.376 106.535L173.213 99.325L194.844 86.836C204.458 81.2854 212.041 83.317 217.591 92.931L225.917 107.352C229.692 113.89 229.969 119.476 226.749 124.113L245.11 137.931L248.764 135.822L252.927 143.033L236.102 152.746L231.939 145.536L237.227 142.483L220.351 129.794L212.612 134.262L222.325 151.087Z" fill="#264761"/>
<path d="M300.96 55.7875L301.83 64.0678L293.55 64.9381L299.932 125.661L308.212 124.79L309.082 133.071L284.241 135.682L283.371 127.401L291.651 126.531L285.269 65.8084L276.989 66.6787L276.119 58.3984L300.96 55.7875Z" fill="#264761"/>
<path d="M373.112 126.531L381.393 127.401L380.522 135.682L355.681 133.071L356.552 124.79L364.832 125.661L371.214 64.9381L362.934 64.0678L363.804 55.7874L405.206 60.1389L403.465 76.6996L395.185 75.8293L396.055 67.549L379.495 65.8084L376.884 90.6494L390.684 92.0999L391.555 83.8196L399.835 84.6899L397.224 109.531L388.944 108.661L389.814 100.38L376.013 98.9298L373.112 126.531Z" fill="#264761"/>
<path d="M486.546 100.135L482.383 107.346L475.173 103.183L444.644 156.06L451.855 160.223L447.692 167.433L426.06 154.944L430.223 147.734L437.434 151.897L467.962 99.0198L460.752 94.8569L464.915 87.6464L486.546 100.135Z" fill="#264761"/>
<path d="M500.193 208.192L506.571 202.84L511.923 209.218L499.167 219.922L472.408 188.031L478.786 182.679L484.138 189.058L530.91 149.811L525.558 143.433L531.936 138.081L558.695 169.971L545.939 180.675L540.588 174.297L546.966 168.945L536.262 156.189L517.128 172.244L526.047 182.874L532.426 177.523L537.777 183.901L518.643 199.956L513.291 193.578L519.669 188.226L510.75 177.596L489.49 195.436L500.193 208.192Z" fill="#264761"/>
<path d="M517.834 261.023L573.17 235.219L569.652 227.673L577.197 224.155L587.754 246.792C592.445 256.853 589.76 264.23 579.699 268.921L539.454 287.688C529.393 292.379 522.017 289.695 517.325 279.633L506.769 256.996L514.315 253.477L517.834 261.023ZM576.689 242.765L521.352 268.569L524.871 276.115C527.217 281.145 530.905 282.488 535.936 280.142L576.18 261.376C581.211 259.03 582.553 255.342 580.208 250.311L576.689 242.765Z" fill="#264761"/>
<path d="M325 291C242.302 291 175 358.302 175 441C175 506.423 217.127 562.168 275.64 582.615C276.468 583.201 277.458 583.565 278.509 583.585C293.137 588.373 308.776 591 325 591C407.698 591 475 523.698 475 441C475 358.302 407.698 291 325 291ZM325 301.345C402 301.345 464.655 364 464.655 441C464.655 501.311 426.226 552.793 372.582 572.311C372.016 570.634 371.552 568.148 371.552 566.451V539.276C371.552 528.446 366.258 516.647 361.045 508.726C389.756 503.877 422.569 488.986 422.569 433.403C422.569 418.169 417.8 404.732 408.405 393.418C410.466 386.629 413.012 372.304 405.9 354.322C405.334 352.887 404.142 351.776 402.667 351.291C401.212 350.846 387.938 347.391 360.379 365.475C349.165 362.585 337.305 361.09 325 361.05C312.756 361.09 300.876 362.585 289.702 365.475C262.143 347.371 248.828 350.826 247.394 351.291C245.919 351.776 244.727 352.887 244.161 354.322C237.029 372.324 239.574 386.629 241.676 393.418C232.24 404.732 227.472 418.169 227.472 433.403C227.472 488.481 259.698 503.655 288.167 508.706C284.591 513.232 280.832 519.091 279.176 525.052C271.821 527.092 256.748 527.153 246.626 509.817C246.262 509.151 237.412 493.431 219.956 492.219C217.188 492.239 210.156 492.684 208.459 498.058C206.58 504.019 213.167 508.544 215.995 510.464C216.177 510.585 216.46 510.747 216.642 510.848C216.965 511.009 224.502 514.97 230.119 529.113C231.29 532.81 241.575 560.673 278.489 555.763C278.509 559.844 278.489 561.905 278.448 563.542V566.431C278.448 568.108 277.943 570.634 277.377 572.27C223.734 552.752 185.345 501.271 185.345 441C185.345 364 248 301.345 325 301.345ZM323.747 316.882C303.583 317.105 283.641 322.418 266.083 332.46C263.598 333.854 262.729 337.026 264.143 339.491C265.093 341.168 266.831 342.118 268.649 342.118C269.518 342.118 270.387 341.896 271.195 341.431C292.592 329.227 317.848 324.661 342.275 328.581C345.084 329.046 347.73 327.126 348.195 324.297C348.64 321.469 346.72 318.822 343.912 318.357C337.224 317.286 330.475 316.801 323.747 316.882ZM364.601 324.035C362.601 324.116 360.722 325.388 359.995 327.389C358.984 330.076 360.338 333.046 363.025 334.056C366.703 335.43 370.339 337.006 373.895 338.784C374.643 339.168 375.431 339.35 376.219 339.35C378.098 339.35 379.916 338.32 380.846 336.501C382.119 333.975 381.088 330.844 378.543 329.551C374.683 327.611 370.663 325.853 366.642 324.358C365.975 324.116 365.288 324.015 364.601 324.035ZM397.333 361.07C402.889 377.416 399.091 389.256 397.717 392.61C396.969 394.468 397.353 396.59 398.707 398.065C407.658 407.864 412.204 419.745 412.204 433.403C412.204 485.834 381.129 496.361 350.7 499.735C348.66 499.957 346.942 501.372 346.336 503.332C345.71 505.291 346.336 507.433 347.892 508.787C351.973 512.282 361.207 527.456 361.207 539.276V566.451C361.207 566.552 361.227 571.058 362.702 575.442C350.7 578.817 338.072 580.655 325 580.655C311.907 580.655 299.259 578.796 287.237 575.422C288.732 571.018 288.773 566.512 288.773 566.431L288.793 563.663C288.813 561.319 288.854 558.147 288.793 549.6C288.773 548.025 288.066 546.57 286.853 545.58C285.641 544.61 284.045 544.246 282.509 544.57C247.777 552.146 240.261 527.072 239.978 526.022C239.918 525.84 239.857 525.678 239.797 525.496C234.826 512.888 228.28 506.463 224.38 503.554C232.806 506.524 237.513 514.747 237.635 514.929C251.313 538.346 273.902 538.953 285.722 533.659C287.359 532.932 288.49 531.416 288.732 529.658C289.783 522.263 297.905 512.484 302.007 508.888C303.543 507.534 304.149 505.393 303.522 503.453C302.916 501.493 301.219 500.079 299.199 499.856C268.851 496.401 237.817 485.794 237.817 433.403C237.817 419.765 242.363 407.864 251.354 398.065C252.707 396.59 253.091 394.468 252.324 392.61C250.95 389.256 247.131 377.456 252.667 361.09C257.072 361.232 267.8 363.111 285.863 375.375C287.116 376.224 288.712 376.486 290.167 376.082C300.977 373.072 313.039 371.455 325 371.395C337.002 371.455 349.064 373.072 359.894 376.082C361.348 376.486 362.924 376.224 364.177 375.375C382.341 363.05 393.07 361.211 397.333 361.07ZM275.216 458.558C273.195 458.315 271.154 459.245 270.104 461.104L264.931 470.054C263.497 472.54 264.345 475.692 266.81 477.126C267.619 477.591 268.508 477.813 269.397 477.813C271.175 477.813 272.912 476.884 273.862 475.227L279.034 466.276C280.469 463.811 279.64 460.639 277.155 459.204C276.529 458.861 275.882 458.639 275.216 458.558ZM374.784 458.558C374.118 458.639 373.451 458.861 372.845 459.204C370.36 460.639 369.531 463.811 370.966 466.296L376.138 475.247C377.088 476.904 378.825 477.833 380.603 477.833C381.492 477.833 382.381 477.591 383.19 477.126C385.675 475.692 386.503 472.54 385.069 470.075L379.896 461.124C378.825 459.265 376.785 458.315 374.784 458.558ZM351.832 468.64C351.165 468.539 350.458 468.579 349.751 468.782C347.003 469.509 345.366 472.338 346.094 475.106L348.781 485.107C349.407 487.41 351.488 488.926 353.772 488.926C354.236 488.926 354.681 488.865 355.125 488.764C357.873 488.016 359.53 485.188 358.782 482.42L356.115 472.439C355.55 470.357 353.812 468.923 351.832 468.64ZM298.188 468.64C296.188 468.923 294.45 470.357 293.885 472.439L291.218 482.44C290.47 485.188 292.127 488.016 294.875 488.764C295.319 488.885 295.764 488.926 296.228 488.926C298.491 488.926 300.593 487.41 301.219 485.107L303.906 475.106C304.634 472.358 302.997 469.509 300.249 468.782C299.542 468.579 298.855 468.559 298.188 468.64ZM325 472.034C322.131 472.034 319.828 474.338 319.828 477.207V487.552C319.828 490.421 322.131 492.724 325 492.724C327.869 492.724 330.172 490.421 330.172 487.552V477.207C330.172 474.338 327.869 472.034 325 472.034Z" fill="#264761"/>
</svg>
