<svg width="715" height="733" viewBox="0 0 715 733" fill="none" xmlns="http://www.w3.org/2000/svg">
<path d="M507.817 584.773V584.826C507.817 584.826 507.817 584.826 507.844 584.799C507.844 584.799 507.897 584.773 507.923 584.746C507.897 584.746 507.87 584.693 507.844 584.693C507.844 584.72 507.844 584.773 507.844 584.799H507.817V584.773Z" fill="#E9BE3C"/>
<path d="M175.323 549.361C174.981 551.045 174.481 552.65 173.56 554.175C173.087 554.991 172.403 555.675 171.745 556.359L275.455 662.595C276.323 660.069 277.533 657.728 278.954 655.518L175.323 549.387V549.361Z" fill="#E9BE3C"/>
<path d="M707.134 355.593C705.187 353.857 706.081 352.015 709.791 350.279C710.001 349.884 710.238 349.463 710.448 349.069C709.054 346.622 707.37 344.333 705.371 342.281L609.711 244.28C609.711 244.28 609.659 244.438 609.606 244.517C608.712 246.411 607.238 247.963 605.186 247.911C603.16 247.858 601.766 246.174 600.793 244.385C599.661 242.359 600.056 240.649 601.871 239.229C602.424 238.808 602.95 238.334 603.45 237.861L591.19 225.311C591.19 225.311 591.19 225.416 591.19 225.495C590.374 227.127 589.006 227.521 587.454 226.811C586.323 226.311 585.823 225.127 586.349 223.996C586.849 222.97 587.849 222.733 588.822 222.891L585.244 219.234C583.771 220.523 582.297 221.812 580.824 223.101C580.693 223.733 580.535 224.311 580.351 224.89L700.135 347.595C704.976 352.542 707.634 359.171 707.634 366.249C707.634 373.326 704.976 379.955 700.135 384.902L662.698 423.26C663.303 422.839 664.066 422.497 665.065 422.287C666.144 420.919 667.644 420.235 669.117 420.971C670.485 421.629 671.827 422.418 673.142 423.234L705.344 390.242C711.58 383.849 715 375.351 715 366.249C715 363.986 714.79 361.776 714.369 359.592C711.685 358.777 709.238 357.461 707.107 355.567L707.134 355.593Z" fill="#E9BE3C"/>
<path d="M167.378 541.23L14.7856 384.928C9.94479 379.956 7.28756 373.352 7.28756 366.275C7.28756 359.198 9.94479 352.568 14.7856 347.622L110.629 249.463C108.84 249.937 107.235 249.516 105.867 248.148C105.657 247.937 105.683 247.385 105.736 247.016C106.052 244.07 110.103 241.702 112.708 243.044C113.287 243.333 113.523 244.28 113.971 245.017C114.023 245.412 113.971 245.754 113.971 246.096L142.411 216.972L138.622 213.63L143.41 207.895L147.646 211.605L164.063 194.767L160.038 191.215L164.826 185.48L169.298 189.4L172.061 186.558C171.614 186.453 171.193 186.295 170.745 186.216C169.43 186.19 168.535 185.559 168.167 184.269C168.141 184.269 168.114 184.296 168.062 184.322C166.852 184.217 165.773 183.875 164.773 183.375L152.013 196.451C152.25 199.581 151.698 202.686 149.567 205.738V205.79C147.962 209.237 145.305 208.632 142.674 207.553C142.305 207.395 142.042 207.185 141.753 206.974L9.65544 342.281C3.4202 348.674 0 357.172 0 366.275C0 375.378 3.4202 383.876 9.65544 390.269L58.3797 440.177C59.8793 440.151 61.1684 440.624 62.326 441.677C63.1416 442.44 63.2732 443.729 62.7733 444.676L162.958 547.307C163.221 546.86 163.484 546.387 163.747 545.939C164.984 544.361 166.194 542.782 167.43 541.204L167.378 541.23Z" fill="#E9BE3C"/>
<path d="M502.371 591.821C502.371 591.821 502.581 592.058 502.634 592.163C502.686 592.084 502.765 592.005 502.818 591.9C502.66 591.873 502.528 591.847 502.371 591.821Z" fill="#E9BE3C"/>
<path d="M502.923 591.772L502.818 591.903L502.923 591.85C502.923 591.85 502.923 591.772 502.923 591.745V591.772Z" fill="#E9BE3C"/>
<path d="M658.488 434.179C658.488 432.495 659.172 431.101 660.514 430.101C660.409 427.97 660.567 425.97 661.54 424.523L582.666 505.318L586.059 508.291L581.271 514.027L577.456 510.685L561.25 527.286L564.67 530.286L559.882 536.021L556.041 532.653L539.835 549.254L543.255 552.253L538.466 557.989L534.625 554.595L518.419 571.196L520.813 573.301C520.971 573.248 521.129 573.195 521.287 573.169C523.312 572.748 525.101 573.116 526.18 573.932L660.04 436.81C658.935 436.441 658.514 435.442 658.514 434.258L658.488 434.179Z" fill="#E9BE3C"/>
<path d="M320.207 701.059C321.575 700.191 323.312 700.796 324.285 702.295C326.574 705.794 328.942 709.136 332.914 710.793L284.243 660.938C282.875 663.332 281.954 665.91 281.401 668.699L319.734 707.978C319.444 707.215 319.207 706.373 318.997 705.426C318.655 703.769 318.865 701.927 320.181 701.085L320.207 701.059Z" fill="#E9BE3C"/>
<path d="M495.635 601.846L492.162 598.794C491.952 598.741 491.715 598.689 491.505 598.636L475.509 615.027L479.008 618.078L474.22 623.814L470.3 620.367L451.278 639.862L452.225 640.704L447.437 646.44L446.069 645.229L429.652 662.067L430.836 663.119L426.048 668.855L424.443 667.434L377.087 715.948C377.534 716.29 378.008 716.658 378.35 717.105C379.849 719.079 380.823 721.289 379.218 723.656C377.56 726.103 375.166 727.366 372.22 727.313C370.089 727.287 368.484 726.208 367.747 724.13C367.616 723.735 367.537 723.341 367.51 722.972C364.38 724.314 361.012 725.025 357.513 725.025C350.62 725.025 344.148 722.288 339.307 717.342L334.045 711.949C334.151 712.37 334.203 712.817 334.072 713.054C333.809 713.606 332.888 713.843 332.204 714.133C331.862 714.29 331.441 714.238 331.046 714.264C328.415 714.08 326.363 713.712 324.732 713.08L334.098 722.683C340.333 729.076 348.647 732.575 357.513 732.575C366.379 732.575 374.693 729.05 380.928 722.683L499.687 601.057C498.924 600.662 498.161 600.267 497.398 599.873L495.688 601.925L495.635 601.846Z" fill="#E9BE3C"/>
<path d="M413.946 54.4095L577.22 221.656C577.536 221.208 577.851 220.735 578.141 220.235C579.088 218.393 580.166 216.71 581.561 215.421L505.317 137.309C504.818 137.756 504.16 138.125 503.449 138.388C501.713 139.019 499.266 137.151 499.319 135.283C499.345 133.994 499.845 133.1 500.608 132.495L445.491 76.0355C444.281 76.851 442.807 77.2193 441.255 77.0615C440.282 76.9562 439.229 75.9829 438.545 75.141C437.651 74.0097 438.466 72.8521 439.229 71.9576C439.571 71.5367 439.94 71.1157 440.308 70.7211L415.446 45.2539C415.472 48.411 415.235 51.5155 413.999 54.4095H413.946Z" fill="#E9BE3C"/>
<path d="M170.851 179.059C172.192 179.296 172.982 180.164 173.455 181.4C174.113 182.032 174.744 182.716 175.034 183.453L188.267 169.903L186.768 168.588L191.556 162.853L193.476 164.536L209.683 147.935L208.157 146.594L212.945 140.858L214.892 142.568L231.098 125.967L229.572 124.626L234.361 118.89L236.334 120.6L252.54 103.999L250.988 102.631L255.776 96.896L257.749 98.6324L273.956 82.0314L272.377 80.6371L277.165 74.928L279.165 76.6907L295.371 60.0897L293.766 58.6954L298.555 52.96L300.58 54.749L339.228 15.1803C344.069 10.2079 350.541 7.49808 357.434 7.49808C364.327 7.49808 370.799 10.2342 375.64 15.1803L410.789 51.171C411.42 48.8295 410.92 46.3828 409.263 43.8308C408.421 42.489 407.263 41.3578 406.5 39.9634C405.843 38.7269 405.869 37.2798 406.369 35.9907L380.823 9.83954C378.613 7.57697 376.14 5.70904 373.483 4.18312C373.404 4.18312 373.325 4.18315 373.22 4.13053C372.378 3.76221 371.562 3.28862 370.746 2.78875C369.694 2.31519 368.615 1.89421 367.51 1.52589C364.222 2.92026 360.959 4.36726 357.618 5.55116C356.671 5.89318 355.408 5.20918 354.908 3.94635C354.303 2.39412 354.382 0.894506 355.724 0C347.489 0.420944 339.807 3.84106 333.966 9.81321L169.693 178.086C170.035 178.349 170.377 178.585 170.745 178.901C170.745 178.901 170.745 178.954 170.745 178.98L170.851 179.059Z" fill="#E9BE3C"/>
<path d="M315.235 77.5581L312.156 74.8482L295.95 91.4492L298.607 93.7908L293.819 99.5261L290.715 96.8163L274.508 113.417L277.192 115.785L272.404 121.52L269.299 118.784L253.093 135.385L255.803 137.753L251.014 143.488L247.884 140.726L231.677 157.327L234.413 159.721L229.625 165.43L226.468 162.668L210.262 179.269L212.998 181.689L208.21 187.424L205.026 184.636L194.792 195.107C196.818 194.449 198.791 194.265 200.08 196.58C200.106 196.633 200.106 196.685 200.133 196.738L338.386 55.1165C339.307 54.1694 340.281 53.3538 341.307 52.5645C341.07 52.3014 340.991 51.8279 341.017 51.4596C341.123 49.539 342.543 48.9339 344.043 48.4077C345.464 47.9079 346.779 47.9078 347.91 48.8813C350.936 47.7237 354.172 47.066 357.513 47.066C364.748 47.066 371.51 49.9336 376.587 55.1165L428.863 108.682C429.231 108.576 429.626 108.55 429.837 108.682C430.336 108.945 430.547 109.787 430.889 110.392C430.81 110.444 430.757 110.497 430.678 110.55L490.321 171.639C491.715 170.376 493.11 169.376 494.741 171.876C495.688 173.323 495.451 174.77 494.636 176.085L543.07 225.678C543.754 225.967 544.517 226.914 545.228 227.467C545.228 227.625 545.228 227.73 545.228 227.888L610.001 294.239H615.92V299.264H614.894L633.1 317.917C634.389 316.654 635.836 315.812 637.415 315.234L593.321 270.061C592.189 270.64 590.979 271.113 589.611 271.403C588.717 271.587 587.349 270.85 586.586 270.14C585.717 269.351 585.77 268.167 586.507 267.009C587.059 266.115 587.559 265.352 588.033 264.641L380.06 51.5911C374.061 45.4348 366.037 42.0673 357.513 42.0673C348.989 42.0673 340.965 45.4611 334.966 51.5911L317.392 69.5864L320.049 71.9017L315.261 77.6107L315.235 77.5581ZM555.436 236.307C555.672 235.833 556.593 235.386 557.12 235.465C558.014 235.596 558.224 236.438 557.593 237.122C557.146 237.596 556.436 237.806 555.857 238.148C555.673 237.517 555.199 236.727 555.409 236.333L555.436 236.307Z" fill="#E9BE3C"/>
<path d="M141.464 477.483C139.306 476.747 138.649 475.273 139.385 473.616L102.868 436.231H96.9489V431.206H97.9749L53.6705 385.823C48.5929 380.613 45.8042 373.694 45.8042 366.275C45.8042 358.856 48.5929 351.937 53.6705 346.727L100.053 299.213H99.0273V296.688V294.188H104.947L192.556 204.448C192.214 204.238 191.872 204.027 191.477 203.764L191.346 203.659C190.477 202.923 189.372 202.344 188.767 201.423C188.741 201.397 188.715 201.344 188.688 201.291L185.952 204.106L186.163 204.291L181.374 210L180.743 209.447L164.326 226.285L164.773 226.68L159.985 232.415L159.117 231.652L113.708 278.166C114.602 278.324 115.365 278.692 115.523 279.876C115.76 281.692 114.155 282.218 112.629 282.376C111.892 282.455 111.156 282.481 110.419 282.507C110.103 282.507 109.788 282.507 109.472 282.534L50.2241 343.202C44.2256 349.358 40.9106 357.54 40.9106 366.301C40.9106 375.062 44.2256 383.244 50.2241 389.401L91.6081 431.811C91.9501 431.653 92.2921 431.548 92.6341 431.521C95.3966 431.285 96.7384 432.39 96.2911 434.31C96.1596 434.915 95.9754 435.52 95.7913 436.099L171.614 513.763C174.534 515.447 177.27 516.92 180.69 515.973L143.568 477.957C142.832 477.878 142.121 477.773 141.437 477.536L141.464 477.483Z" fill="#E9BE3C"/>
<path d="M357.487 690.533C366.037 690.533 374.035 687.14 380.034 681.01L407.684 652.701L404.633 650.018L409.421 644.282L412.92 647.334L429.337 630.496L426.048 627.602L430.836 621.893L434.572 625.156L453.594 605.661L452.831 605.003L453.515 604.187C452.199 603.872 451.068 603.161 450.042 602.188L376.587 677.432C366.064 688.218 348.936 688.218 338.413 677.432L195.871 531.417C195.713 532.311 195.16 533.127 194.134 533.758C193.713 534.416 193.213 534.89 192.714 535.284L334.94 680.957C340.938 687.113 348.963 690.481 357.487 690.481V690.533Z" fill="#E9BE3C"/>
<path d="M652.358 337.572C653.173 337.835 654.015 338.045 654.91 338.072C656.83 338.151 659.145 337.914 658.856 340.913C658.777 341.834 658.514 342.702 658.172 343.518L661.276 346.701C666.354 351.91 669.143 358.83 669.143 366.249C669.143 373.668 666.354 380.587 661.276 385.796L616.972 431.179H617.998V433.679V436.204H612.079L462.801 589.112C464.459 589.507 465.801 590.507 466.616 592.322L475.009 583.719L474.246 583.035L479.034 577.299L480.244 578.352L496.451 561.751L495.661 561.04L500.45 555.305L501.66 556.384L517.866 539.783L517.051 539.072L521.839 533.337L523.075 534.442L539.282 517.841L538.44 517.104L543.228 511.369L544.491 512.474L560.697 495.873L559.829 495.11L564.617 489.401L565.906 490.532L664.723 389.295C670.721 383.139 674.036 374.957 674.036 366.196C674.036 357.435 670.721 349.253 664.723 343.097L643.413 321.26C641.413 321.313 639.361 321.55 637.335 322.155L652.331 337.493L652.358 337.572Z" fill="#E9BE3C"/>
<path d="M180.532 296.136C180.296 297.162 180.111 298.189 179.954 299.188H375.429C377.718 297.741 380.586 297.083 382.954 297.82C383.322 297.925 383.533 298.504 383.848 299.188H604.449C604.028 298.978 603.607 298.741 603.16 298.531C602.081 297.978 601.818 296.663 602.108 295.4C602.213 294.9 602.423 294.479 602.66 294.137H256.302C255.96 294.453 255.487 294.663 254.934 294.768C253.829 294.952 252.83 294.847 252.198 294.137H180.611C180.664 294.821 180.664 295.479 180.532 296.11V296.136Z" fill="#E9BE3C"/>
<path d="M614.605 299.187H615.894V294.162H609.027C611.185 295.346 612.947 297.213 614.605 299.187Z" fill="#E9BE3C"/>
<path d="M168.405 297.345C166.721 296.424 166.484 295.319 166.694 294.162H99.054V299.187H170.141C169.562 298.582 168.983 297.95 168.405 297.345Z" fill="#E9BE3C"/>
<path d="M96.9751 431.18V436.205H185.294C186.61 434.705 187.925 434.442 189.214 436.205H306.105C306.474 436.073 306.842 435.968 307.263 435.916C307.815 435.863 308.368 435.968 308.868 436.205H372.43C373.325 435.731 374.377 435.442 375.429 435.284C376.14 435.179 376.85 435.574 377.455 436.205H618.051V431.18H97.0014H96.9751Z" fill="#E9BE3C"/>
<path d="M348.673 463.803C348.673 463.803 348.831 463.777 348.91 463.724C348.989 463.671 349.042 463.592 349.094 463.513C349.015 463.435 348.936 463.356 348.831 463.303C348.726 463.224 348.621 463.198 348.516 463.198L348.384 463.25C348.384 463.25 348.384 463.303 348.384 463.329C348.384 463.356 348.384 463.382 348.384 463.382C348.384 463.487 348.41 463.592 348.489 463.671C348.542 463.75 348.621 463.803 348.726 463.803H348.673Z" fill="#E9BE3C"/>
<path d="M179.401 342.543C179.296 342.412 179.165 342.307 179.059 342.202C179.243 342.491 179.454 342.754 179.612 343.017C179.533 342.859 179.48 342.701 179.375 342.543H179.401Z" fill="#E9BE3C"/>
<path d="M132.13 378.956L138.944 375.272L145.784 378.956L144.468 371.168L149.993 365.67L142.364 364.538L138.944 357.461L135.55 364.538L127.92 365.67L133.445 371.168L132.13 378.956Z" fill="#E9BE3C"/>
<path d="M559.529 371.168L565.054 365.67L557.425 364.538L554.004 357.461L550.584 364.538L542.955 365.67L548.479 371.168L547.164 378.956L553.978 375.272L560.581 378.824C560.581 378.824 560.687 378.666 560.739 378.614L559.503 371.168H559.529Z" fill="#E9BE3C"/>
<path d="M310.21 257.069C308.131 257.069 306.869 257.069 306.448 257.516C306.053 257.964 306.106 259.305 306.237 261.515C310.341 262.883 312.998 260.647 316.05 257.122C315.998 257.122 315.945 257.122 315.892 257.122C313.972 257.122 312.157 257.122 310.183 257.095L310.21 257.069Z" fill="#E9BE3C"/>
<path d="M181.401 210.002L186.189 204.266L185.979 204.109L169.246 189.402L164.774 185.482L159.986 191.191L164.037 194.743L180.77 209.449L181.401 210.002Z" fill="#E9BE3C"/>
<path d="M208.183 187.402L212.972 181.666L210.236 179.246L193.503 164.566L191.582 162.882L186.794 168.591L188.267 169.906L205.026 184.613L208.183 187.402Z" fill="#E9BE3C"/>
<path d="M159.985 232.389L164.773 226.654L164.326 226.259L147.594 211.579L143.358 207.869L138.57 213.578L142.384 216.92L159.117 231.626L159.985 232.389Z" fill="#E9BE3C"/>
<path d="M229.599 165.432L234.387 159.696L231.651 157.302L214.919 142.595L212.972 140.912L208.184 146.621L209.709 147.963L226.442 162.643L229.599 165.432Z" fill="#E9BE3C"/>
<path d="M251.014 143.465L255.802 137.729L253.093 135.362L236.36 120.655L234.387 118.945L229.599 124.654L231.125 125.996L247.857 140.702L251.014 143.465Z" fill="#E9BE3C"/>
<path d="M272.404 121.496L277.192 115.761L274.509 113.393L257.776 98.7127L255.803 96.9763L251.015 102.685L252.567 104.053L269.299 118.76L272.404 121.496Z" fill="#E9BE3C"/>
<path d="M293.819 99.5278L298.607 93.7925L295.95 91.4509L279.218 76.7442L277.192 75.0078L272.404 80.7169L273.982 82.1113L290.715 96.7917L293.819 99.5278Z" fill="#E9BE3C"/>
<path d="M315.235 77.5623L320.023 71.8269L317.366 69.5117L300.633 54.805L298.608 53.0424L293.819 58.7514L295.424 60.1457L312.157 74.8525L315.235 77.5623Z" fill="#E9BE3C"/>
<path d="M430.81 621.895L426.022 627.63L429.337 630.524L446.069 645.231L447.437 646.415L452.226 640.706L451.278 639.864L434.546 625.184L430.81 621.895Z" fill="#E9BE3C"/>
<path d="M455.988 604.347C455.093 604.452 454.278 604.373 453.515 604.189L452.831 605.005L453.593 605.662L470.326 620.369L474.246 623.815L479.034 618.08L475.535 615.028L461.144 602.4C459.618 603.4 457.908 604.136 455.988 604.347Z" fill="#E9BE3C"/>
<path d="M409.421 644.282L404.632 650.018L407.684 652.701L424.417 667.382L426.022 668.802L430.81 663.093L429.626 662.041L412.893 647.361L409.421 644.282Z" fill="#E9BE3C"/>
<path d="M488.821 586.639C488.821 586.639 488.664 586.508 488.585 586.429C488.585 586.534 488.585 586.639 488.585 586.771C488.664 586.718 488.742 586.692 488.821 586.639Z" fill="#E9BE3C"/>
<path d="M492.163 598.795L495.635 601.846L497.345 599.794C496.793 599.505 496.214 599.215 495.635 598.926C494.451 598.979 493.268 599.005 492.136 598.821L492.163 598.795Z" fill="#E9BE3C"/>
<path d="M474.22 583.062L474.983 583.746L485.085 592.612C485.296 591.823 485.69 590.797 486.243 589.324C486.322 587.482 486.243 585.614 486.322 583.772L480.192 578.379L478.982 577.327L474.193 583.062H474.22Z" fill="#E9BE3C"/>
<path d="M500.424 555.356L495.635 561.092L496.424 561.802L511.868 575.351C513.394 574.694 515.157 574.851 516.893 574.851C518.182 574.299 519.445 573.615 520.787 573.22L518.392 571.116L501.66 556.409L500.45 555.33L500.424 555.356Z" fill="#E9BE3C"/>
<path d="M521.839 533.389L517.051 539.125L517.867 539.835L534.599 554.516L538.466 557.909L543.255 552.2L539.808 549.175L523.076 534.494L521.839 533.389Z" fill="#E9BE3C"/>
<path d="M543.255 511.422L538.466 517.158L539.282 517.894L556.041 532.575L559.856 535.942L564.644 530.233L561.25 527.234L544.518 512.527L543.255 511.422Z" fill="#E9BE3C"/>
<path d="M564.644 489.452L559.855 495.188L560.724 495.924L577.456 510.631L581.271 513.972L586.059 508.263L582.665 505.29L565.933 490.584L564.644 489.452Z" fill="#E9BE3C"/>
<path d="M326.8 178.333L314 168.467" stroke="#E9BE3C" stroke-width="6" stroke-linecap="round" stroke-linejoin="round"/>
<path d="M314 217.533L326.8 207.667" stroke="#E9BE3C" stroke-width="6" stroke-linecap="round" stroke-linejoin="round"/>
<path d="M388.4 225.8L375.6 214.333" stroke="#E9BE3C" stroke-width="6" stroke-linecap="round" stroke-linejoin="round"/>
<path d="M372.4 238.867C399.067 230.6 404.667 202.6 402 186.067C401.733 184.733 400.667 183.667 399.333 183.667H358C356.4 183.667 355.333 184.733 355.333 186.333V199.667C355.333 201.267 356.4 202.333 358 202.333H382C378.267 214.6 367.6 222.867 352.4 221.8C341.2 221 331.333 213.533 327.6 202.867C320.4 182.067 335.6 162.867 355.333 162.867C362 162.867 367.867 165 372.933 168.733C374 169.533 375.333 169.267 376.4 168.467L386.533 158.333C387.6 157.267 387.6 155.4 386.267 154.333C377.733 147.4 366.8 143.4 354.8 143.4" stroke="#E9BE3C" stroke-width="6" stroke-linecap="round" stroke-linejoin="round"/>
<path d="M336.133 147.133C320.4 153.8 308.667 168.733 306.533 186.6C303.333 214.867 324.667 239.4 351.867 241.267" stroke="#E9BE3C" stroke-width="6" stroke-linecap="round" stroke-linejoin="round"/>
<path d="M231.781 333.594V332.375H238.812V353.469H231.781V346.438C231.781 341.75 229.438 339.406 224.75 339.406C220.062 339.406 217.719 341.75 217.719 346.438V383.938C217.719 388.625 220.062 390.969 224.75 390.969C229.438 390.969 231.781 388.625 231.781 383.938V368.703H224.75V361.672H238.812V398H231.781V396.781C229.844 397.594 227.5 398 224.75 398C215.375 398 210.688 393.312 210.688 383.938V346.438C210.688 337.062 215.375 332.375 224.75 332.375C227.5 332.375 229.844 332.781 231.781 333.594ZM269.93 339.406C265.243 339.406 262.899 341.75 262.899 346.438V383.938C262.899 388.625 265.243 390.969 269.93 390.969C274.618 390.969 276.961 388.625 276.961 383.938V346.438C276.961 341.75 274.618 339.406 269.93 339.406ZM255.868 346.438C255.868 337.062 260.555 332.375 269.93 332.375C279.305 332.375 283.993 337.062 283.993 346.438V383.938C283.993 393.312 279.305 398 269.93 398C260.555 398 255.868 393.312 255.868 383.938V346.438ZM317.454 339.406C312.766 339.406 310.423 341.75 310.423 346.438V383.938C310.423 388.625 312.766 390.969 317.454 390.969C322.141 390.969 324.485 388.625 324.485 383.938V346.438C324.485 341.75 322.141 339.406 317.454 339.406ZM303.391 346.438C303.391 337.062 308.079 332.375 317.454 332.375C326.829 332.375 331.516 337.062 331.516 346.438V383.938C331.516 393.312 326.829 398 317.454 398C308.079 398 303.391 393.312 303.391 383.938V346.438ZM372.009 333.594V332.375H379.04V353.469H372.009V346.438C372.009 341.75 369.665 339.406 364.977 339.406C360.29 339.406 357.946 341.75 357.946 346.438V383.938C357.946 388.625 360.29 390.969 364.977 390.969C369.665 390.969 372.009 388.625 372.009 383.938V368.703H364.977V361.672H379.04V398H372.009V396.781C370.071 397.594 367.727 398 364.977 398C355.602 398 350.915 393.312 350.915 383.938V346.438C350.915 337.062 355.602 332.375 364.977 332.375C367.727 332.375 370.071 332.781 372.009 333.594ZM417.189 332.375V339.406H410.158V390.969H421.876V383.938H428.908V398H396.095V390.969H403.126V339.406H396.095V332.375H417.189ZM474.087 390.969V383.938H481.119V398H445.962V390.969H452.994V339.406H445.962V332.375H481.119V346.438H474.087V339.406H460.025V360.5H471.744V353.469H478.775V374.562H471.744V367.531H460.025V390.969H474.087Z" fill="#E9BE3C"/>
<path d="M268.719 473.188V476.703H265.578L269.891 495.406L274.203 476.703H271.062V473.188H280.438V476.703H277.812L271.062 506H268.719L261.992 476.703H259.344V473.188H268.719ZM303.028 502.484V498.969H306.543V506H288.965V502.484H292.481V476.703H288.965V473.188H306.543V480.219H303.028V476.703H295.996V487.25H301.856V483.734H305.371V494.281H301.856V490.766H295.996V502.484H303.028ZM322.102 490.766H325.618C327.961 490.766 329.133 489.594 329.133 487.25V480.219C329.133 477.875 327.961 476.703 325.618 476.703H322.102V490.766ZM322.102 502.484H324.446V506H315.071V502.484H318.586V476.703H315.071V473.188H325.618C330.305 473.188 332.649 475.531 332.649 480.219V487.25C332.649 490.438 331.571 492.539 329.414 493.555L333.211 502.484H334.993V506H326.789V502.484H329.368L325.875 494.281H322.102V502.484ZM354.067 473.188V476.703H350.551V502.484H354.067V506H343.52V502.484H347.036V476.703H343.52V473.188H354.067ZM369.626 502.484H373.141V506H362.594V502.484H366.11V476.703H362.594V473.188H380.173V480.219H376.657V476.703H369.626V487.25H375.485V483.734H379.001V494.281H375.485V490.766H369.626V502.484ZM399.247 473.188V476.703H395.731V502.484H399.247V506H388.7V502.484H392.216V476.703H388.7V473.188H399.247ZM421.837 502.484V498.969H425.352V506H407.774V502.484H411.29V476.703H407.774V473.188H425.352V480.219H421.837V476.703H414.806V487.25H420.665V483.734H424.181V494.281H420.665V490.766H414.806V502.484H421.837ZM437.396 502.484V476.703H433.88V473.188H444.427C449.114 473.188 451.458 475.531 451.458 480.219V498.969C451.458 503.656 449.114 506 444.427 506H433.88V502.484H437.396ZM440.911 476.703V502.484H444.427C446.771 502.484 447.943 501.312 447.943 498.969V480.219C447.943 477.875 446.771 476.703 444.427 476.703H440.911Z" fill="#E9BE3C"/>
</svg>
