<svg width="730" height="731" viewBox="0 0 730 731" fill="none" xmlns="http://www.w3.org/2000/svg">
<path d="M152.8 399.669C154.33 402.572 155.677 405.475 152.272 408.062C152.14 408.247 152.008 408.379 151.849 408.537C172.041 507.702 259.936 582.584 364.987 582.584C409.278 582.584 450.506 569.229 484.925 546.397C485.347 544.233 486.245 542.174 487.38 541.62C487.696 541.461 488.224 541.62 488.594 541.752C489.254 542.016 489.808 542.332 490.283 542.702C493.028 540.775 495.694 538.769 498.334 536.737L484.212 530.692C468.587 541.963 451.324 551.095 432.848 557.641C432.215 559.278 431.581 560.914 430.948 562.551C429.338 566.668 422.66 564.873 424.27 560.703C424.296 560.624 424.349 560.518 424.375 560.439C406.77 565.797 388.162 568.806 368.894 569.176C368.049 571.578 367.231 573.98 366.386 576.355C364.934 580.526 358.256 578.731 359.708 574.508C360.315 572.739 360.949 570.944 361.556 569.176C348.754 568.965 336.243 567.618 324.128 565.164C323.336 566.774 322.518 568.384 321.673 569.994C319.562 573.927 313.597 570.416 315.708 566.51C316.236 565.533 316.711 564.557 317.213 563.58C313.702 562.735 310.192 561.812 306.76 560.782C304.833 562.366 301.508 561.363 301.059 558.987C288.416 554.817 276.327 549.433 264.925 542.992C264.397 542.834 263.922 542.596 263.578 542.227C250.064 534.467 237.527 525.229 226.177 514.697C226.283 518.894 219.658 518.762 219.262 514.459C219.077 512.295 219.103 510.131 219.262 507.993C189.409 477.533 169.006 437.835 162.83 393.598L162.275 393.36C160.586 394.02 158.791 393.439 157.287 391.645C157.102 391.433 156.97 391.222 156.838 391.038L148.656 387.553C148.946 390.272 149.316 392.964 149.685 395.657C151.453 394.97 151.797 396.026 152.826 399.748L152.8 399.669Z" fill="#00B6BC"/>
<path d="M244.337 200.468L248.27 192.233C249.8 189.013 253.944 190.65 254.525 193.474C268.435 184.473 283.506 177.162 299.449 171.725C300.082 170.431 300.663 169.138 301.217 167.792C302.801 163.938 308.872 165.337 308.08 168.98C315.497 166.815 323.072 165.073 330.78 163.78C330.859 163.569 330.964 163.331 331.043 163.12C332.073 160.296 335.451 160.216 337.061 161.774C337.748 160.612 339.015 160.005 340.73 160.348C341.681 160.533 342.499 161.035 342.763 162.091C347.751 161.536 352.793 161.219 357.86 161.035C358.045 160.533 358.256 160.058 358.415 159.557C359.735 155.518 365.885 157.023 365.198 160.876C371.718 160.876 378.158 161.219 384.519 161.827C385.469 161.404 386.578 161.589 387.475 162.143C405.556 164.123 422.924 168.531 439.262 174.945C439.711 173.704 440.159 172.464 440.582 171.223C441.981 167 448.658 168.821 447.26 173.071C446.758 174.575 446.23 176.08 445.676 177.558C449.398 179.168 453.066 180.91 456.682 182.731C458.451 182.282 460.563 183.206 461.064 184.975C471.939 190.808 482.233 197.618 491.84 205.246C494.11 202.527 499.073 205.8 497.304 209.496C497.278 209.548 497.251 209.601 497.225 209.68C507.229 218.206 516.414 227.681 524.596 237.975C526.893 237.421 529.77 239.216 528.872 242.119C528.793 242.41 528.661 242.7 528.556 242.99C533.227 249.246 537.53 255.818 541.462 262.602C543.653 259.725 549.17 261.52 547.612 265.32C546.979 266.904 546.266 268.461 545.58 269.992C549.302 277.04 552.627 284.325 555.505 291.821C557.827 291.346 560.783 294.064 559.49 297.073C559.121 297.944 558.725 298.842 558.355 299.713C558.83 301.138 559.358 302.563 559.807 304.015C560.388 304.332 560.968 304.675 561.496 305.203C564.426 305.625 566.194 307.314 566.933 310.139C569.942 315.655 567.805 320.037 565.007 324.234C565.139 324.946 565.244 325.685 565.403 326.424C567.672 326.398 570.127 328.905 568.781 331.677C568.174 332.944 567.567 334.211 566.933 335.478C568.332 345.138 569.098 355.01 569.098 365.04C569.098 372.985 568.596 380.798 567.699 388.531L580.421 393.968C581.688 384.493 582.401 374.859 582.401 365.066C582.401 245.128 484.819 147.573 364.908 147.573C296.202 147.573 234.887 179.617 195.005 229.503L207.701 234.914C218.417 221.98 230.717 210.419 244.257 200.468H244.337Z" fill="#00B6BC"/>
<path d="M5.49097 301.533C7.91929 287.781 11.113 274.293 15.0459 261.122C10.2156 274.9 6.62594 288.784 5.49097 301.533Z" fill="#00B6BC"/>
<path d="M567.778 388.531L558.566 384.598C557.748 386.552 556.903 388.478 556.005 390.379C554.131 394.417 548.166 390.907 550.04 386.895C550.806 385.232 551.492 383.543 552.178 381.88L538.611 376.099C538.321 376.654 538.004 377.234 537.714 377.789C535.629 381.721 529.664 378.237 531.749 374.304C531.907 373.988 532.065 373.697 532.25 373.381L497.488 358.547C495.773 362.48 489.253 360.711 490.863 356.594C490.969 356.33 491.074 356.092 491.18 355.855L437.282 332.865C435.276 333.841 432.531 332.812 432.188 330.7L411.837 322.016C411.494 323.6 410.122 324.498 408.538 325.078C406.558 325.791 403.734 323.996 403.972 322.228C404.156 320.908 404.764 320.01 405.661 319.377L396.66 315.55C395.341 317.899 393.994 320.248 392.516 322.518C390.114 326.266 384.123 322.782 386.551 319.034C387.871 317.001 389.085 314.916 390.273 312.831L361.502 300.557C359.549 301.983 356.593 300.531 356.118 298.261L345.93 293.906C344.214 294.566 341.944 293.695 341.258 291.926L331.333 287.703C330.594 290.554 329.908 293.405 329.38 296.308C328.562 300.689 321.91 298.815 322.702 294.46C323.309 291.24 324.075 288.073 324.919 284.958L273.687 263.103C273.107 264.37 272.526 265.664 271.945 266.931C272.156 267.696 272.051 268.567 271.417 269.464C270.836 270.283 270.256 271.101 269.675 271.919C267.088 275.588 261.862 272.473 263.71 268.435C264.924 265.769 266.138 263.077 267.352 260.411L227.602 243.439C227.232 244.891 226.889 246.369 226.652 247.874C225.913 252.255 219.261 250.381 219.974 246.026C220.29 244.205 220.713 242.436 221.188 240.694L207.753 234.966L195.057 229.556L79.6593 180.303C79.6593 180.303 79.6593 180.54 79.6593 180.646C78.9202 182.547 77.4685 183.074 75.7001 182.652C75.1458 182.52 74.6442 182.309 74.1691 182.071C72.4535 184.79 70.7905 187.509 69.1541 190.28L288.811 284.008C289.577 282.24 290.87 280.867 293.114 281.052C295.463 281.237 296.862 282.899 297.522 284.958C297.812 285.908 297.97 286.911 298.05 287.941L346.748 308.74C347.329 308.925 347.883 309.162 348.411 309.453L388.214 326.451C388.214 326.451 388.452 326.53 388.557 326.609L696.003 457.817C697.218 453.515 698.326 449.16 699.382 444.778L580.5 394.048L567.778 388.61V388.531Z" fill="#00B6BC"/>
<path d="M582.849 562.339C581.53 564.214 579.18 563.897 577.122 563.738C572.159 563.369 568.411 561.204 566.458 556.427C566.617 555.002 567.435 554.078 568.755 553.55V553.497H568.781C568.781 553.101 568.755 552.679 568.781 552.283L558.434 547.875C558.038 548.086 557.59 548.245 557.062 548.271C556.639 548.297 556.244 548.35 555.135 548.482C554.158 548.35 552.416 548.324 550.859 547.822C548.826 547.162 547.111 545.975 547.058 543.467C547.058 543.309 547.084 543.177 547.111 543.018L320.142 446.15C320.301 447.153 319.614 448.314 318.717 449.37C316.526 452.062 313.676 452.036 310.64 451.297C309.901 450.901 308.951 450.69 308.423 450.109C304.596 445.859 300.505 442.903 294.144 443.246C289.92 443.484 288.205 441.108 287.386 437.017C286.991 435.011 287.677 433.533 289.102 432.9L275.852 427.251C275.588 427.172 275.35 427.066 275.139 426.934L38.0615 325.737C37.3752 325.605 36.7946 325.341 36.2931 324.998L24.2306 319.851C23.6236 324.443 23.122 329.036 22.6997 333.682L49.1473 344.979C49.4904 344.952 49.8071 344.873 50.1766 344.926C50.2822 345.137 50.4142 345.374 50.5726 345.586L148.629 387.448L156.811 390.932C155.254 388.741 155.307 386.577 157.313 384.993C159.24 383.462 161.431 382.222 162.724 381.377C165.179 381.113 167.449 384.096 167.317 385.864C167.105 388.556 165.707 390.562 163.806 392.278C163.305 392.727 162.803 393.043 162.275 393.255L162.83 393.492L182.995 402.097C183.47 400.777 183.972 399.431 184.447 398.111C185.951 393.967 192.629 395.762 191.125 399.959C190.544 401.569 189.937 403.205 189.356 404.816L196.905 408.036C197.671 407.534 198.515 407.112 199.36 406.795C200.732 403.126 206.803 404.974 205.853 409.144C205.668 409.962 205.483 410.807 205.299 411.625L245.841 428.914C246.791 427.779 248.296 427.673 249.721 428.201C252.07 427.277 255.396 429.072 254.472 432.213C254.446 432.319 254.393 432.451 254.367 432.556L276.195 441.874C276.274 441.478 276.38 441.108 276.459 440.712C277.409 436.357 284.087 438.205 283.137 442.56C282.978 443.246 282.794 443.933 282.635 444.619L311.986 457.156C313.86 454.279 319.139 456.021 318.216 459.822L334.501 466.764C336.085 463.174 342.129 465.022 340.968 469.113C340.941 469.245 340.889 469.351 340.862 469.483L357.491 476.583C359.154 476.161 361.054 476.9 361.714 478.378L373.09 483.234C375.255 481.044 379.715 482.548 379.082 485.795L399.247 494.399C399.511 493.423 399.802 492.473 400.066 491.496C401.28 487.22 407.958 489.041 406.743 493.344C406.374 494.611 406.031 495.877 405.661 497.144L425.114 505.432C425.299 505.116 425.457 504.799 425.669 504.482C428.097 500.76 434.088 504.245 431.634 507.966C431.581 508.019 431.555 508.098 431.528 508.151L441.928 512.585C442.113 512.057 442.297 511.53 442.482 511.002C443.96 506.831 450.638 508.626 449.16 512.849C448.87 513.668 448.579 514.486 448.289 515.304L461.434 520.926C461.434 520.715 461.513 520.557 461.513 520.345C460.325 518.181 458.398 515.99 462.727 514.908C469.194 513.272 471.12 514.037 473.258 519.844C473.707 521.058 473.074 522.272 471.912 523.011C471.173 523.486 470.46 523.962 469.721 524.437L484.212 530.613L498.333 536.657L518.288 545.183C518.631 544.391 519.212 543.652 519.977 543.018C524.095 539.746 528.476 540.168 532.805 542.464C534.362 543.309 534.89 544.972 534.626 546.767C534.362 548.693 532.963 549.776 531.3 550.013C530.825 550.092 530.35 550.119 529.875 550.145L536.474 552.969C537.134 552.732 537.846 552.547 538.506 552.336C540.407 552.415 542.069 553.154 541.858 555.186C541.858 555.213 541.858 555.239 541.858 555.266L624.236 590.424C627.272 586.939 630.228 583.35 633.131 579.734L581.952 557.879C583.034 559.172 584.011 560.545 582.797 562.287L582.849 562.339Z" fill="#00B6BC"/>
<path d="M314.6 443.801L308.318 441.135C310.007 443.537 312.303 443.695 314.6 443.801Z" fill="#00B6BC"/>
<path d="M726.885 404.896C726.595 403.866 727.202 403.312 728.02 403.022C729.314 390.537 730 377.894 730 365.066C730 363.06 729.947 361.08 729.921 359.074C729.868 359.101 729.815 359.153 729.762 359.18C727.044 360.632 724.114 361.793 721.422 359.629C718.202 357.016 713.345 357.095 711.18 352.634C710.573 351.367 709.544 350.654 708.356 350.179C708.567 355.115 708.699 360.077 708.699 365.066C708.699 392.464 705.453 419.122 699.356 444.699C698.326 449.08 697.191 453.436 695.977 457.738C685.947 493.556 670.242 527.051 649.865 557.141C651.37 558.196 652.531 560.044 652.663 561.971C652.874 565.455 649.945 569.018 646.962 568.913C645.642 568.86 644.27 567.936 643.188 566.643C639.941 571.103 636.589 575.485 633.158 579.787C630.254 583.403 627.298 586.967 624.262 590.477C595.281 623.787 559.991 651.449 520.294 671.641C520.452 673.937 520.584 676.26 520.742 678.557C523.144 680.167 525.652 681.618 527.895 683.413C530.192 685.261 530.244 687.874 528.397 689.88C526.655 691.754 524.728 691.516 522.933 690.117C519.396 687.346 515.938 684.469 512.428 681.645C511.53 680.906 510.633 680.14 509.736 679.401C509.102 678.794 508.654 678.134 508.284 677.474C504.246 679.348 500.154 681.117 496.037 682.832C495.746 683.572 495.192 684.284 494.453 684.918C492.79 686.343 490.811 686.66 488.277 686.554C488.092 686.422 487.854 686.317 487.59 686.185C449.503 700.781 408.169 708.805 365.013 708.805C265.267 708.805 175.314 666.072 112.468 598C112.362 598.158 112.283 598.343 112.125 598.475C111.227 599.267 109.934 599.636 108.746 600.032C106.767 600.666 104.655 601.669 102.887 599.689C102.464 599.214 102.359 597.973 102.676 597.366C103.811 595.123 105.394 593.301 108.456 593.565C83.1698 565.217 62.5028 532.646 47.6689 497.066C46.1644 496.802 45.2405 495.562 45.5572 494.057C45.6364 493.635 45.7948 493.239 45.9532 492.869C30.0636 453.356 21.3006 410.227 21.3006 365.092C21.3006 354.534 21.8021 344.082 22.7523 333.735C23.1746 329.09 23.676 324.497 24.2831 319.904C25.9987 306.813 28.4799 293.985 31.6209 281.394C29.2717 282.767 26.6323 284.087 24.2304 281.606C22.4091 279.732 22.1187 277.013 22.8578 274.532C23.7816 271.444 26.0516 269.754 29.2981 269.438C29.7204 269.385 30.1428 269.438 31.4625 269.438C32.0696 269.622 33.3101 269.913 34.5771 270.388C38.8266 255.554 44.0791 241.142 50.2027 227.18C49.8332 227.021 49.4373 226.81 49.0414 226.52C45.874 224.171 47.009 220.423 48.3024 217.176C50.282 212.082 53.6869 210.181 57.5141 211.633C61.1566 204.375 65.0366 197.248 69.1806 190.28C70.817 187.508 72.48 184.79 74.1956 182.071C72.1632 181.068 70.9491 179.247 71.3978 177.505C71.8993 175.578 73.5357 175.129 75.3042 175.551C76.228 175.763 77.0199 176.159 77.7062 176.66C120.888 111.043 185.925 61.0246 262.364 37.0317C261.915 35.6856 262.258 34.0491 262.417 32.5446C259.936 27.2657 259.883 27.0017 255.607 27.8728C253.073 28.4007 250.829 29.2717 248.612 27.2657C246.712 25.5764 245.049 23.7816 244.468 21.1685C244.415 20.9573 244.415 20.7726 244.389 20.5614C134.481 59.1506 48.4871 148.919 15.0977 261.15C11.1649 274.321 7.97115 287.808 5.54284 301.56C1.90036 322.201 0 343.422 0 365.092C0 366.887 0.0527058 368.656 0.0791005 370.424C0.475022 371.005 0.791798 371.638 1.10853 372.351C3.51046 373.195 4.06472 375.043 3.72159 377.339C3.85356 383.094 2.58669 388.61 1.16138 394.1C3.64248 425.431 10.0827 455.653 20.0071 484.291C22.1451 484.819 24.0192 485.743 24.7055 488.699C23.7816 489.2 22.8578 489.517 21.9076 489.676C31.8848 517.1 45.0822 542.993 60.9983 566.907C61.0774 566.88 61.183 566.828 61.2621 566.801C62.8722 566.141 64.3767 567.514 65.3797 568.992C66.198 569.889 67.3594 570.655 67.7553 571.737C68.1512 572.766 68.1513 574.297 67.6498 575.274C67.5178 575.564 67.3329 575.775 67.1745 575.96C128.674 662.614 226.995 721.369 339.146 729.287C338.882 727.624 339.806 726.173 341.443 725.117V725.091C341.363 722.425 341.997 719.864 345.112 719.943C348.015 720.023 349.044 722.345 348.886 725.117C349.097 725.935 349.176 726.753 349.071 727.598C349.071 728.337 349.255 729.182 349.044 729.842C354.35 730.079 359.708 730.211 365.066 730.211C552.416 730.211 707.221 588.313 727.756 406.374C727.387 405.951 727.096 405.45 726.991 405.001L726.885 404.896ZM145.382 79.0522C146.306 76.1488 147.652 73.4037 151.189 73.2718C152.219 73.219 153.301 74.354 154.304 75.0402C154.568 75.225 154.541 75.8321 154.647 76.228C155.016 80.3456 151.849 83.3018 147.547 82.8003C147.151 82.7475 146.781 82.5363 146.438 82.3252C145.092 81.5597 145.066 80.2136 145.435 79.0522H145.382ZM32.6239 231.64C31.3833 229.582 31.8585 227.76 33.495 226.15C34.0756 225.57 34.6827 224.989 35.2634 224.435C36.4247 223.326 37.5069 221.874 39.3809 222.719C41.4397 223.669 42.258 225.517 42.5219 228.13C42.3372 228.869 42.258 230.136 41.7565 231.218C40.8063 233.303 38.9586 234.095 36.7415 233.963C35.0258 233.858 33.5742 233.145 32.6767 231.64H32.6239ZM13.6989 298.63C15.7049 298.63 16.523 300.135 16.5758 301.798C16.655 304.173 15.0714 305.546 12.8807 305.704C11.3234 305.81 9.66043 305.361 9.34369 303.302C9.13253 300.795 11.1122 298.604 13.6989 298.63ZM4.83013 360.236C4.32863 360.13 3.74806 358.837 3.80085 358.15C3.95922 356.303 4.98856 354.983 7.04736 355.59C7.60165 355.749 7.83923 356.91 8.23515 357.596C7.76005 359.365 6.78334 360.658 4.83013 360.236ZM37.4278 517.39C36.7679 517.205 36.0023 516.361 35.844 515.701C35.2897 513.589 37.1374 512.824 38.4308 511.847C39.8033 510.765 41.3869 510.052 42.997 511.135C43.5513 511.504 43.6569 512.56 43.9736 513.299C43.2082 516.625 40.6215 518.34 37.4278 517.416V517.39ZM58.3852 550.04C56.6432 550.384 55.1651 549.196 55.1123 547.216C55.0595 545.421 56.0096 544.049 57.8309 543.6C59.5993 543.151 61.0774 543.626 61.7636 546.134C62.0276 548.14 60.5232 549.618 58.3852 550.04ZM185.37 670.928C183.734 673.357 181.279 673.911 178.666 673.542C176.238 673.198 175.288 671.245 174.944 669.028C174.76 667.787 174.707 666.494 174.575 665.069C174.812 663.96 175.024 662.72 175.314 661.506C175.684 660.054 178.217 659.13 179.511 660.08C181.2 661.321 182.863 662.667 184.367 664.145C186.4 666.098 187.112 668.368 185.37 670.928ZM227.523 687.9C226.15 691.094 223.405 691.78 220.502 691.516C218.971 691.305 217.757 690.883 217.519 689.484C217.414 688.798 217.941 687.979 218.285 687.267C218.469 686.924 218.892 686.713 219.235 686.475C223.089 683.888 225.438 683.571 227.048 685.604C227.496 686.158 227.76 687.293 227.496 687.874L227.523 687.9ZM283.612 713.424C283.374 713.662 282.873 713.609 282.529 713.688C281.025 713.609 280.233 712.632 280.286 711.312C280.471 706.957 282.424 703.447 285.855 700.834C286.383 700.438 287.544 700.385 288.125 700.702C288.679 701.018 289.313 702.101 289.181 702.655C288.178 706.667 286.568 710.415 283.612 713.398V713.424ZM401.649 713.318C400.382 713.53 399.221 712.553 399.089 711.207C398.904 709.254 400.329 708.224 401.966 707.828C403.312 707.512 404.236 708.383 404.5 709.834C404.394 711.656 403.391 713.028 401.649 713.345V713.318ZM419.624 717.753C418.964 719.495 417.618 720.023 415.902 719.468C414.741 719.099 413.606 718.386 414.055 716.908C414.609 715.087 416.061 714.612 417.776 715.14C418.911 715.509 419.967 716.169 419.624 717.753ZM447.417 710.864C446.388 711.048 445.174 710.441 444.065 710.045C443.749 709.94 443.511 709.465 443.3 709.095C441.927 706.588 439.948 704.133 442.086 701.15C442.455 700.623 443.67 700.147 444.224 700.385C447.391 701.678 449.846 703.737 450.479 707.089C450.11 709.148 449.133 710.547 447.417 710.837V710.864ZM552.601 668.527C550.41 668.606 548.721 667.497 547.401 665.729C546.583 664.646 546.53 663.432 547.242 662.297C548.034 661.057 549.354 661.03 550.595 661.294C552.812 661.743 554.264 663.221 555.214 665.174C555.9 666.6 554.369 668.659 552.601 668.527ZM705.822 469.378C703.473 469.14 701.494 466.633 702.021 464.759C702.576 462.832 703.368 460.879 704.423 459.163C706.377 455.917 708.752 454.808 710.257 456.154C711.946 457.685 712.263 459.665 712.025 461.803C711.735 464.363 710.811 466.659 708.699 468.217C707.776 468.903 706.509 469.088 705.822 469.352V469.378Z" fill="#00B6BC"/>
<path d="M272.131 22.1188C274.665 27.7409 275.483 30.9083 274.295 33.495C303.197 25.5765 333.604 21.327 364.987 21.327C400.409 21.327 434.617 26.7115 466.818 36.7151C467.135 36.2136 467.478 35.7385 467.874 35.6857C470.276 35.2106 472.757 34.8147 475.186 34.8411C476.136 34.8411 477.667 35.9233 477.878 36.7679C478.327 38.6683 476.954 39.2754 475.502 39.5658C599.267 81.6918 691.491 192.55 706.536 326.424C707.697 326.714 708.938 327.321 708.674 329.195C708.542 330.172 707.908 330.858 707.037 331.07C707.46 335.266 707.776 339.516 708.04 343.765C709.756 344.874 711.63 345.27 714.428 344.61C719.205 343.449 724.352 343.607 729.367 343.686C727.889 318.031 723.719 293.087 717.173 269.121C715.827 268.461 714.876 266.798 715.061 265.267C715.14 264.634 715.378 264.185 715.668 263.789C675.469 124.847 554.766 19.7433 407.589 2.5339C407.589 2.98261 407.589 3.43132 407.589 3.93282C407.536 4.77745 407.457 5.62208 407.404 6.46672C407.43 7.89203 406.718 8.86864 405.556 9.5549C402.732 12.5111 399.987 12.4055 397.321 9.34375C394.972 6.28195 395.605 3.77445 396.978 1.42532C386.446 0.501501 375.783 0 365.014 0C358.415 0 351.869 0.184763 345.35 0.527895C344.927 0.818238 344.479 1.08219 344.03 1.37253C343.898 2.26995 343.792 3.14098 343.66 4.0384L343.924 3.88003C345.825 4.88303 346.379 6.59869 346.511 8.5783C347.224 9.60769 348.068 10.5843 348.57 11.7193C349.124 12.9598 348.755 14.2796 347.646 15.0978C346.537 15.916 345.218 15.7841 344.188 14.9658C341.47 12.7751 340.044 9.66048 338.725 6.5459C338.118 6.36114 337.484 6.22916 336.851 6.14998C331.862 3.90643 327.137 3.0354 323.099 8.0504C320.196 11.6665 315.656 11.9304 311.644 13.0918C309.954 13.5669 308.661 12.0096 308.397 10.0564C308.107 7.99761 308.635 6.14998 309.295 4.30235C293.59 6.73066 278.201 10.162 263.209 14.5171C265.743 16.7343 269.465 19.6905 270.573 20.2712C271.233 20.6143 271.656 21.4853 272.157 22.1188H272.131ZM710.97 285.934C711.26 284.641 712.237 283.612 713.662 283.981C714.164 284.113 714.375 285.354 714.745 286.093C714.613 287.333 714.322 288.706 712.791 288.6C711.419 288.495 710.706 287.281 710.996 285.961L710.97 285.934ZM689.696 222.983C691.148 223.168 691.596 224.329 691.649 225.728C691.121 227.84 688.93 229.054 686.687 228.236C686.053 227.998 685.341 227.101 685.288 226.441C685.103 224.593 687.479 222.745 689.696 223.009V222.983ZM649.312 161.615C649.523 161.14 650.658 160.718 651.212 160.876C651.687 161.008 651.925 161.985 652.268 162.592C651.74 163.04 651.239 163.859 650.737 163.859C649.338 163.859 648.784 162.803 649.338 161.589L649.312 161.615ZM627.457 122.102C629.278 122.683 630.149 123.976 629.991 125.903C629.806 128.147 627.827 130.285 626.032 130.047C623.735 129.282 622.97 127.408 623.023 125.164C623.049 122.92 625.319 121.416 627.483 122.102H627.457ZM375.598 7.41693C378.792 6.14998 381.379 6.94182 381.748 9.44933C382.25 12.7751 380.085 13.8573 377.261 14.2532H377.208C376.1 15.6785 374.621 16.6551 372.853 16.2856C371.744 16.048 370.346 15.309 369.871 14.3588C368.63 11.8776 370.874 9.26456 375.598 7.41693ZM327.058 14.1476C328.721 14.4379 330.542 14.7547 330.384 16.9454C330.199 19.2682 328.668 20.5615 326.345 20.7727C324.815 20.9047 324.102 19.7697 323.838 18.5291C323.31 15.9952 324.815 14.7811 327.032 14.1476H327.058Z" fill="#00B6BC"/>
<path d="M320.644 194.239C327.85 185.819 333.366 176.449 337.272 166.103C336.586 165.496 336.349 164.413 336.507 163.437C336.613 162.803 336.797 162.249 337.088 161.774C335.478 160.217 332.099 160.296 331.07 163.12C330.991 163.331 330.885 163.569 330.806 163.78C327.322 173.15 322.28 181.702 315.761 189.33C312.884 192.682 317.74 197.618 320.644 194.213V194.239Z" fill="#00B6BC"/>
<path d="M299.132 242.199C303.514 234.069 307.895 225.966 312.277 217.836C314.389 213.93 308.423 210.419 306.312 214.352C301.561 223.142 296.81 231.931 292.085 240.721C294.487 240.219 296.862 240.932 299.132 242.199Z" fill="#00B6BC"/>
<path d="M349.784 191.045C356.514 182.018 361.582 172.094 365.093 161.404C365.146 161.219 365.172 161.061 365.198 160.876C365.885 157.023 359.735 155.518 358.415 159.556C358.256 160.058 358.045 160.533 357.86 161.035C354.535 170.616 349.889 179.405 343.818 187.535C341.153 191.098 347.171 194.556 349.784 191.019V191.045Z" fill="#00B6BC"/>
<path d="M337.008 207.224C332.653 215.222 329.037 223.563 326.16 232.194C324.761 236.417 331.439 238.238 332.838 234.041C335.53 225.965 338.909 218.205 342.973 210.735C345.111 206.828 339.146 203.318 337.008 207.251V207.224Z" fill="#00B6BC"/>
<path d="M317.503 252.202C314.441 258.748 311.353 265.268 308.291 271.787C306.417 275.799 312.356 279.31 314.256 275.271C317.318 268.726 320.406 262.206 323.468 255.687C325.342 251.675 319.403 248.164 317.503 252.202Z" fill="#00B6BC"/>
<path d="M283.586 192.946C280.313 195.981 285.222 200.864 288.469 197.829C297.047 189.91 303.461 180.408 307.895 169.639C307.974 169.428 308.027 169.217 308.08 169.006C308.872 165.363 302.801 163.964 301.217 167.818C300.663 169.138 300.082 170.457 299.449 171.751C295.542 179.775 290.158 186.901 283.559 192.972L283.586 192.946Z" fill="#00B6BC"/>
<path d="M265.03 213.479C266.429 213.426 267.775 213.241 269.042 212.898C267.749 212.291 266.086 212.397 265.03 213.479Z" fill="#00B6BC"/>
<path d="M255.106 234.834C252.704 238.582 258.669 242.066 261.071 238.318C264.845 232.458 267.749 226.176 269.887 219.578C267.327 219.974 264.766 220.343 262.206 220.686C260.332 225.622 257.983 230.32 255.079 234.834H255.106Z" fill="#00B6BC"/>
<path d="M267.933 259.117C267.749 259.539 267.564 259.935 267.379 260.357C266.165 263.023 264.951 265.716 263.737 268.381C261.889 272.42 267.115 275.534 269.702 271.865C270.283 271.047 270.863 270.229 271.444 269.411C272.077 268.513 272.183 267.642 271.972 266.877C272.553 265.61 273.133 264.317 273.714 263.05C274.215 261.967 274.69 260.912 275.192 259.829C272.473 259.75 270.098 259.671 267.96 259.117H267.933Z" fill="#00B6BC"/>
<path d="M278.571 244.072C279.864 244.23 281.105 244.204 282.319 244.098C282.504 243.702 282.689 243.28 282.873 242.884C284.695 238.872 278.756 235.335 276.908 239.4C276.169 241.037 275.404 242.699 274.665 244.336C275.931 244.046 277.198 243.887 278.571 244.072Z" fill="#00B6BC"/>
<path d="M382.988 163.356C377.155 175.154 370.213 186.293 362.189 196.745C359.471 200.282 365.489 203.713 368.155 200.229C376.179 189.777 383.094 178.665 388.954 166.84C389.93 164.86 388.954 163.013 387.476 162.142C386.552 161.587 385.443 161.429 384.519 161.825C383.912 162.089 383.384 162.564 382.988 163.356Z" fill="#00B6BC"/>
<path d="M354.931 219.473C350.628 229.899 347.408 240.589 345.27 251.675C344.426 256.03 351.103 257.878 351.948 253.523C354.086 242.437 357.306 231.747 361.609 221.321C363.298 217.203 356.62 215.408 354.931 219.473Z" fill="#00B6BC"/>
<path d="M347.83 291.662C349.757 284.351 351.684 277.066 353.584 269.755C354.719 265.452 348.042 263.605 346.907 267.907C344.98 275.218 343.053 282.503 341.153 289.815C340.941 290.607 340.994 291.293 341.232 291.874C341.918 293.668 344.188 294.513 345.904 293.853C346.775 293.51 347.514 292.824 347.83 291.636V291.662Z" fill="#00B6BC"/>
<path d="M331.175 267.115C328.642 272.948 326.583 278.86 324.92 284.931C324.075 288.046 323.31 291.213 322.703 294.433C321.884 298.788 328.562 300.636 329.381 296.281C329.908 293.377 330.595 290.527 331.334 287.676C332.838 281.869 334.739 276.168 337.167 270.625C338.936 266.587 332.97 263.076 331.202 267.141L331.175 267.115Z" fill="#00B6BC"/>
<path d="M403.471 172.042C403.418 170.563 406.005 168.267 407.773 168.214C408.011 168.214 408.248 168.241 408.459 168.293C408.169 165.073 402.811 164.07 401.649 167.818C397.743 180.277 391.619 191.547 383.226 201.577C380.375 204.956 385.258 209.892 388.109 206.46C395.922 197.143 401.966 186.849 406.242 175.605C404.711 174.602 403.523 173.229 403.471 172.068V172.042Z" fill="#00B6BC"/>
<path d="M378.264 224.171C376.205 231.271 373.17 237.791 369.079 243.967C366.598 247.689 372.589 251.146 375.044 247.451C379.452 240.826 382.725 233.647 384.942 226.019C386.182 221.743 379.505 219.895 378.264 224.171ZM383.517 226.679C382.804 228.368 381.484 228.922 379.769 228.394C378.607 228.051 377.525 227.286 378 225.86C378.581 224.092 380.006 223.538 381.695 224.092C382.83 224.461 383.886 225.095 383.517 226.679Z" fill="#00B6BC"/>
<path d="M387.133 258.114L394.814 241.802C396.688 237.79 390.749 234.279 388.849 238.318C386.288 243.755 383.728 249.192 381.168 254.63C379.294 258.642 385.232 262.152 387.133 258.114Z" fill="#00B6BC"/>
<path d="M362.454 299.397C365.463 294.091 367.521 288.443 368.577 282.451C369.343 278.096 362.665 276.222 361.899 280.604C360.949 286.041 359.207 291.109 356.488 295.913C356.04 296.731 355.934 297.523 356.092 298.235C356.568 300.505 359.524 301.957 361.477 300.532C361.846 300.268 362.19 299.898 362.454 299.397Z" fill="#00B6BC"/>
<path d="M409.911 208.466C415.718 199.491 420.363 189.936 423.9 179.854C425.378 175.657 418.7 173.836 417.222 178.006C413.87 187.535 409.409 196.482 403.919 204.955C401.491 208.703 407.482 212.161 409.884 208.439L409.911 208.466Z" fill="#00B6BC"/>
<path d="M429.126 209.362C436.042 199.464 441.532 188.827 445.702 177.53C446.257 176.052 446.785 174.548 447.286 173.043C448.685 168.82 442.007 166.999 440.608 171.195C440.186 172.462 439.737 173.676 439.289 174.917C435.277 185.924 429.892 196.191 423.161 205.852C420.601 209.494 426.593 212.978 429.126 209.336V209.362Z" fill="#00B6BC"/>
<path d="M421.499 231.693C423.109 227.549 416.404 225.728 414.821 229.845C411.284 239.057 407.325 248.058 402.969 256.9C401.016 260.886 406.981 264.396 408.935 260.384C413.554 251.014 417.724 241.433 421.472 231.667L421.499 231.693Z" fill="#00B6BC"/>
<path d="M392.227 269.386C388.611 277.568 385.311 285.856 382.329 294.303C380.851 298.499 387.529 300.321 389.007 296.15C391.778 288.285 394.84 280.525 398.219 272.897C399.987 268.858 394.048 265.348 392.253 269.412L392.227 269.386Z" fill="#00B6BC"/>
<path d="M398.667 294.381C396.397 300.795 393.573 306.919 390.247 312.805C389.059 314.89 387.819 316.975 386.525 319.007C384.123 322.756 390.089 326.24 392.49 322.492C393.969 320.222 395.315 317.873 396.634 315.523C400.066 309.347 402.943 302.907 405.318 296.229C406.823 292.032 400.145 290.211 398.64 294.381H398.667Z" fill="#00B6BC"/>
<path d="M418.621 284.245C422.554 276.617 426.487 268.963 430.393 261.335C432.426 257.376 426.46 253.891 424.428 257.851C420.495 265.479 416.562 273.133 412.656 280.761C410.624 284.72 416.589 288.205 418.621 284.245Z" fill="#00B6BC"/>
<path d="M444.013 220.95C440.265 228.895 436.174 236.629 431.739 244.23C429.496 248.084 435.461 251.568 437.705 247.714C442.139 240.139 446.23 232.379 449.978 224.434C451.879 220.422 445.913 216.912 444.013 220.95Z" fill="#00B6BC"/>
<path d="M454.334 185C452.038 192.338 449.002 199.306 445.254 206.01C443.063 209.89 449.055 213.374 451.219 209.494C455.258 202.289 458.531 194.713 461.012 186.821C461.223 186.109 461.223 185.502 461.065 184.947C460.563 183.179 458.451 182.255 456.683 182.704C455.654 182.968 454.756 183.68 454.334 185Z" fill="#00B6BC"/>
<path d="M466.291 218.76C469.933 211.765 473.048 204.56 475.687 197.116C477.165 192.919 470.487 191.098 469.009 195.269C466.581 202.158 463.677 208.783 460.299 215.276C458.24 219.209 464.205 222.719 466.264 218.76H466.291Z" fill="#00B6BC"/>
<path d="M456.419 237.948C453.779 247.899 450.48 257.612 446.389 267.088C444.647 271.126 450.612 274.663 452.354 270.572C456.656 260.542 460.272 250.327 463.07 239.796C464.205 235.493 457.554 233.646 456.392 237.948H456.419Z" fill="#00B6BC"/>
<path d="M431.555 287.889C428.414 295.147 425.247 302.432 422.106 309.691C420.364 313.729 426.303 317.266 428.071 313.175C431.212 305.916 434.379 298.631 437.52 291.373C439.262 287.335 433.324 283.798 431.555 287.889Z" fill="#00B6BC"/>
<path d="M439.025 330.885C442.06 322.808 445.095 314.731 448.131 306.628C449.688 302.458 443.01 300.663 441.453 304.781C438.418 312.857 435.382 320.934 432.347 329.037C432.109 329.644 432.083 330.172 432.162 330.674C432.479 332.812 435.25 333.815 437.256 332.838C438.022 332.469 438.655 331.835 439.025 330.885Z" fill="#00B6BC"/>
<path d="M460.219 274.004C457.923 279.389 455.6 284.773 453.304 290.131C451.562 294.17 457.527 297.706 459.269 293.615C461.565 288.231 463.888 282.846 466.184 277.488C467.927 273.45 461.961 269.913 460.219 274.004Z" fill="#00B6BC"/>
<path d="M473.786 269.885C477.086 261.756 480.411 253.626 483.711 245.496C485.4 241.379 478.696 239.584 477.033 243.649C473.734 251.778 470.408 259.908 467.109 268.038C465.419 272.155 472.124 273.95 473.786 269.885Z" fill="#00B6BC"/>
<path d="M479.883 230.241C477.983 234.253 483.948 237.764 485.849 233.725C489.649 225.701 493.424 217.704 497.225 209.68C497.251 209.627 497.277 209.574 497.304 209.495C499.046 205.8 494.084 202.527 491.84 205.245C491.655 205.457 491.497 205.721 491.339 206.011C487.511 214.088 483.684 222.165 479.883 230.241Z" fill="#00B6BC"/>
<path d="M502.425 235.281C500.63 238.95 498.835 242.645 497.04 246.314C495.087 250.3 501.052 253.81 503.006 249.798C504.51 246.684 506.041 243.596 507.545 240.481C507.466 240.428 507.387 240.402 507.334 240.349C505.539 238.845 503.956 237.129 502.425 235.255V235.281Z" fill="#00B6BC"/>
<path d="M512.454 230.451C512.454 230.451 512.481 230.372 512.507 230.346C514.46 226.36 508.495 222.85 506.542 226.862C506.225 227.522 505.909 228.182 505.565 228.841C506.938 229.026 508.31 229.185 509.683 229.396C510.792 229.58 511.689 229.95 512.454 230.451Z" fill="#00B6BC"/>
<path d="M495.958 273.134C497.119 270.705 498.307 268.303 499.6 265.954C501.738 262.048 495.747 258.537 493.635 262.47C492.263 265.004 490.969 267.564 489.755 270.151C490.626 270.441 491.524 270.811 492.368 271.207C493.609 271.761 494.796 272.447 495.958 273.16V273.134Z" fill="#00B6BC"/>
<path d="M488.251 292.744C488.937 290.554 489.676 288.389 490.441 286.251C489.254 285.063 488.04 283.189 486.482 280.524C486.166 280.18 485.928 279.89 485.638 279.547C484.159 283.269 482.76 287.043 481.573 290.897C480.253 295.146 486.905 296.967 488.251 292.744Z" fill="#00B6BC"/>
<path d="M512.851 271.363C510.607 278.938 507.281 285.906 502.873 292.452C500.392 296.147 506.358 299.632 508.839 295.936C513.563 288.915 517.1 281.287 519.502 273.184C520.769 268.908 514.091 267.087 512.824 271.336L512.851 271.363Z" fill="#00B6BC"/>
<path d="M522.194 240.298C520.505 245.867 517.839 250.909 514.355 255.554C511.663 259.117 517.681 262.549 520.32 259.038C523.989 254.182 526.708 248.797 528.556 243.017C528.661 242.726 528.767 242.436 528.872 242.145C529.77 239.216 526.919 237.447 524.596 238.002C523.541 238.239 522.617 238.978 522.194 240.324V240.298Z" fill="#00B6BC"/>
<path d="M474.869 310.561C472.599 316.341 470.329 322.095 468.033 327.876C467.135 330.172 468.772 331.729 470.698 331.993C471.49 331.729 472.282 331.597 472.784 331.465C472.916 331.465 472.995 331.518 473.1 331.545C473.76 331.175 474.341 330.594 474.684 329.723C476.954 323.943 479.25 318.189 481.52 312.408C483.157 308.264 476.479 306.47 474.842 310.561H474.869Z" fill="#00B6BC"/>
<path d="M494.718 308.554C491.55 315.813 488.383 323.071 485.216 330.33C483.447 334.368 489.412 337.905 491.181 333.814C494.348 326.556 497.516 319.297 500.683 312.038C502.452 308 496.486 304.49 494.718 308.554Z" fill="#00B6BC"/>
<path d="M505.407 344.371C508.047 340.781 502.029 337.323 499.442 340.887C496.037 345.532 493.371 350.547 491.181 355.879C491.075 356.143 490.969 356.38 490.864 356.618C489.227 360.709 495.773 362.504 497.489 358.571C497.489 358.545 497.515 358.518 497.542 358.466C499.548 353.451 502.24 348.752 505.434 344.397L505.407 344.371Z" fill="#00B6BC"/>
<path d="M519.291 314.361C519.133 314.15 519.027 313.913 518.948 313.622C516.255 319.06 513.22 324.312 509.789 329.327C507.255 333.022 513.246 336.48 515.754 332.811C519.687 327.084 523.065 321.066 525.995 314.784C524.966 315.364 523.62 315.681 522.485 315.787C521.429 315.892 519.898 315.18 519.291 314.335V314.361Z" fill="#00B6BC"/>
<path d="M529.189 285.405C526.707 289.101 532.673 292.558 535.154 288.89C539.219 282.872 542.65 276.563 545.606 269.991C546.292 268.434 547.005 266.903 547.639 265.319C549.196 261.545 543.679 259.723 541.488 262.6C541.304 262.864 541.119 263.128 540.987 263.471C537.846 271.179 533.86 278.49 529.189 285.405Z" fill="#00B6BC"/>
<path d="M551.599 315.337C551.599 315.337 551.519 315.179 551.493 315.073C551.335 315.311 551.176 315.548 551.018 315.786C549.302 314.361 547.56 312.962 545.845 311.536C545.422 312.513 545.026 313.463 544.604 314.44C542.862 318.478 548.827 322.015 550.569 317.924C550.833 317.317 551.071 316.736 551.335 316.129C551.229 315.997 551.123 315.891 551.018 315.759C551.018 315.759 551.572 315.311 551.599 315.311V315.337Z" fill="#00B6BC"/>
<path d="M553.525 293.59C552.39 296.256 551.255 298.922 550.12 301.561C550.543 301.904 550.965 302.274 551.387 302.617C553.208 302.881 555.109 302.828 556.93 303.118C557.405 301.983 557.907 300.848 558.382 299.713C558.751 298.816 559.147 297.945 559.517 297.074C560.81 294.065 557.854 291.373 555.531 291.821C554.713 291.98 554 292.534 553.552 293.563L553.525 293.59Z" fill="#00B6BC"/>
<path d="M539.272 343.105C537.741 340.651 538.058 336.137 540.117 334.896C541.278 334.184 542.413 334.025 543.522 334.21C542.307 332.125 539.008 331.28 537.583 334.025C533.756 341.337 529.928 348.622 526.101 355.933C524.042 359.866 530.007 363.376 532.066 359.417C534.732 354.349 537.398 349.255 540.064 344.187C539.774 343.871 539.536 343.501 539.299 343.132L539.272 343.105Z" fill="#00B6BC"/>
<path d="M542.096 354.719C538.797 360.948 535.524 367.177 532.224 373.38C532.066 373.697 531.908 373.987 531.723 374.304C529.638 378.237 535.603 381.721 537.688 377.788C537.978 377.234 538.295 376.653 538.585 376.099C541.726 370.134 544.894 364.168 548.035 358.203C550.12 354.27 544.155 350.76 542.07 354.719H542.096Z" fill="#00B6BC"/>
<path d="M562.869 328.217C558.989 336.268 555.082 344.292 551.202 352.342C549.276 356.328 555.241 359.838 557.168 355.826C560.441 349.043 563.714 342.286 567.013 335.502C567.62 334.235 568.253 332.968 568.861 331.701C570.207 328.93 567.752 326.422 565.482 326.449C564.479 326.449 563.502 326.977 562.895 328.217H562.869Z" fill="#00B6BC"/>
<path d="M244.917 215.25C248.032 208.73 251.12 202.211 254.235 195.691C254.604 194.899 254.683 194.134 254.525 193.448C253.944 190.597 249.8 188.961 248.269 192.207L244.337 200.442C242.542 204.217 240.747 207.965 238.952 211.739C237.052 215.725 243.017 219.235 244.917 215.223V215.25Z" fill="#00B6BC"/>
<path d="M225.174 230.242C223.511 233.594 222.192 237.078 221.215 240.668C220.74 242.41 220.318 244.178 220.001 245.999C219.262 250.354 225.94 252.228 226.679 247.847C226.943 246.342 227.259 244.864 227.629 243.413C228.474 240.087 229.608 236.867 231.166 233.752C233.145 229.767 227.18 226.282 225.201 230.268L225.174 230.242Z" fill="#00B6BC"/>
<path d="M556.904 369.393C555.531 373.643 553.921 377.787 552.179 381.878C551.466 383.541 550.806 385.23 550.041 386.893C548.167 390.905 554.132 394.416 556.006 390.377C556.904 388.477 557.748 386.524 558.567 384.597C560.414 380.215 562.103 375.754 563.581 371.215C564.954 366.965 558.276 365.144 556.904 369.367V369.393Z" fill="#00B6BC"/>
<path d="M204.929 409.964C204.876 410.676 204.929 411.547 204.692 412.313C203.187 417.46 199.756 421.234 195.823 422.264L194.767 426.935C193.791 431.264 200.469 433.112 201.445 428.783C202.738 423.082 204.005 417.354 205.299 411.627C205.483 410.808 205.668 409.964 205.853 409.145C206.777 405.001 200.732 403.127 199.36 406.796C199.756 406.638 200.152 406.453 200.574 406.348C202.342 405.872 204.929 407.931 204.956 409.937L204.929 409.964Z" fill="#00B6BC"/>
<path d="M199.676 436.225C198.04 443.114 196.403 450.003 194.74 456.892C193.711 461.221 200.363 463.068 201.418 458.739C203.055 451.85 204.691 444.961 206.354 438.072C207.384 433.744 200.706 431.896 199.676 436.225Z" fill="#00B6BC"/>
<path d="M221.056 439.156C222.244 434.168 223.432 429.179 224.593 424.191C225.622 419.862 218.945 418.014 217.915 422.343L214.352 437.309C213.322 441.638 220 443.485 221.03 439.156H221.056Z" fill="#00B6BC"/>
<path d="M221.162 464.549C221.98 460.194 215.329 458.346 214.484 462.701C213.323 468.851 212.161 475.001 211 481.125C210.182 485.48 216.833 487.328 217.678 482.973C218.839 476.823 220.001 470.673 221.162 464.549Z" fill="#00B6BC"/>
<path d="M228.104 499.125C229.582 494.928 222.904 493.107 221.426 497.277C220.212 500.735 219.526 504.298 219.262 507.888C219.103 510.026 219.077 512.19 219.262 514.355C219.631 518.657 226.283 518.789 226.177 514.592C226.177 514.513 226.177 514.434 226.177 514.355C225.728 509.076 226.335 504.087 228.104 499.099V499.125Z" fill="#00B6BC"/>
<path d="M252.519 434.855C251.041 438.154 247.9 440.952 244.125 442.721C243.07 446.284 241.987 449.874 240.932 453.437C239.665 457.713 246.316 459.534 247.61 455.285C249.853 447.709 252.123 440.134 254.367 432.559C254.393 432.453 254.446 432.321 254.472 432.216C255.396 429.075 252.07 427.28 249.721 428.203C250.328 428.441 250.909 428.758 251.437 429.18C253.284 430.685 253.469 432.743 252.519 434.855Z" fill="#00B6BC"/>
<path d="M252.863 490.071C253.285 483.288 254.684 476.742 256.927 470.328C258.405 466.131 251.728 464.31 250.25 468.48C247.795 475.475 246.396 482.654 245.921 490.071C245.63 494.506 252.546 494.506 252.836 490.071H252.863Z" fill="#00B6BC"/>
<path d="M253.495 510.843C252.862 516.228 252.229 521.639 251.595 527.023C251.067 531.431 257.983 531.405 258.511 527.023C259.144 521.639 259.777 516.228 260.411 510.843C260.939 506.435 253.997 506.462 253.495 510.843Z" fill="#00B6BC"/>
<path d="M274.638 470.512C277.937 462.092 280.577 453.461 282.609 444.645C282.767 443.959 282.952 443.273 283.11 442.586C284.061 438.258 277.383 436.384 276.433 440.739C276.353 441.135 276.248 441.504 276.169 441.9C274.11 451.033 271.391 459.954 267.986 468.664C266.35 472.808 273.054 474.603 274.664 470.512H274.638Z" fill="#00B6BC"/>
<path d="M276.459 492.632C276.696 492.975 276.881 493.345 277.066 493.714C278.095 489.782 279.098 485.822 280.128 481.889C281.236 477.587 274.585 475.739 273.45 480.042C272.843 482.391 272.235 484.767 271.628 487.116C273.45 488.752 275.086 490.573 276.459 492.632Z" fill="#00B6BC"/>
<path d="M268.514 504.272C268.092 504.114 267.722 503.929 267.327 503.771C267.089 504.695 266.851 505.645 266.614 506.569C265.505 510.871 272.157 512.719 273.292 508.416C273.661 507.044 274.004 505.645 274.374 504.272C273.635 504.642 272.738 504.906 271.629 504.959C270.995 504.827 269.729 504.721 268.567 504.299L268.514 504.272Z" fill="#00B6BC"/>
<path d="M271.391 539.639C270.758 540.906 269.913 541.909 268.857 542.49C270.256 544.681 274.295 544.971 275.192 541.698C276.829 535.759 277.673 529.662 277.673 523.512C277.673 519.051 270.758 519.051 270.758 523.512C270.758 527.894 270.283 532.17 269.359 536.419C269.649 536.419 269.94 536.419 270.23 536.472C271.418 537.237 271.972 538.478 271.391 539.613V539.639Z" fill="#00B6BC"/>
<path d="M291.134 503.612C293.985 494.822 296.836 486.059 299.686 477.27C301.059 473.02 294.381 471.199 293.008 475.422C290.158 484.211 287.307 492.974 284.457 501.764C283.084 506.013 289.762 507.835 291.134 503.612Z" fill="#00B6BC"/>
<path d="M304.596 482.365C303.382 486.641 310.033 488.488 311.274 484.212C313.597 476.135 315.893 468.085 318.189 460.008C318.189 459.955 318.189 459.903 318.216 459.85C319.139 456.049 313.86 454.307 311.986 457.184C311.802 457.474 311.643 457.791 311.538 458.161C309.215 466.237 306.919 474.288 304.596 482.365Z" fill="#00B6BC"/>
<path d="M302.616 530.164C304.358 520.794 306.76 511.608 309.875 502.581C311.327 498.358 304.649 496.563 303.197 500.734C300.109 509.761 297.681 518.946 295.938 528.316C295.12 532.671 301.798 534.519 302.616 530.164Z" fill="#00B6BC"/>
<path d="M307.816 559.119C310.086 552.177 312.33 545.262 314.6 538.32C315.972 534.07 309.321 532.275 307.922 536.472C305.652 543.387 303.408 550.329 301.138 557.271C300.953 557.878 300.927 558.432 301.006 558.908C301.455 561.31 304.807 562.286 306.707 560.702C307.183 560.307 307.552 559.805 307.79 559.092L307.816 559.119Z" fill="#00B6BC"/>
<path d="M327.401 530.296C329.222 523.354 331.07 516.412 332.891 509.471C334.026 505.168 327.348 503.321 326.213 507.623C324.392 514.565 322.544 521.507 320.723 528.448C319.588 532.751 326.266 534.598 327.401 530.296Z" fill="#00B6BC"/>
<path d="M328.483 488.039C327.269 492.341 333.947 494.162 335.161 489.886C337.061 483.103 338.962 476.32 340.889 469.51C340.915 469.378 340.968 469.272 340.994 469.14C342.156 465.049 336.111 463.201 334.528 466.791C334.448 466.949 334.369 467.108 334.316 467.292C332.363 474.208 330.436 481.123 328.509 488.012L328.483 488.039Z" fill="#00B6BC"/>
<path d="M355.089 478.853C352.292 486.877 349.52 494.927 346.722 502.951C345.271 507.175 351.948 508.969 353.4 504.799C356.198 496.775 358.969 488.725 361.767 480.701C362.084 479.83 362.005 479.064 361.741 478.431C361.081 476.953 359.154 476.187 357.518 476.636C356.488 476.9 355.564 477.612 355.116 478.879L355.089 478.853Z" fill="#00B6BC"/>
<path d="M342.71 551.544C346.035 542.148 349.361 532.777 352.713 523.381C354.218 519.184 347.54 517.363 346.035 521.533L337.431 545.764C338.434 546.661 339.516 547.479 340.677 548.271C341.997 549.169 342.736 550.277 342.71 551.518V551.544Z" fill="#00B6BC"/>
<path d="M337.062 555.267C338.645 555.98 340.836 555.663 341.839 553.842C340.704 555.373 338.804 555.927 337.062 555.267Z" fill="#00B6BC"/>
<path d="M325.21 545.368C322.887 551.597 320.195 557.642 317.186 563.528C316.685 564.504 316.21 565.481 315.682 566.458C313.597 570.39 319.562 573.875 321.647 569.942C322.492 568.358 323.31 566.748 324.102 565.112C326.583 560.123 328.826 555.002 330.859 549.803C329.064 548.192 327.19 546.714 325.21 545.342V545.368Z" fill="#00B6BC"/>
<path d="M372.272 484.58C369.211 493.026 366.122 501.473 363.061 509.945C362.401 511.74 363.272 513.086 364.565 513.72C365.067 513.799 365.542 513.931 365.964 514.116C367.469 514.248 369.079 513.588 369.738 511.793C372.8 503.347 375.889 494.9 378.95 486.428C379.03 486.217 379.056 486.032 379.109 485.847C379.742 482.6 375.255 481.096 373.117 483.287C372.774 483.63 372.484 484.052 372.299 484.606L372.272 484.58Z" fill="#00B6BC"/>
<path d="M375.149 541.409C380.587 532.963 384.546 523.804 387.027 514.064C388.136 509.762 381.458 507.914 380.349 512.217C378 521.428 374.305 529.901 369.184 537.899C366.756 541.647 372.747 545.131 375.149 541.383V541.409Z" fill="#00B6BC"/>
<path d="M354.746 565.93C358.019 558.064 360.711 549.987 362.823 541.726C363.931 537.423 357.254 535.576 356.145 539.878C354.033 548.14 351.368 556.19 348.068 564.082C346.353 568.2 353.057 569.968 354.746 565.93Z" fill="#00B6BC"/>
<path d="M367.732 551.44C365.673 557.352 363.614 563.264 361.555 569.151C360.948 570.919 360.315 572.714 359.708 574.482C358.229 578.705 364.907 580.5 366.385 576.33C367.23 573.928 368.048 571.526 368.893 569.151C370.74 563.872 372.588 558.566 374.409 553.287C375.888 549.064 369.21 547.269 367.732 551.44Z" fill="#00B6BC"/>
<path d="M393.573 549.458C398.456 541.144 402.389 532.407 405.451 523.275C406.85 519.052 400.172 517.23 398.773 521.427C395.922 530.005 392.174 538.161 387.608 545.948C385.338 549.801 391.33 553.286 393.573 549.432V549.458Z" fill="#00B6BC"/>
<path d="M401.887 510.579C403.154 506.118 404.421 501.631 405.688 497.17C406.057 495.903 406.401 494.637 406.77 493.37C407.984 489.094 401.306 487.246 400.092 491.522C399.828 492.499 399.538 493.449 399.274 494.425C397.928 499.203 396.582 503.98 395.209 508.731C393.995 513.007 400.673 514.855 401.887 510.579Z" fill="#00B6BC"/>
<path d="M424.93 525.572C425.537 521.586 426.698 517.838 428.282 514.248C428.282 514.195 428.282 514.169 428.282 514.116C428.176 512.929 428.836 511.846 429.786 511.186C430.34 510.183 430.895 509.154 431.528 508.177C431.581 508.125 431.607 508.046 431.634 507.993C434.088 504.271 428.097 500.787 425.668 504.509C425.457 504.825 425.299 505.142 425.114 505.459C421.63 511.055 419.281 517.204 418.252 523.724C417.565 528.079 424.243 529.953 424.93 525.572Z" fill="#00B6BC"/>
<path d="M410.148 555.584C412.049 550.2 413.976 544.815 415.876 539.43C417.354 535.234 410.676 533.412 409.198 537.583C407.298 542.967 405.371 548.352 403.47 553.736C401.992 557.933 408.644 559.754 410.148 555.584Z" fill="#00B6BC"/>
<path d="M443.432 529.029C445.069 524.463 446.679 519.896 448.289 515.356C448.579 514.538 448.87 513.72 449.16 512.902C450.664 508.705 443.987 506.884 442.482 511.054C442.297 511.582 442.113 512.11 441.928 512.638C440.212 517.494 438.47 522.351 436.754 527.181C435.25 531.378 441.928 533.199 443.432 529.029Z" fill="#00B6BC"/>
<path d="M432.32 539.93C430.869 543.652 429.417 547.4 427.965 551.122C428.335 551.042 428.731 550.963 429.127 550.963C430.816 550.963 432.32 551.623 432.505 553.682C432.452 556.137 430.05 558.222 427.517 557.799C426.83 557.694 426.197 557.404 425.695 556.981C425.247 558.116 424.824 559.251 424.376 560.386C424.349 560.465 424.296 560.571 424.27 560.65C422.66 564.794 429.338 566.589 430.948 562.498C431.581 560.861 432.215 559.225 432.848 557.588C434.907 552.309 436.94 547.03 438.998 541.751C440.608 537.607 433.93 535.813 432.32 539.904V539.93Z" fill="#00B6BC"/>
<path d="M452.697 539.244C452.011 538.373 451.536 536.921 451.72 535.866C452.222 532.909 454.202 530.903 456.313 529.056C456.155 528.924 456.049 528.765 455.864 528.66C454.413 527.815 451.879 528.185 451.14 529.9C449.978 532.593 448.844 535.285 447.682 537.977C446.943 539.693 447.181 541.673 448.923 542.702C450.374 543.547 452.908 543.177 453.647 541.461C453.832 541.013 454.043 540.538 454.228 540.089C453.621 540.036 453.093 539.772 452.697 539.244Z" fill="#00B6BC"/>
<path d="M181.886 425.325C184.367 418.488 186.848 411.652 189.329 404.816C189.91 403.206 190.517 401.569 191.098 399.959C192.629 395.762 185.951 393.968 184.42 398.112C183.945 399.431 183.444 400.777 182.968 402.097C180.382 409.224 177.795 416.35 175.208 423.477C173.677 427.674 180.355 429.469 181.886 425.325Z" fill="#00B6BC"/>
<path d="M180.725 150.977L180.039 151.61L180.329 152.64L179.353 152.27L179.274 152.349L179.326 152.93L178.746 152.983L178.667 152.904L171.012 159.951C171.012 159.951 170.854 160.188 170.907 160.373C170.907 160.479 170.906 160.584 170.986 160.637C170.933 160.584 170.827 160.584 170.642 160.637C170.484 160.584 170.352 160.584 170.299 160.637L166.815 163.831L166.446 164.808L166.763 165.151L167.766 164.86L167.396 165.837L168.029 166.523L169.032 166.233L169.719 165.599L169.402 165.256L170.801 163.989L171.118 164.332L174.602 161.139L174.285 160.796L174.655 159.819L174.338 159.476L175.024 158.842L176.053 158.552L177.056 158.262L178.059 157.971L180.831 155.411L181.2 154.434L182.23 154.144L182.916 153.511L183.286 152.534L181.675 150.792L180.646 151.082L180.725 150.977Z" fill="#00B6BC"/>
<path d="M591.771 197.672L589.396 199.203L588.868 200.127L587.284 201.156L587.02 202.476L586.492 203.4L586.36 204.033C588.181 201.922 589.923 199.757 591.797 197.698L591.771 197.672Z" fill="#00B6BC"/>
<path d="M653.482 374.885L652.954 375.783L652.558 374.806L651.608 374.727L651.054 375.624L650.975 376.575H651.45L651.318 378.502H650.842L650.499 383.173H650.975L651.37 384.176H651.845L651.766 385.153L651.238 386.05L650.684 386.948L650.156 387.845L649.866 391.62L650.262 392.596L649.734 393.494L649.655 394.444L650.051 395.421L652.4 395.605L652.954 394.708L653.033 393.758L652.136 393.23L653.112 392.834V392.728L652.664 392.332L653.06 391.884H653.165L653.931 381.537C653.931 381.379 653.878 381.247 653.72 381.167C653.64 381.088 653.561 381.035 653.482 381.035C653.561 381.035 653.64 380.956 653.746 380.824C653.904 380.745 653.983 380.692 654.01 380.613L654.353 375.915L653.957 374.938H653.482V374.885Z" fill="#00B6BC"/>
<path d="M540.381 475.873L540.433 476.031L540.486 475.926L540.381 475.873Z" fill="#00B6BC"/>
<path d="M649.206 392.278C651.503 392.859 653.825 393.334 656.148 393.703C661.823 315.496 635.692 237.077 582.797 177.847C580.58 177.741 578.442 177.319 576.33 176.026C577.175 174.944 578.125 174.257 579.102 173.782C566.538 160.215 552.522 147.731 537.16 136.539C537.213 137.014 537.292 137.516 537.16 137.965C536.87 139.1 535.498 139.786 534.97 139.02C532.805 135.906 529.48 135.008 526.286 133.715C526.022 133.609 525.89 132.791 525.969 132.395C526.048 132.026 526.497 131.524 526.867 131.445C529.137 130.891 530.72 132.527 532.594 133.319C526.18 128.832 519.555 124.582 512.693 120.57C506.358 116.875 499.944 113.444 493.477 110.25C492.976 110.62 492.369 110.672 492.052 110.25C491.788 109.854 491.498 109.511 491.181 109.168C463.519 95.9177 434.591 87.4186 405.424 83.433C405.424 83.4857 405.424 83.5121 405.398 83.5385C404.949 84.5415 404.078 85.0694 403.022 84.7263C402.125 84.436 401.095 84.0136 400.568 83.301C400.409 83.1162 400.33 82.9315 400.251 82.7467C391.409 81.6909 382.54 81.0574 373.698 80.8199C373.909 81.2422 374.094 81.8229 374.331 82.6675C374.384 83.3802 374.595 84.1456 374.437 84.8319C374.147 85.9669 372.774 86.6531 372.246 85.8877C370.187 82.9051 367.046 81.9549 363.984 80.7407C363.404 80.7407 362.85 80.7407 362.269 80.7407C362.216 81.1894 362.137 81.5589 362.111 81.7701C361.292 83.2218 360.58 83.8817 359.524 84.1192C358.758 84.304 357.122 83.0106 357.386 82.4036C357.65 81.8229 357.967 81.3214 358.31 80.8463C318.718 81.8757 279.706 90.9555 243.783 107.399C243.572 108.429 242.621 109.141 240.668 109.986C239.903 109.986 239.111 109.986 238.345 109.96C235.284 111.438 232.248 112.969 229.239 114.552C229.582 114.5 229.899 114.447 230.189 114.552C231.456 114.975 232.195 115.951 231.562 117.377C231.113 118.38 230.242 118.908 229.186 118.564C228.289 118.274 227.26 117.852 226.732 117.139C226.415 116.717 226.309 116.374 226.283 116.083C221.638 118.591 217.071 121.257 212.558 124.028C212.795 124.45 212.98 125.057 213.27 126.008C213.323 126.72 213.534 127.486 213.376 128.172C213.086 129.307 211.713 129.993 211.185 129.228C210.393 128.093 209.47 127.275 208.44 126.588C186.77 140.393 166.789 157.259 149.078 176.87C150.266 179.008 151.454 181.173 152.589 183.337C192.498 138.334 244.891 108.112 301.35 95.0466C299.238 94.9147 297.153 94.4924 295.147 93.2518C296.916 91.0082 299.027 90.4276 301.297 90.0844C301.482 89.9261 301.667 89.7149 301.878 89.6357C304.808 88.448 306.101 88.6855 306.708 90.4804C307.262 92.1696 307.077 93.1462 305.758 94.07C319.984 91.0083 334.449 89.0286 349.019 88.184C349.019 87.9993 349.019 87.8409 349.019 87.6825C349.124 87.313 349.547 86.8115 349.916 86.7323C351.605 86.3364 352.925 87.1282 354.245 87.8937C397.321 86.1252 441.163 94.1228 482.391 112.731C483.236 111.2 484.477 110.092 486.166 109.485C486.324 109.432 486.984 110.118 486.984 110.461C486.984 111.438 486.799 112.388 486.747 112.784C486.377 113.417 486.034 113.893 485.691 114.262C493.636 117.984 501.475 122.075 509.209 126.588C605.629 183.02 656.438 287.781 649.18 392.331L649.206 392.278ZM267.512 101.725C266.693 103.176 265.981 103.836 264.925 104.074C264.16 104.258 262.523 102.965 262.787 102.358C263.605 100.484 265.004 99.1378 266.931 98.4516C267.089 98.3988 267.749 99.085 267.749 99.4282C267.749 100.405 267.564 101.355 267.512 101.751V101.725ZM280.92 96.5248C280.498 96.472 279.917 96.5775 279.653 96.34C279.204 95.9705 279.337 95.4162 279.944 95.2578C280.34 95.1522 280.815 95.2578 281.263 95.3106C281.158 95.7065 281.052 96.1288 280.947 96.5511L280.92 96.5248ZM447.735 96.7095C447.55 97.475 446.943 97.9765 446.151 97.7389C445.254 97.475 445.228 96.6567 445.465 95.9177C445.703 95.205 446.204 94.7035 447.049 94.7827C447.788 95.2314 447.946 95.9705 447.761 96.7095H447.735ZM613.679 221.821C613.23 221.768 612.702 221.873 612.412 221.636C611.963 221.266 612.122 220.712 612.702 220.554C613.098 220.448 613.573 220.554 614.022 220.607C613.917 221.029 613.811 221.425 613.679 221.847V221.821Z" fill="#00B6BC"/>
<path d="M545.766 586.941C513.168 611.989 475.74 629.516 436.28 638.648C438.392 638.78 440.477 639.202 442.483 640.443C440.714 642.687 438.603 643.267 436.359 643.61C436.175 643.769 435.99 643.98 435.779 644.059C432.849 645.247 431.555 645.009 430.948 643.214C430.394 641.525 430.579 640.549 431.899 639.625C417.672 642.687 403.207 644.666 388.638 645.511C388.638 645.696 388.638 645.854 388.638 646.012C388.532 646.382 388.11 646.883 387.74 646.962C386.051 647.358 384.731 646.567 383.411 645.801C340.335 647.57 296.467 639.572 255.265 620.964C254.42 622.468 253.18 623.603 251.49 624.21C251.332 624.263 250.672 623.577 250.672 623.234C250.672 622.257 250.857 621.307 250.91 620.911C251.279 620.277 251.622 619.802 251.965 619.433C244.021 615.711 236.181 611.646 228.448 607.106C145.938 558.804 96.8434 475.106 88.9513 386.42C86.4702 384.942 83.9891 383.411 81.5344 381.827C86.1007 445.597 111.44 507.176 154.859 555.795C157.076 555.901 159.241 556.323 161.326 557.616C160.481 558.698 159.531 559.385 158.554 559.86C171.118 573.427 185.134 585.911 200.496 597.103C200.443 596.628 200.364 596.126 200.496 595.677C200.786 594.542 202.159 593.856 202.686 594.622C204.851 597.736 208.177 598.634 211.37 599.927C211.634 600.033 211.766 600.851 211.687 601.247C211.581 601.616 211.159 602.118 210.79 602.197C208.52 602.751 206.936 601.115 205.062 600.323C211.476 604.81 218.101 609.06 224.964 613.072C231.298 616.767 237.712 620.198 244.179 623.392C244.68 623.022 245.288 622.97 245.604 623.392C245.868 623.788 246.159 624.131 246.475 624.474C274.164 637.724 303.066 646.223 332.232 650.209C332.232 650.156 332.232 650.13 332.232 650.103C332.681 649.1 333.552 648.573 334.607 648.916C335.505 649.206 336.534 649.628 337.062 650.341C337.194 650.526 337.3 650.711 337.379 650.869C346.221 651.925 355.063 652.558 363.932 652.796C363.721 652.373 363.536 651.793 363.299 650.948C363.246 650.235 363.035 649.47 363.193 648.784C363.483 647.649 364.856 646.962 365.384 647.728C367.443 650.711 370.584 651.661 373.645 652.875C374.226 652.875 374.78 652.875 375.361 652.875C375.414 652.426 375.493 652.057 375.519 651.846C376.338 650.394 377.05 649.734 378.106 649.496C378.872 649.312 380.508 650.605 380.244 651.212C379.98 651.793 379.663 652.294 379.32 652.769C418.912 651.74 457.924 642.66 493.847 626.216C494.058 625.187 495.008 624.474 496.962 623.63C497.727 623.63 498.519 623.63 499.284 623.656C502.346 622.178 505.355 620.647 508.364 619.063C508.021 619.116 507.704 619.169 507.414 619.063C506.147 618.641 505.408 617.664 506.041 616.239C506.49 615.236 507.361 614.708 508.417 615.051C509.314 615.342 510.344 615.764 510.872 616.477C511.188 616.899 511.294 617.242 511.32 617.532C515.966 615.025 520.532 612.359 525.046 609.587C524.808 609.165 524.623 608.558 524.333 607.608C524.28 606.895 524.069 606.13 524.227 605.444C524.518 604.309 525.89 603.622 526.418 604.388C527.21 605.523 528.134 606.341 529.163 607.027C537.266 601.88 545.106 596.258 552.707 590.267C549.883 589.871 547.534 588.63 545.713 586.888L545.766 586.941ZM125.033 513.115C124.637 513.22 124.162 513.115 123.713 513.062C123.819 512.64 123.925 512.244 124.057 511.821C124.479 511.874 125.033 511.768 125.323 512.006C125.772 512.376 125.64 512.93 125.033 513.088V513.115ZM292.27 637.724C292.033 638.437 291.531 638.938 290.687 638.859C289.948 638.411 289.789 637.672 289.974 636.932C290.159 636.167 290.766 635.666 291.558 635.903C292.481 636.167 292.481 636.985 292.244 637.724H292.27ZM457.792 638.411C457.396 638.516 456.921 638.411 456.472 638.358C456.578 637.935 456.683 637.54 456.815 637.117C457.238 637.17 457.792 637.064 458.082 637.302C458.531 637.672 458.373 638.226 457.792 638.384V638.411ZM474.922 631.31C474.104 633.184 472.705 634.531 470.778 635.217C470.62 635.27 469.96 634.583 469.96 634.24C469.96 633.264 470.145 632.313 470.197 631.917C471.016 630.466 471.728 629.806 472.784 629.568C473.55 629.384 475.186 630.677 474.922 631.284V631.31Z" fill="#00B6BC"/>
<path d="M206.499 295.766L203.809 302.262L197.313 299.572L177.581 347.209L188.407 351.694L191.098 345.198L197.594 347.888L192.213 360.88L161.898 348.324L164.589 341.828L171.085 344.518L190.817 296.881L184.321 294.19L187.011 287.694L206.499 295.766ZM252.571 314.85L249.88 321.346L243.384 318.655L223.652 366.293L230.148 368.983L227.457 375.479L207.969 367.407L210.66 360.911L217.156 363.602L236.888 315.964L230.392 313.273L233.083 306.777L252.571 314.85ZM258.897 380.891L263.228 382.685L260.537 389.181L243.214 382.006L245.905 375.51L252.401 378.201L272.133 330.563L265.637 327.872L268.328 321.376L282.143 327.099L277.468 372.804L291.621 338.635L287.291 336.842L289.981 330.345L307.304 337.521L304.613 344.017L298.117 341.326L278.385 388.964L284.881 391.654L282.19 398.15L268.375 392.428L273.05 346.722L258.897 380.891ZM313.63 403.563L317.961 405.356L315.27 411.852L297.947 404.677L300.638 398.181L307.134 400.872L326.866 353.234L320.37 350.544L323.061 344.047L340.383 351.223L337.693 357.719L333.362 355.925L324.321 377.752L348.043 362.006L344.189 360.41L346.88 353.914L364.202 361.089L361.512 367.585L355.882 365.253L335.995 378.477L336.323 412.962L341.779 415.222L339.089 421.718L321.766 414.543L324.457 408.047L329.22 410.02L329.009 383.093L319.496 389.401L313.63 403.563ZM383.52 432.512L386.211 426.016L392.707 428.707L387.326 441.699L354.845 428.245L357.536 421.749L364.032 424.44L383.764 376.802L377.268 374.112L379.959 367.616L412.439 381.069L407.058 394.061L400.562 391.371L403.252 384.875L390.26 379.493L382.188 398.981L393.015 403.466L395.706 396.97L402.202 399.66L394.129 419.148L387.633 416.458L390.324 409.962L379.497 405.477L370.528 427.131L383.52 432.512ZM412.269 444.42L432.001 396.783L425.505 394.092L428.196 387.596L447.684 395.668C456.345 399.256 458.882 405.38 455.295 414.042L440.944 448.687C437.356 457.349 431.232 459.885 422.57 456.298L403.082 448.225L405.773 441.729L412.269 444.42ZM438.497 399.473L418.765 447.111L425.261 449.802C429.592 451.596 432.654 450.327 434.448 445.996L448.799 411.351C450.592 407.02 449.324 403.958 444.993 402.164L438.497 399.473ZM495.921 415.648L493.23 422.145L486.734 419.454L467.002 467.091L473.498 469.782L470.807 476.278L451.319 468.206L454.01 461.71L460.506 464.401L480.238 416.763L473.742 414.072L476.433 407.576L495.921 415.648ZM502.247 481.69L506.578 483.484L503.887 489.98L486.564 482.805L489.255 476.309L495.751 478.999L515.483 431.362L508.987 428.671L511.678 422.175L525.493 427.897L520.818 473.603L534.971 439.434L530.64 437.64L533.331 431.144L550.654 438.32L547.963 444.816L541.467 442.125L521.735 489.762L528.231 492.453L525.54 498.949L511.725 493.227L516.4 447.521L502.247 481.69Z" fill="#00B6BC"/>
</svg>
