<svg width="727" height="726" viewBox="0 0 727 726" fill="none" xmlns="http://www.w3.org/2000/svg">
<path d="M726.7 362.907C726.7 368.607 716.7 374.107 716.4 379.707C716.1 385.407 725.6 391.807 725.1 397.407C724.6 403.107 714.1 407.607 713.3 413.207C712.5 418.807 721.3 426.107 720.2 431.707C719.1 437.307 708.3 440.807 706.9 446.307C705.6 451.807 713.6 459.907 712 465.307C710.4 470.807 699.3 473.207 697.4 478.507C695.5 483.907 702.8 492.707 700.7 497.907C698.6 503.207 687.3 504.507 684.9 509.707C682.5 514.907 688.9 524.307 686.3 529.407C683.7 534.507 672.3 534.707 669.4 539.607C666.5 544.507 672 554.507 668.9 559.307C665.8 564.107 654.4 563.307 651.1 567.907C647.8 572.507 652.3 583.007 648.8 587.507C645.3 592.007 634 590.107 630.3 594.407C626.6 598.707 630 609.507 626.1 613.707C622.2 617.807 611.2 614.907 607 618.807C602.9 622.707 605.3 633.907 601 637.607C596.7 641.307 586 637.307 581.6 640.907C577.1 644.407 578.5 655.707 573.9 659.007C569.3 662.307 559 657.307 554.3 660.407C549.5 663.507 549.8 674.907 544.9 677.707C540 680.507 530.3 674.607 525.2 677.207C520.2 679.807 519.4 691.207 514.2 693.507C509 695.907 499.9 689.007 494.6 691.107C489.3 693.207 487.5 704.407 482.1 706.307C476.8 708.107 468.3 700.507 462.9 702.107C457.5 703.707 454.5 714.707 449 716.007C443.5 717.307 435.8 708.907 430.2 710.007C424.6 711.107 420.7 721.707 415 722.507C409.4 723.307 402.6 714.207 396.9 714.707C391.3 715.207 386.3 725.507 380.6 725.807C375 726.107 369 716.307 363.3 716.307C357.6 716.307 351.7 726.007 346 725.807C340.3 725.507 335.3 715.307 329.7 714.707C324 714.207 317.2 723.307 311.6 722.507C305.9 721.707 302 711.007 296.4 710.007C290.8 708.907 283.2 717.407 277.6 716.007C272.1 714.707 269.1 703.707 263.7 702.107C258.2 700.507 249.8 708.207 244.4 706.307C239 704.407 237.2 693.207 231.9 691.107C226.6 689.007 217.5 695.807 212.3 693.507C207.1 691.107 206.3 679.807 201.3 677.207C196.2 674.607 186.5 680.507 181.6 677.707C176.7 674.807 177 663.507 172.2 660.407C167.4 657.307 157.2 662.307 152.5 659.007C147.9 655.707 149.2 644.407 144.8 640.907C140.3 637.407 129.7 641.407 125.4 637.607C121.1 633.907 123.5 622.707 119.4 618.807C115.3 614.907 104.3 617.807 100.4 613.707C96.5 609.607 100 598.707 96.2 594.407C92.5 590.107 81.2 592.007 77.7 587.507C74.2 583.007 78.7 572.607 75.4 567.907C72.1 563.307 60.7 564.107 57.7 559.307C54.6 554.507 60.1 544.507 57.2 539.607C54.4 534.707 43 534.407 40.4 529.407C37.8 524.407 44.2 514.907 41.8 509.707C39.4 504.507 28.1 503.207 26 497.907C23.9 492.607 31.2 483.907 29.3 478.507C27.4 473.107 16.3 470.707 14.7 465.307C13.1 459.907 21.2 451.807 19.8 446.307C18.5 440.807 7.6 437.307 6.5 431.707C5.4 426.107 14.2 418.907 13.4 413.207C12.6 407.607 2.1 403.107 1.6 397.407C1.1 391.807 10.5 385.407 10.3 379.707C10 374.107 0 368.607 0 362.907C0 357.207 10 351.707 10.3 346.107C10.6 340.407 1.1 334.007 1.6 328.407C2.1 322.707 12.6 318.207 13.4 312.607C14.2 306.907 5.4 299.707 6.5 294.107C7.6 288.507 18.4 285.007 19.8 279.507C21.1 274.007 13.1 265.907 14.7 260.507C16.3 255.007 27.4 252.607 29.3 247.307C31.2 241.907 23.9 233.107 26 227.907C28.1 222.607 39.4 221.307 41.8 216.107C44.2 210.907 37.8 201.507 40.4 196.407C43 191.307 54.4 191.107 57.2 186.207C60.1 181.307 54.6 171.307 57.7 166.507C60.8 161.707 72.1 162.607 75.4 157.907C78.7 153.307 74.2 142.807 77.7 138.307C81.2 133.807 92.5 135.707 96.2 131.407C99.9 127.107 96.4 116.207 100.4 112.107C104.3 108.007 115.3 111.007 119.4 107.007C123.5 103.107 121.1 91.9068 125.4 88.2068C129.7 84.5068 140.4 88.5068 144.8 84.9068C149.3 81.4068 147.9 70.1068 152.5 66.8067C157.1 63.5067 167.4 68.5068 172.2 65.4068C177 62.3068 176.7 50.9067 181.6 48.1067C186.5 45.3067 196.2 51.2067 201.3 48.6067C206.3 46.0067 207.1 34.6068 212.3 32.3068C217.5 29.9068 226.6 36.8068 231.9 34.7068C237.2 32.6068 239 21.4067 244.4 19.5068C249.8 17.6068 258.2 25.3068 263.7 23.7068C269.1 22.1068 272.1 11.1068 277.6 9.80675C283.1 8.50675 290.8 16.9068 296.4 15.8068C302 14.7068 305.9 4.10675 311.6 3.30675C317.2 2.50675 324 11.6067 329.7 11.1067C335.3 10.6067 340.3 0.30675 346 0.00674983C351.7 -0.29325 357.6 9.50675 363.3 9.50675C369 9.50675 374.9 -0.19325 380.6 0.00674983C386.3 0.30675 391.3 10.5067 396.9 11.1067C402.6 11.6067 409.4 2.50675 415 3.30675C420.6 4.10675 424.6 14.8068 430.2 15.8068C435.8 16.9068 443.5 8.40675 449 9.80675C454.5 11.1068 457.5 22.2068 462.9 23.7068C468.4 25.3068 476.8 17.6068 482.2 19.5068C487.6 21.4067 489.5 32.6068 494.7 34.7068C500 36.8068 509.1 30.0068 514.3 32.4067C519.5 34.8068 520.3 46.1068 525.3 48.7068C530.4 51.3068 540.1 45.4068 545 48.2068C549.9 51.1068 549.6 62.4068 554.4 65.5068C559.2 68.6068 569.4 63.6068 574.1 66.9068C578.7 70.2068 577.4 81.5068 581.8 85.0068C586.3 88.5068 596.9 84.5067 601.2 88.3067C605.5 92.0067 603 103.207 607.2 107.107C611.3 111.007 622.3 108.107 626.2 112.207C630.1 116.307 626.6 127.207 630.4 131.507C634.1 135.807 645.4 133.907 648.9 138.307C652.4 142.807 647.9 153.207 651.2 157.907C654.5 162.507 665.9 161.707 669 166.507C672.1 171.307 666.6 181.307 669.5 186.207C672.3 191.107 683.7 191.407 686.3 196.407C688.9 201.407 682.5 210.907 684.9 216.107C687.3 221.307 698.6 222.607 700.7 227.907C702.8 233.207 695.5 241.907 697.4 247.307C699.3 252.707 710.4 255.107 712 260.507C713.6 265.907 705.5 274.007 706.9 279.507C708.2 285.007 719.1 288.507 720.2 294.107C721.3 299.707 712.5 306.907 713.3 312.607C714.1 318.207 724.6 322.707 725.1 328.407C725.6 334.007 716.2 340.407 716.4 346.107C716.7 351.707 726.7 357.207 726.7 362.907Z" fill="#395E9C"/>
<path d="M363.5 704.907C174.9 704.907 21.5 551.507 21.5 362.907C21.5 174.307 174.9 20.9067 363.5 20.9067C552.1 20.9067 705.5 174.307 705.5 362.907C705.5 551.407 552.1 704.907 363.5 704.907ZM363.5 39.2067C185 39.2067 39.8 184.407 39.8 362.907C39.8 541.407 185 686.607 363.5 686.607C542 686.607 687.2 541.407 687.2 362.907C687.2 184.407 542 39.2067 363.5 39.2067Z" fill="white"/>
<path d="M363.5 678.307C189.6 678.307 48.0999 536.807 48.0999 362.907C48.0999 189.007 189.6 47.5067 363.5 47.5067C537.4 47.5067 678.9 189.007 678.9 362.907C678.9 536.807 537.4 678.307 363.5 678.307ZM363.5 53.6067C193 53.6067 54.1999 192.307 54.1999 362.907C54.1999 533.407 192.9 672.207 363.5 672.207C534 672.207 672.8 533.507 672.8 362.907C672.8 192.307 534 53.6067 363.5 53.6067Z" fill="white"/>
<path d="M360.5 644.507C358.7 644.507 357.4 643.107 357.4 641.407C357.4 639.607 358.8 638.307 360.5 638.307C362.3 638.307 363.6 639.707 363.6 641.407C363.6 643.207 362.3 644.507 360.5 644.507ZM373.2 644.407C371.5 644.407 370 643.107 370 641.307C369.9 639.607 371.3 638.107 373 638.107C374.8 638.007 376.2 639.407 376.3 641.107C376.3 642.907 375 644.407 373.2 644.407ZM347.8 644.207C346 644.107 344.7 642.607 344.8 640.907C344.9 639.107 346.4 637.807 348.1 637.907C349.8 638.007 351.2 639.407 351.1 641.207C351 642.907 349.6 644.207 348 644.207C347.9 644.207 347.8 644.207 347.8 644.207ZM382.5 640.807C382.4 639.107 383.7 637.607 385.4 637.407C387.2 637.307 388.7 638.607 388.8 640.307C388.9 642.107 387.6 643.607 385.9 643.707C385.8 643.707 385.7 643.707 385.6 643.707C384 643.707 382.7 642.407 382.5 640.807ZM335.1 643.207C333.4 643.007 332.1 641.507 332.3 639.807C332.5 638.107 334 636.807 335.7 637.007C337.5 637.207 338.7 638.707 338.5 640.407C338.3 642.007 337 643.307 335.4 643.307C335.3 643.207 335.2 643.207 335.1 643.207ZM395.1 639.707C394.9 638.007 396.1 636.407 397.8 636.207C399.5 636.007 401.1 637.207 401.3 639.007C401.5 640.707 400.3 642.307 398.6 642.507C398.5 642.507 398.3 642.507 398.2 642.507C396.6 642.407 395.3 641.307 395.1 639.707ZM322.5 641.607C320.8 641.307 319.6 639.707 319.9 638.007C320.2 636.307 321.7 635.107 323.5 635.407C325.2 635.607 326.4 637.207 326.1 639.007C325.9 640.507 324.5 641.707 323 641.707C322.7 641.607 322.6 641.607 322.5 641.607ZM407.5 638.007C407.2 636.307 408.4 634.607 410.1 634.407C411.8 634.107 413.4 635.307 413.7 637.007C414 638.707 412.9 640.307 411.1 640.607C410.9 640.607 410.7 640.607 410.6 640.607C409.1 640.607 407.8 639.507 407.5 638.007ZM309.9 639.507C308.2 639.207 307.1 637.507 307.4 635.807C307.7 634.107 309.4 632.907 311.1 633.307C312.8 633.607 313.9 635.307 313.6 637.007C313.3 638.507 312 639.607 310.5 639.607C310.3 639.507 310.1 639.507 309.9 639.507ZM419.9 635.707C419.6 634.007 420.6 632.307 422.3 632.007C424 631.607 425.7 632.707 426 634.407C426.4 636.107 425.3 637.807 423.6 638.107C423.3 638.107 423.1 638.207 422.9 638.207C421.5 638.207 420.2 637.207 419.9 635.707ZM297.4 636.807C295.7 636.407 294.7 634.707 295.1 633.007C295.5 631.307 297.2 630.307 298.9 630.707C300.6 631.107 301.6 632.807 301.2 634.507C300.9 636.007 299.6 636.907 298.1 636.907C297.9 636.907 297.7 636.907 297.4 636.807ZM432.2 632.907C431.7 631.207 432.7 629.507 434.4 629.007C436.1 628.507 437.8 629.507 438.3 631.207C438.8 632.907 437.8 634.607 436.1 635.107C435.8 635.207 435.6 635.207 435.3 635.207C433.8 635.207 432.6 634.307 432.2 632.907ZM285.2 633.507C283.5 633.007 282.6 631.307 283.1 629.607C283.6 627.907 285.3 627.007 287 627.507C288.7 628.007 289.6 629.707 289.1 631.407C288.7 632.807 287.5 633.707 286.1 633.707C285.7 633.707 285.4 633.607 285.2 633.507ZM444.3 629.507C443.8 627.907 444.7 626.107 446.4 625.607C448 625.107 449.8 626.007 450.3 627.707C450.8 629.407 449.9 631.107 448.2 631.607C447.9 631.707 447.6 631.807 447.2 631.807C446 631.707 444.7 630.907 444.3 629.507ZM273 629.707C271.4 629.207 270.4 627.307 271 625.707C271.5 624.107 273.3 623.207 275 623.707C276.6 624.207 277.5 626.007 277 627.707C276.5 629.007 275.3 629.807 274 629.807C273.7 629.907 273.4 629.907 273 629.707ZM456.3 625.607C455.7 624.007 456.6 622.207 458.2 621.607C459.8 621.007 461.6 621.807 462.2 623.507C462.8 625.107 462 626.907 460.3 627.607C460 627.807 459.6 627.807 459.2 627.807C458 627.707 456.7 626.907 456.3 625.607ZM261 625.407C259.4 624.807 258.6 623.007 259.2 621.307C259.8 619.707 261.6 618.907 263.3 619.507C264.9 620.107 265.7 622.007 265.1 623.607C264.6 624.807 263.4 625.607 262.2 625.607C261.8 625.607 261.4 625.507 261 625.407ZM468 621.207C467.3 619.607 468.1 617.807 469.7 617.107C471.3 616.407 473.1 617.207 473.8 618.807C474.5 620.407 473.7 622.207 472.1 622.907C471.7 623.107 471.3 623.207 470.9 623.207C469.7 623.107 468.5 622.407 468 621.207ZM249.2 620.507C247.6 619.807 246.9 617.907 247.6 616.307C248.3 614.707 250.2 614.007 251.8 614.707C253.4 615.407 254.1 617.307 253.4 618.807C252.9 620.007 251.7 620.707 250.5 620.707C250.1 620.707 249.7 620.607 249.2 620.507ZM479.6 616.207C478.8 614.607 479.5 612.807 481.1 612.007C482.7 611.207 484.5 612.007 485.3 613.507C486.1 615.107 485.4 616.907 483.8 617.707C483.4 617.907 482.9 618.007 482.5 618.007C481.2 618.007 480.1 617.307 479.6 616.207ZM237.7 615.007C236.1 614.207 235.5 612.307 236.3 610.807C237.1 609.307 238.9 608.607 240.5 609.407C242.1 610.207 242.7 612.107 241.9 613.607C241.4 614.707 240.2 615.307 239.1 615.307C238.7 615.307 238.2 615.307 237.7 615.007ZM490.9 610.707C490.1 609.207 490.6 607.307 492.2 606.507C493.8 605.707 495.6 606.207 496.4 607.807C497.2 609.307 496.7 611.207 495.1 612.007C494.6 612.307 494.1 612.407 493.6 612.407C492.5 612.407 491.4 611.707 490.9 610.707ZM226.5 609.107C225 608.207 224.4 606.307 225.3 604.807C226.1 603.307 228.1 602.707 229.6 603.607C231.1 604.407 231.7 606.307 230.8 607.807C230.2 608.807 229.2 609.407 228 609.407C227.5 609.507 226.9 609.307 226.5 609.107ZM501.9 604.707C501 603.207 501.5 601.307 503 600.407C504.5 599.507 506.4 600.007 507.3 601.507C508.2 603.007 507.7 604.907 506.2 605.807C505.7 606.107 505.2 606.207 504.6 606.207C503.5 606.207 502.5 605.707 501.9 604.707ZM215.5 602.607C214 601.707 213.6 599.707 214.5 598.207C215.4 596.707 217.4 596.307 218.8 597.207C220.3 598.107 220.7 600.107 219.8 601.507C219.2 602.507 218.2 603.007 217.1 603.007C216.6 603.107 216 602.907 215.5 602.607ZM512.6 598.207C511.7 596.707 512.1 594.807 513.5 593.807C515 592.907 516.9 593.307 517.9 594.707C518.9 596.207 518.4 598.107 517 599.107C516.5 599.407 515.9 599.607 515.3 599.607C514.3 599.607 513.3 599.107 512.6 598.207ZM204.8 595.707C203.4 594.707 203 592.807 204 591.307C205 589.807 206.9 589.507 208.4 590.507C209.8 591.507 210.2 593.407 209.2 594.907C208.6 595.807 207.6 596.307 206.6 596.307C205.9 596.207 205.3 596.007 204.8 595.707ZM523.1 591.207C522.1 589.807 522.4 587.807 523.8 586.807C525.2 585.807 527.2 586.107 528.2 587.507C529.2 588.907 528.9 590.907 527.4 591.907C526.9 592.307 526.2 592.507 525.6 592.507C524.7 592.507 523.7 592.107 523.1 591.207ZM194.4 588.207C193 587.207 192.7 585.207 193.8 583.807C194.8 582.407 196.8 582.107 198.2 583.207C199.6 584.207 199.9 586.207 198.8 587.607C198.2 588.407 197.2 588.907 196.3 588.907C195.7 588.907 195 588.707 194.4 588.207ZM533.2 583.707C532.2 582.407 532.4 580.307 533.7 579.307C535 578.207 537 578.507 538.1 579.807C539.2 581.207 538.9 583.207 537.6 584.207C537 584.607 536.3 584.907 535.6 584.907C534.8 585.007 533.9 584.507 533.2 583.707ZM184.4 580.407C183.1 579.307 182.9 577.307 184 576.007C185.1 574.707 187.1 574.407 188.4 575.607C189.7 576.707 189.9 578.707 188.8 580.007C188.2 580.807 187.2 581.207 186.4 581.207C185.7 581.107 185 580.907 184.4 580.407ZM543 575.907C541.9 574.607 542 572.607 543.3 571.507C544.6 570.407 546.6 570.507 547.7 571.807C548.8 573.107 548.7 575.107 547.4 576.207C546.8 576.707 546.1 577.007 545.3 577.007C544.6 577.007 543.7 576.607 543 575.907ZM174.8 572.007C173.5 570.807 173.4 568.907 174.6 567.607C175.8 566.307 177.7 566.207 179 567.407C180.3 568.607 180.4 570.507 179.2 571.807C178.6 572.507 177.7 572.807 176.9 572.807C176.2 572.807 175.4 572.607 174.8 572.007ZM552.5 567.507C551.3 566.207 551.3 564.307 552.6 563.107C553.9 561.907 555.8 562.007 557 563.207C558.2 564.507 558.1 566.507 556.9 567.607C556.3 568.207 555.5 568.507 554.7 568.507C553.9 568.507 553.1 568.207 552.5 567.507ZM165.5 563.307C164.2 562.107 164.2 560.107 165.5 558.907C166.7 557.607 168.7 557.607 169.9 558.907C171.2 560.107 171.2 562.107 169.9 563.307C169.3 563.907 168.5 564.207 167.6 564.207C166.9 564.207 166.1 563.907 165.5 563.307ZM561.5 558.807C560.2 557.607 560.2 555.607 561.5 554.407C562.7 553.107 564.7 553.107 565.9 554.307C567.1 555.507 567.2 557.507 565.9 558.707C565.3 559.307 564.5 559.707 563.6 559.707C562.9 559.707 562.1 559.407 561.5 558.807ZM156.7 554.207C155.5 552.907 155.6 550.907 156.9 549.807C158.2 548.607 160.2 548.707 161.3 550.007C162.5 551.307 162.4 553.307 161.1 554.407C160.5 554.907 159.7 555.207 159 555.207C158.2 555.207 157.3 554.807 156.7 554.207ZM570.1 549.607C568.8 548.407 568.7 546.507 569.8 545.207C570.9 543.907 572.9 543.807 574.2 544.907C575.5 546.107 575.6 548.007 574.4 549.307C573.8 550.007 572.9 550.407 572.1 550.407C571.5 550.407 570.8 550.107 570.1 549.607ZM148.3 544.607C147.2 543.307 147.3 541.307 148.7 540.207C150 539.107 152 539.207 153.1 540.607C154.2 541.907 154.1 543.907 152.7 545.007C152.1 545.507 151.4 545.707 150.7 545.707C149.8 545.707 148.9 545.407 148.3 544.607ZM578.4 540.107C577.1 539.007 576.8 537.007 577.9 535.707C579 534.407 581 534.107 582.3 535.207C583.6 536.307 583.9 538.307 582.8 539.607C582.2 540.407 581.3 540.807 580.4 540.807C579.7 540.807 579 540.607 578.4 540.107ZM140.2 534.707C139.2 533.307 139.4 531.307 140.8 530.307C142.2 529.207 144.2 529.507 145.2 530.807C146.2 532.207 146 534.207 144.7 535.207C144.1 535.707 143.4 535.907 142.8 535.907C141.8 536.007 140.9 535.507 140.2 534.707ZM586.2 530.207C584.8 529.207 584.5 527.207 585.5 525.807C586.5 524.407 588.5 524.107 589.9 525.107C591.3 526.107 591.6 528.107 590.6 529.507C590 530.307 589.1 530.807 588.1 530.807C587.4 530.807 586.8 530.607 586.2 530.207ZM132.7 524.507C131.7 523.107 132 521.107 133.5 520.107C134.9 519.107 136.9 519.507 137.9 520.907C138.9 522.307 138.6 524.307 137.1 525.307C136.6 525.707 135.9 525.907 135.3 525.907C134.3 525.807 133.3 525.307 132.7 524.507ZM593.6 520.007C592.1 519.007 591.8 517.107 592.7 515.607C593.7 514.207 595.6 513.807 597.1 514.707C598.5 515.707 598.9 517.607 598 519.107C597.4 520.007 596.4 520.507 595.4 520.507C594.7 520.507 594.1 520.407 593.6 520.007ZM125.6 513.907C124.7 512.407 125.1 510.507 126.6 509.507C128.1 508.607 130 509.007 131 510.507C131.9 512.007 131.5 513.907 130 514.907C129.5 515.207 128.9 515.407 128.3 515.407C127.3 515.407 126.3 514.907 125.6 513.907ZM600.4 509.407C598.9 508.507 598.5 506.507 599.4 505.007C600.3 503.507 602.3 503.107 603.7 504.007C605.2 504.907 605.7 506.807 604.8 508.307C604.2 509.307 603.2 509.807 602.1 509.807C601.5 509.907 600.9 509.707 600.4 509.407ZM119.1 503.107C118.3 501.607 118.8 499.707 120.3 498.807C121.8 498.007 123.7 498.507 124.6 500.007C125.5 501.507 125 503.407 123.5 504.307C123 504.607 122.5 504.707 121.9 504.707C120.7 504.607 119.6 504.107 119.1 503.107ZM606.8 498.607C605.3 497.807 604.7 495.807 605.5 494.307C606.3 492.807 608.2 492.207 609.8 493.007C611.3 493.807 611.9 495.707 611.1 497.207C610.5 498.307 609.4 498.907 608.3 498.907C607.8 499.007 607.3 498.807 606.8 498.607ZM113 491.907C112.2 490.407 112.8 488.407 114.4 487.707C116 486.907 117.8 487.507 118.6 489.007C119.4 490.607 118.8 492.407 117.3 493.207C116.8 493.407 116.3 493.507 115.8 493.507C114.7 493.607 113.6 493.007 113 491.907ZM612.7 487.407C611.1 486.607 610.5 484.807 611.2 483.207C612 481.607 613.8 481.007 615.4 481.707C617 482.507 617.6 484.307 616.9 485.907C616.4 487.007 615.2 487.707 614 487.707C613.6 487.807 613.1 487.607 612.7 487.407ZM107.4 480.507C106.6 478.907 107.4 477.107 109 476.307C110.6 475.607 112.4 476.307 113.2 477.807C113.9 479.407 113.2 481.207 111.6 482.007C111.2 482.207 110.7 482.307 110.3 482.307C109.1 482.307 107.9 481.607 107.4 480.507ZM618.1 476.007C616.5 475.307 615.7 473.507 616.5 471.907C617.2 470.307 619 469.507 620.6 470.207C622.2 470.907 622.9 472.807 622.3 474.407C621.8 475.607 620.6 476.307 619.4 476.307C618.9 476.307 618.5 476.207 618.1 476.007ZM102.4 468.807C101.7 467.207 102.5 465.407 104.1 464.707C105.7 464.007 107.5 464.807 108.2 466.407C108.9 468.007 108.1 469.807 106.5 470.507C106.1 470.707 105.7 470.707 105.3 470.707C104 470.807 102.9 470.107 102.4 468.807ZM623 464.407C621.4 463.807 620.6 462.007 621.2 460.307C621.8 458.707 623.6 457.907 625.3 458.507C626.9 459.107 627.7 460.907 627.1 462.507C626.6 463.807 625.4 464.607 624.1 464.607C623.7 464.607 623.3 464.507 623 464.407ZM97.8998 456.907C97.2998 455.307 98.1998 453.507 99.7998 452.907C101.4 452.307 103.2 453.207 103.8 454.807C104.4 456.407 103.5 458.207 101.9 458.807C101.6 458.907 101.2 459.007 100.9 459.007C99.5998 459.007 98.2998 458.207 97.8998 456.907ZM627.3 452.507C625.7 452.007 624.7 450.207 625.3 448.607C625.8 446.907 627.6 446.007 629.3 446.607C630.9 447.107 631.8 448.907 631.3 450.507C630.8 451.807 629.6 452.707 628.3 452.707C628 452.707 627.6 452.607 627.3 452.507ZM93.8998 444.807C93.3998 443.107 94.2998 441.407 95.9998 440.907C97.6998 440.407 99.3998 441.407 99.8998 443.007C100.4 444.707 99.3998 446.407 97.7998 446.907C97.4998 447.007 97.1998 447.007 96.8998 447.007C95.5998 447.107 94.2998 446.207 93.8998 444.807ZM631.1 440.507C629.4 440.007 628.5 438.307 628.9 436.607C629.4 434.907 631.1 434.007 632.8 434.407C634.5 434.907 635.5 436.607 635 438.307C634.6 439.707 633.4 440.607 632 440.607C631.6 440.607 631.4 440.607 631.1 440.507ZM90.4998 432.607C89.9998 430.907 91.0998 429.207 92.7998 428.707C94.4998 428.307 96.1998 429.307 96.5998 431.007C96.9998 432.707 95.9998 434.407 94.2998 434.907C93.9998 434.907 93.7998 435.007 93.4998 435.007C92.0998 434.907 90.7998 434.007 90.4998 432.607ZM634.3 428.407C632.6 428.007 631.5 426.307 631.9 424.607C632.3 422.907 634 421.907 635.6 422.207C637.3 422.607 638.4 424.307 638 426.007C637.7 427.407 636.4 428.407 634.9 428.407C634.8 428.407 634.5 428.407 634.3 428.407ZM87.5998 420.207C87.2998 418.507 88.3998 416.807 90.0998 416.507C91.7998 416.207 93.4998 417.307 93.7998 419.007C94.1998 420.707 93.0998 422.407 91.3998 422.707C91.1998 422.707 90.9998 422.807 90.7998 422.807C89.1998 422.707 87.8998 421.607 87.5998 420.207ZM637 416.107C635.3 415.807 634.1 414.107 634.4 412.507C634.7 410.807 636.3 409.607 638.1 409.907C639.8 410.207 641 411.907 640.7 413.607C640.4 415.107 639.1 416.207 637.6 416.207C637.4 416.107 637.1 416.107 637 416.107ZM85.2998 407.607C84.9998 405.907 86.1998 404.307 87.8998 404.007C89.5998 403.707 91.1998 404.907 91.4998 406.607C91.7998 408.307 90.5998 409.907 88.8998 410.207C88.6998 410.207 88.5998 410.207 88.3998 410.207C86.8998 410.307 85.5998 409.207 85.2998 407.607ZM639.1 403.607C637.4 403.407 636.2 401.807 636.4 400.107C636.7 398.407 638.2 397.207 640 397.407C641.7 397.607 642.9 399.207 642.7 400.907C642.5 402.507 641.1 403.607 639.6 403.607C639.4 403.707 639.2 403.707 639.1 403.607ZM83.5998 395.007C83.3998 393.307 84.5998 391.707 86.3998 391.507C88.0998 391.307 89.6998 392.507 89.8998 394.307C90.0998 396.007 88.8998 397.607 87.0998 397.807C86.9998 397.807 86.7998 397.807 86.6998 397.807C85.1998 397.807 83.7998 396.607 83.5998 395.007ZM640.6 391.107C638.8 391.007 637.6 389.407 637.7 387.707C637.8 386.007 639.4 384.707 641.1 384.807C642.8 385.007 644.1 386.507 644 388.207C643.8 389.807 642.5 391.107 640.9 391.107C640.8 391.207 640.7 391.207 640.6 391.107ZM82.3998 382.407C82.2998 380.707 83.5998 379.207 85.2998 379.007C86.9998 378.907 88.4998 380.207 88.6998 381.907C88.7998 383.607 87.4998 385.107 85.7998 385.307C85.7998 385.307 85.6998 385.307 85.5998 385.307C83.8998 385.307 82.5998 384.007 82.3998 382.407ZM641.6 378.607C639.8 378.607 638.5 377.107 638.6 375.307C638.7 373.607 640.2 372.207 641.9 372.307C643.6 372.307 645 373.807 644.9 375.607C644.8 377.307 643.4 378.607 641.8 378.607C641.7 378.607 641.6 378.607 641.6 378.607ZM81.7998 369.707C81.7998 367.907 83.0998 366.507 84.8998 366.507C86.5998 366.507 87.9998 367.807 88.0998 369.607C88.0998 371.407 86.7998 372.807 84.9998 372.807C84.9998 372.807 84.9998 372.807 84.8998 372.807C83.2998 372.707 81.8998 371.407 81.7998 369.707ZM638.9 362.907C638.9 362.807 638.9 362.707 638.9 362.507C638.9 362.407 638.9 362.207 638.9 362.107C638.9 360.407 640.3 359.007 642 359.007C643.7 359.007 645.1 360.407 645.1 362.107C645.1 362.207 645.1 362.407 645.1 362.507C645.1 362.607 645.1 362.707 645.1 362.907C645.1 364.607 643.7 366.007 642 366.007C640.3 366.007 638.9 364.607 638.9 362.907ZM84.8998 360.107C83.1998 360.107 81.7998 358.607 81.7998 356.907C81.7998 355.107 83.2998 353.807 84.9998 353.807C86.7998 353.807 88.0998 355.307 88.0998 357.007C88.0998 358.707 86.6998 360.107 84.8998 360.107C84.9998 360.107 84.9998 360.107 84.8998 360.107ZM638.6 349.707C638.5 348.007 639.8 346.507 641.6 346.407C643.3 346.307 644.8 347.707 644.9 349.407C645 351.207 643.6 352.607 641.9 352.707C641.9 352.707 641.8 352.707 641.7 352.707C640 352.707 638.6 351.407 638.6 349.707ZM85.2998 347.507C83.5998 347.407 82.1998 345.907 82.3998 344.207C82.4998 342.407 83.9998 341.107 85.7998 341.307C87.4998 341.407 88.7998 342.907 88.6998 344.607C88.5998 346.307 87.1998 347.507 85.5998 347.507C85.4998 347.507 85.3998 347.507 85.2998 347.507ZM637.7 337.307C637.5 335.607 638.8 334.107 640.6 333.907C642.3 333.707 643.9 335.007 644 336.807C644.2 338.507 642.9 340.007 641.2 340.207C641.1 340.207 641 340.207 640.9 340.207C639.2 340.207 637.8 338.907 637.7 337.307ZM86.2998 335.007C84.5998 334.807 83.2998 333.207 83.4998 331.507C83.6998 329.807 85.1998 328.507 86.8998 328.707C88.6998 328.907 89.8998 330.507 89.6998 332.207C89.4998 333.807 88.0998 335.007 86.5998 335.007C86.4998 335.007 86.3998 335.007 86.2998 335.007ZM636.3 324.907C636 323.207 637.3 321.607 639 321.307C640.7 321.107 642.3 322.307 642.6 324.007C642.8 325.707 641.6 327.307 639.9 327.607C639.7 327.607 639.6 327.607 639.4 327.607C637.8 327.607 636.5 326.507 636.3 324.907ZM87.7998 322.507C86.0998 322.207 84.8998 320.707 85.1998 318.907C85.4998 317.207 86.9998 316.007 88.7998 316.307C90.4998 316.607 91.6998 318.207 91.3998 319.907C91.0998 321.507 89.7998 322.507 88.2998 322.507C88.0998 322.507 87.9998 322.507 87.7998 322.507ZM634.3 312.607C634 310.907 635.1 309.207 636.8 308.907C638.5 308.607 640.2 309.707 640.5 311.407C640.8 313.107 639.7 314.807 638 315.107C637.8 315.107 637.6 315.107 637.5 315.107C635.9 315.207 634.6 314.107 634.3 312.607ZM89.8998 310.107C88.1998 309.807 87.0998 308.107 87.4998 306.407C87.7998 304.707 89.4998 303.607 91.1998 304.007C92.8998 304.307 93.9998 306.007 93.6998 307.707C93.3998 309.207 92.0998 310.207 90.5998 310.207C90.2998 310.207 90.0998 310.107 89.8998 310.107ZM631.8 300.507C631.4 298.807 632.4 297.107 634.2 296.707C635.9 296.307 637.6 297.307 638 299.107C638.4 300.807 637.3 302.507 635.7 302.907C635.4 302.907 635.2 303.007 635 303.007C633.4 302.907 632.1 301.907 631.8 300.507ZM92.4998 297.807C90.7998 297.407 89.7998 295.707 90.1998 294.007C90.5998 292.307 92.2998 291.307 93.9998 291.707C95.6998 292.107 96.6998 293.807 96.2998 295.507C95.9998 296.907 94.6998 297.807 93.2998 297.807C93.0998 297.907 92.7998 297.907 92.4998 297.807ZM628.7 288.407C628.2 286.707 629.2 285.007 630.9 284.507C632.6 284.007 634.3 285.007 634.8 286.707C635.3 288.407 634.3 290.107 632.7 290.607C632.4 290.707 632.1 290.707 631.8 290.707C630.3 290.707 629 289.807 628.7 288.407ZM95.7998 285.607C94.0998 285.107 93.1998 283.307 93.6998 281.707C94.1998 280.007 95.9998 279.107 97.5998 279.607C99.2998 280.107 100.2 281.807 99.6998 283.507C99.2998 284.807 98.0998 285.707 96.6998 285.707C96.3998 285.707 96.0998 285.707 95.7998 285.607ZM625 276.507C624.5 274.807 625.4 273.107 627 272.507C628.7 272.007 630.4 272.807 631 274.507C631.5 276.107 630.7 277.907 629 278.407C628.7 278.507 628.4 278.607 628 278.607C626.7 278.707 625.5 277.807 625 276.507ZM99.5998 273.607C97.8998 273.007 97.0998 271.207 97.6998 269.607C98.1998 268.007 99.9998 267.107 101.7 267.707C103.3 268.207 104.2 270.107 103.6 271.707C103.1 273.007 101.9 273.807 100.6 273.807C100.2 273.707 99.8998 273.707 99.5998 273.607ZM620.9 264.807C620.3 263.207 621.1 261.407 622.7 260.707C624.3 260.107 626.1 260.907 626.8 262.507C627.4 264.107 626.6 265.907 625 266.607C624.6 266.707 624.2 266.807 623.9 266.807C622.5 266.807 621.4 266.007 620.9 264.807ZM103.8 261.707C102.2 261.107 101.4 259.207 102.1 257.607C102.7 256.007 104.6 255.207 106.2 255.807C107.8 256.507 108.6 258.307 108 259.907C107.5 261.107 106.3 261.907 105.1 261.907C104.6 262.007 104.2 261.907 103.8 261.707ZM616.2 253.307C615.5 251.707 616.2 249.907 617.8 249.207C619.4 248.507 621.2 249.207 621.9 250.807C622.6 252.407 621.9 254.307 620.3 255.007C619.9 255.207 619.5 255.307 619.1 255.307C617.9 255.207 616.7 254.407 616.2 253.307ZM108.7 250.107C107.1 249.407 106.4 247.507 107.1 245.907C107.8 244.307 109.7 243.607 111.3 244.307C112.9 245.007 113.6 246.907 112.9 248.507C112.4 249.707 111.3 250.407 110 250.407C109.6 250.407 109.1 250.307 108.7 250.107ZM611 242.007C610.2 240.407 610.9 238.507 612.4 237.807C614 237.007 615.8 237.707 616.6 239.307C617.4 240.807 616.7 242.707 615.2 243.507C614.7 243.707 614.3 243.807 613.8 243.807C612.6 243.807 611.5 243.107 611 242.007ZM114.1 238.707C112.5 237.907 111.9 236.007 112.8 234.507C113.6 232.907 115.5 232.407 117 233.207C118.5 234.007 119.1 235.907 118.3 237.407C117.8 238.507 116.6 239.107 115.5 239.107C115 239.007 114.5 238.907 114.1 238.707ZM605.3 231.007C604.5 229.507 605 227.607 606.5 226.707C608.1 225.907 609.9 226.407 610.8 228.007C611.6 229.507 611.1 231.407 609.5 232.207C609 232.507 608.5 232.607 608 232.607C606.9 232.607 605.8 232.007 605.3 231.007ZM119.9 227.507C118.4 226.707 117.9 224.707 118.7 223.207C119.6 221.707 121.5 221.207 123 222.007C124.5 222.907 125 224.807 124.2 226.307C123.6 227.307 122.5 227.907 121.4 227.907C121 227.907 120.4 227.807 119.9 227.507ZM599.1 220.207C598.2 218.707 598.6 216.807 600.1 215.907C601.6 215.007 603.5 215.507 604.4 216.907C605.3 218.407 604.8 220.307 603.4 221.207C602.9 221.507 602.3 221.707 601.8 221.707C600.7 221.707 599.7 221.207 599.1 220.207ZM126.3 216.607C124.8 215.707 124.4 213.707 125.3 212.307C126.2 210.807 128.2 210.407 129.6 211.307C131.1 212.207 131.5 214.207 130.6 215.607C130 216.607 129 217.107 127.9 217.107C127.5 217.207 126.9 217.007 126.3 216.607ZM592.4 209.707C591.4 208.307 591.8 206.307 593.3 205.307C594.7 204.307 596.7 204.707 597.7 206.207C598.7 207.607 598.3 209.607 596.8 210.607C596.3 210.907 595.7 211.107 595.1 211.107C594 211.207 593 210.607 592.4 209.707ZM133.2 206.107C131.8 205.107 131.4 203.207 132.4 201.707C133.4 200.307 135.4 199.907 136.8 200.907C138.2 201.907 138.6 203.907 137.6 205.307C137 206.207 136 206.607 135 206.607C134.4 206.707 133.7 206.507 133.2 206.107ZM585.2 199.607C584.2 198.207 584.4 196.207 585.9 195.207C587.3 194.207 589.3 194.507 590.3 195.907C591.3 197.307 591.1 199.307 589.7 200.307C589.1 200.707 588.5 200.907 587.8 200.907C586.8 200.807 585.8 200.407 585.2 199.607ZM140.5 195.807C139.1 194.807 138.9 192.807 139.9 191.407C140.9 190.007 142.9 189.807 144.3 190.807C145.7 191.907 145.9 193.907 144.9 195.207C144.3 196.007 143.3 196.407 142.4 196.407C141.8 196.507 141.1 196.307 140.5 195.807ZM577.6 189.707C576.5 188.407 576.7 186.407 578.1 185.307C579.4 184.207 581.4 184.407 582.5 185.807C583.6 187.107 583.4 189.107 582 190.207C581.4 190.707 580.7 190.907 580 190.907C579.2 190.907 578.2 190.507 577.6 189.707ZM148.3 185.907C147 184.807 146.8 182.807 147.9 181.507C149 180.207 151 180.007 152.3 181.107C153.6 182.207 153.8 184.207 152.7 185.507C152.1 186.307 151.2 186.607 150.3 186.607C149.6 186.707 148.9 186.407 148.3 185.907ZM569.6 180.207C568.4 178.907 568.6 176.907 569.9 175.807C571.2 174.707 573.2 174.807 574.3 176.107C575.5 177.407 575.3 179.407 574.1 180.507C573.5 181.007 572.8 181.307 572 181.307C571.1 181.307 570.2 180.907 569.6 180.207ZM156.5 176.407C155.2 175.207 155.1 173.307 156.3 172.007C157.5 170.707 159.4 170.707 160.7 171.807C162 173.007 162 174.907 160.9 176.207C160.3 176.907 159.4 177.207 158.6 177.207C157.9 177.307 157.1 177.007 156.5 176.407ZM561.1 171.107C559.9 169.807 559.9 167.907 561.2 166.707C562.4 165.507 564.4 165.507 565.6 166.707C566.8 168.007 566.8 170.007 565.5 171.107C564.9 171.707 564.1 172.007 563.3 172.007C562.5 172.107 561.8 171.807 561.1 171.107ZM165.2 167.307C164 166.007 164 164.107 165.2 162.907C166.5 161.707 168.4 161.707 169.6 162.907C170.9 164.207 170.8 166.107 169.6 167.307C169 167.907 168.2 168.207 167.4 168.207C166.6 168.207 165.8 167.907 165.2 167.307ZM552.3 162.407C551 161.207 551 159.207 552.2 157.907C553.4 156.607 555.3 156.607 556.6 157.807C557.9 159.007 557.9 161.007 556.7 162.207C556.1 162.907 555.2 163.207 554.4 163.207C553.7 163.207 552.9 162.907 552.3 162.407ZM174.2 158.507C173 157.207 173.2 155.207 174.4 154.107C175.7 152.907 177.7 153.007 178.8 154.307C180 155.607 179.9 157.607 178.6 158.707C178 159.207 177.3 159.507 176.5 159.507C175.7 159.607 174.8 159.207 174.2 158.507ZM543 154.107C541.7 153.007 541.5 151.007 542.7 149.707C543.8 148.407 545.8 148.207 547.1 149.407C548.4 150.507 548.6 152.507 547.4 153.807C546.8 154.507 545.9 154.907 545 154.907C544.3 154.807 543.6 154.607 543 154.107ZM183.6 150.207C182.5 148.907 182.7 146.907 184 145.807C185.3 144.707 187.3 144.907 188.4 146.207C189.5 147.507 189.3 149.507 188 150.607C187.4 151.107 186.7 151.307 186 151.307C185.1 151.307 184.3 150.907 183.6 150.207ZM533.4 146.207C532 145.107 531.8 143.107 532.9 141.807C534 140.507 536 140.207 537.3 141.307C538.6 142.307 538.9 144.307 537.8 145.707C537.2 146.507 536.3 146.907 535.3 146.907C534.7 146.807 534 146.607 533.4 146.207ZM193.4 142.307C192.4 140.907 192.6 138.907 194 137.907C195.4 136.907 197.4 137.107 198.4 138.507C199.4 139.907 199.2 141.907 197.8 142.907C197.2 143.407 196.6 143.607 195.9 143.607C195 143.507 194 143.107 193.4 142.307ZM523.4 138.707C522 137.707 521.6 135.707 522.6 134.307C523.6 132.907 525.6 132.507 527 133.607C528.4 134.607 528.7 136.507 527.7 138.007C527.1 138.907 526.1 139.307 525.1 139.307C524.6 139.307 524 139.107 523.4 138.707ZM203.5 134.807C202.5 133.407 202.9 131.407 204.3 130.407C205.7 129.407 207.7 129.807 208.7 131.207C209.7 132.607 209.3 134.607 207.9 135.607C207.4 136.007 206.8 136.107 206.1 136.107C205.1 136.107 204.1 135.707 203.5 134.807ZM513.1 131.707C511.6 130.707 511.3 128.807 512.2 127.307C513.2 125.807 515.1 125.407 516.6 126.407C518.1 127.307 518.4 129.307 517.5 130.707C516.9 131.707 515.9 132.207 514.9 132.207C514.3 132.207 513.7 132.007 513.1 131.707ZM214 127.807C213.1 126.307 213.5 124.407 215 123.507C216.5 122.607 218.4 123.007 219.3 124.507C220.2 126.007 219.8 127.907 218.3 128.807C217.8 129.107 217.2 129.307 216.6 129.307C215.6 129.307 214.6 128.807 214 127.807ZM502.5 125.107C501 124.207 500.5 122.307 501.4 120.807C502.3 119.307 504.2 118.807 505.7 119.707C507.2 120.607 507.7 122.507 506.8 124.007C506.2 125.007 505.2 125.607 504.1 125.607C503.6 125.607 503 125.407 502.5 125.107ZM224.7 121.307C223.8 119.807 224.4 117.907 225.9 117.007C227.4 116.107 229.3 116.707 230.2 118.207C231.1 119.807 230.5 121.607 229 122.507C228.5 122.707 228 122.907 227.4 122.907C226.4 122.907 225.3 122.307 224.7 121.307ZM491.7 119.107C490.1 118.307 489.6 116.407 490.4 114.907C491.2 113.307 493.1 112.807 494.7 113.607C496.2 114.407 496.8 116.307 496 117.807C495.5 118.807 494.4 119.507 493.2 119.507C492.6 119.407 492.1 119.307 491.7 119.107ZM235.7 115.207C234.9 113.707 235.6 111.807 237.1 111.007C238.7 110.207 240.5 110.807 241.3 112.407C242.1 114.007 241.4 115.807 239.9 116.607C239.4 116.807 239 116.907 238.5 116.907C237.4 117.007 236.3 116.407 235.7 115.207ZM480.5 113.507C478.9 112.707 478.2 110.907 479 109.307C479.8 107.707 481.6 107.007 483.2 107.807C484.8 108.607 485.4 110.407 484.7 112.007C484.2 113.107 483 113.807 481.8 113.807C481.4 113.807 480.9 113.707 480.5 113.507ZM247 109.807C246.3 108.207 247 106.407 248.6 105.607C250.2 104.907 252 105.607 252.8 107.207C253.5 108.807 252.8 110.607 251.2 111.407C250.8 111.607 250.3 111.707 249.9 111.707C248.7 111.607 247.6 110.907 247 109.807ZM469.1 108.507C467.5 107.907 466.8 106.007 467.4 104.407C468.1 102.807 469.9 102.007 471.5 102.707C473.1 103.407 473.9 105.207 473.2 106.807C472.7 108.007 471.5 108.707 470.3 108.707C469.9 108.707 469.5 108.607 469.1 108.507ZM258.6 104.807C258 103.207 258.8 101.407 260.4 100.707C262 100.107 263.8 100.807 264.5 102.507C265.2 104.107 264.4 105.907 262.7 106.607C262.3 106.807 261.9 106.807 261.6 106.807C260.2 106.707 259.1 106.007 258.6 104.807ZM457.5 104.007C455.9 103.407 455 101.607 455.6 99.9068C456.2 98.3068 458 97.5068 459.6 98.1068C461.2 98.7068 462.1 100.507 461.5 102.107C461 103.407 459.8 104.207 458.6 104.207C458.2 104.107 457.8 104.107 457.5 104.007ZM270.3 100.307C269.8 98.7068 270.6 96.9068 272.3 96.3068C273.9 95.8068 275.7 96.6068 276.3 98.3068C276.9 99.9068 276 101.707 274.4 102.307C274.1 102.407 273.7 102.507 273.4 102.507C272 102.407 270.8 101.607 270.3 100.307ZM445.6 100.007C444 99.5068 443 97.7068 443.5 96.1068C444 94.4068 445.8 93.5068 447.4 94.0068C449.1 94.5068 450 96.3068 449.5 97.9068C449.1 99.2068 447.9 100.107 446.5 100.107C446.3 100.107 446 100.107 445.6 100.007ZM282.3 96.3068C281.8 94.7068 282.8 92.9068 284.4 92.4068C286.1 91.9068 287.8 92.9068 288.3 94.5068C288.8 96.2068 287.8 97.9068 286.2 98.4068C285.9 98.5068 285.6 98.5068 285.3 98.5068C283.9 98.6068 282.7 97.7068 282.3 96.3068ZM433.7 96.5068C432 96.0068 431 94.3068 431.4 92.6068C431.9 90.9068 433.6 89.9068 435.3 90.4068C437 90.8068 438 92.5068 437.5 94.2068C437.1 95.6068 435.9 96.6068 434.5 96.6068C434.2 96.6068 434 96.6068 433.7 96.5068ZM294.4 93.0068C294 91.3068 295 89.6068 296.7 89.2068C298.4 88.8068 300.1 89.8068 300.5 91.5068C300.9 93.2068 299.9 94.9068 298.2 95.3068C297.9 95.3068 297.7 95.4068 297.4 95.4068C296 95.4068 294.8 94.4068 294.4 93.0068ZM421.6 93.6068C419.9 93.2068 418.8 91.5068 419.2 89.9068C419.6 88.2068 421.3 87.1068 422.9 87.5068C424.6 87.9068 425.7 89.6068 425.3 91.2068C425 92.7068 423.7 93.7068 422.2 93.7068C422 93.7068 421.8 93.7068 421.6 93.6068ZM306.7 90.1068C306.4 88.4068 307.5 86.7068 309.2 86.4068C310.9 86.1068 312.6 87.2068 312.9 88.9068C313.2 90.6068 312.1 92.3068 310.4 92.6068C310.2 92.6068 310 92.7068 309.8 92.7068C308.3 92.7068 307 91.6068 306.7 90.1068ZM409.4 91.3068C407.7 91.0068 406.5 89.4068 406.8 87.7068C407.1 86.0068 408.7 84.8068 410.5 85.1068C412.2 85.4068 413.4 87.0068 413.1 88.7068C412.8 90.2068 411.5 91.3068 410 91.3068C409.7 91.3068 409.5 91.3068 409.4 91.3068ZM319.1 87.9068C318.8 86.2068 320 84.6068 321.7 84.3068C323.4 84.0068 325 85.2068 325.3 86.9068C325.6 88.6068 324.4 90.2068 322.7 90.5068C322.5 90.5068 322.4 90.5068 322.2 90.5068C320.6 90.5068 319.3 89.4068 319.1 87.9068ZM397 89.5068C395.3 89.3068 394.1 87.7068 394.3 86.0068C394.5 84.3068 396.1 83.1068 397.8 83.3068C399.5 83.5068 400.8 85.1068 400.6 86.8068C400.4 88.4068 399.1 89.6068 397.5 89.6068C397.3 89.5068 397.2 89.5068 397 89.5068ZM331.5 86.1068C331.3 84.4068 332.6 82.8068 334.3 82.7068C336 82.5068 337.6 83.8068 337.7 85.5068C337.9 87.2068 336.6 88.8068 334.9 88.9068C334.8 88.9068 334.7 88.9068 334.6 88.9068C333 89.0068 331.7 87.8068 331.5 86.1068ZM384.7 88.3068C383 88.2068 381.7 86.7068 381.8 84.9068C381.9 83.2068 383.4 81.9068 385.2 82.0068C387 82.1068 388.3 83.6068 388.1 85.4068C388 87.0068 386.6 88.3068 385 88.3068C384.8 88.3068 384.8 88.3068 384.7 88.3068ZM344.1 85.0068C344 83.2068 345.3 81.8068 347 81.7068C348.7 81.6068 350.2 82.9068 350.3 84.6068C350.4 86.4068 349.1 87.8068 347.4 87.9068C347.3 87.9068 347.3 87.9068 347.2 87.9068C345.5 88.0068 344.1 86.7068 344.1 85.0068ZM372.2 87.6068C370.4 87.5068 369.1 86.1068 369.1 84.3068C369.2 82.6068 370.6 81.2068 372.4 81.3068C374.1 81.3068 375.5 82.8068 375.4 84.5068C375.4 86.3068 374.1 87.6068 372.2 87.6068C372.3 87.6068 372.3 87.6068 372.2 87.6068ZM356.6 84.4068C356.6 82.6068 358 81.2068 359.7 81.2068C361.5 81.2068 362.9 82.6068 362.9 84.3068C362.9 86.0068 361.6 87.4068 359.8 87.5068C358 87.5068 356.6 86.1068 356.6 84.4068Z" fill="white"/>
<path d="M271.227 350.839H246.395L240.251 396.407H211.579L238.715 225.655H276.859L307.323 396.407H278.651L271.227 350.839ZM267.643 326.007L263.035 297.079C262.267 292.471 260.731 280.951 259.707 270.711C259.195 265.591 259.195 265.335 257.915 252.023C255.867 278.135 255.355 282.999 253.563 297.079L249.467 326.007H267.643ZM365.053 303.223H405.245V396.407H381.181L380.413 386.167C374.525 394.103 366.333 398.199 355.837 398.199C344.573 398.199 334.589 393.079 329.213 384.631C323.069 374.903 321.277 364.151 321.277 338.551V282.487C321.277 253.815 323.325 243.575 330.749 234.871C337.149 227.447 349.181 223.095 363.773 223.095C394.493 223.095 405.245 234.871 405.245 268.151V277.367H378.365V266.871C378.365 254.071 374.269 248.439 365.053 248.439C353.021 248.439 350.717 254.327 350.717 285.815V333.943C350.717 364.919 353.533 372.855 364.285 372.855C375.293 372.855 378.365 366.967 378.365 346.743V328.823H365.053V303.223ZM508.679 225.655V253.047H459.015V296.311H505.863V321.143H459.015V369.015H511.495V396.407H429.575V225.655H508.679Z" fill="white"/>
<path d="M263.336 438.411C267.536 443.227 269.636 450.031 269.636 458.823C269.636 465.319 267.984 471.927 264.68 478.647C261.376 485.367 257.12 491.331 251.912 496.539C246.704 501.691 240.712 505.919 233.936 509.223C227.16 512.471 220.496 514.095 213.944 514.095C212.096 514.095 210.556 513.675 209.324 512.835C208.092 512.051 207.476 510.987 207.476 509.643C207.476 508.803 207.868 507.487 208.652 505.695C211.732 498.695 214.42 489.847 216.716 479.151C219.012 468.399 220.888 461.231 222.344 457.647C215.008 461.959 210.276 464.955 208.148 466.635C203.108 470.443 200.588 474.139 200.588 477.723C200.588 479.347 200.896 480.635 201.512 481.587C202.128 482.539 202.772 483.155 203.444 483.435C204.172 483.715 204.844 484.135 205.46 484.695C206.076 485.255 206.384 485.983 206.384 486.879C206.384 488.895 205.04 489.903 202.352 489.903C199.272 489.903 196.724 488.811 194.708 486.627C192.748 484.443 191.768 481.643 191.768 478.227C191.768 476.547 192.076 474.923 192.692 473.355C193.308 471.731 194.316 470.107 195.716 468.483C197.172 466.859 198.572 465.431 199.916 464.199C201.26 462.967 203.22 461.483 205.796 459.747C208.372 457.955 210.472 456.555 212.096 455.547C213.72 454.483 216.184 452.971 219.488 451.011C222.792 448.995 225.256 447.483 226.88 446.475C227.496 444.907 228.644 443.423 230.324 442.023C232.004 440.567 233.544 439.839 234.944 439.839C236.512 439.839 237.828 440.315 238.892 441.267C239.956 442.219 240.488 443.283 240.488 444.459C240.488 446.307 239.396 447.875 237.212 449.163C235.084 451.683 233.18 456.219 231.5 462.771C229.82 469.267 227.972 476.799 225.956 485.367C223.996 493.879 221.784 500.907 219.32 506.451C225.872 505.667 232.228 502.867 238.388 498.051C244.604 493.179 249.616 487.159 253.424 479.991C257.232 472.767 259.136 465.515 259.136 458.235C259.136 454.987 258.828 451.907 258.212 448.995C257.652 446.027 256.98 444.011 256.196 442.947C255.356 441.827 254.936 441.071 254.936 440.679C254.936 439.503 255.384 438.551 256.28 437.823C257.176 437.095 258.24 436.731 259.472 436.731C260.984 436.731 262.272 437.291 263.336 438.411ZM293.049 467.559C296.801 467.559 299.881 468.455 302.289 470.247C304.753 472.039 305.985 474.391 305.985 477.303C305.985 482.175 303.465 486.263 298.425 489.567C293.385 492.871 287.281 494.523 280.113 494.523C279.273 494.523 278.181 494.467 276.837 494.355V495.531C276.837 499.059 277.733 501.803 279.525 503.763C281.373 505.667 283.977 506.619 287.337 506.619C291.649 506.619 296.101 505.023 300.693 501.831C305.285 498.583 309.065 494.243 312.033 488.811C312.537 487.915 313.265 487.411 314.217 487.299H314.637C315.365 487.299 316.009 487.523 316.569 487.971C317.129 488.363 317.409 488.867 317.409 489.483C317.409 489.875 317.297 490.267 317.073 490.659C313.209 497.715 308.449 503.259 302.793 507.291C297.193 511.267 291.229 513.255 284.901 513.255C279.357 513.255 274.877 511.715 271.461 508.635C268.045 505.555 266.337 501.467 266.337 496.371C266.337 489.147 269.109 482.539 274.653 476.547C280.197 470.555 286.329 467.559 293.049 467.559ZM292.545 474.195C289.689 474.195 286.861 475.595 284.061 478.395C281.317 481.195 279.245 484.723 277.845 488.979C279.077 489.091 280.001 489.147 280.617 489.147C285.209 489.147 288.905 488.195 291.705 486.291C294.505 484.387 295.905 481.811 295.905 478.563C295.905 477.163 295.569 476.099 294.897 475.371C294.225 474.587 293.441 474.195 292.545 474.195ZM322.959 456.639C325.815 456.639 327.243 458.459 327.243 462.099C327.243 464.339 327.019 466.327 326.571 468.063C331.611 471.367 334.887 473.831 336.399 475.455C337.967 477.079 338.751 478.535 338.751 479.823C338.751 480.327 338.723 480.803 338.667 481.251C338.611 481.699 338.443 482.203 338.163 482.763C337.939 483.323 337.743 483.799 337.575 484.191C337.463 484.527 337.155 485.087 336.651 485.871C336.203 486.655 335.839 487.243 335.559 487.635C335.335 488.027 334.859 488.783 334.131 489.903C333.403 490.967 332.871 491.779 332.535 492.339C329.567 496.875 328.083 500.179 328.083 502.251C328.083 505.163 329.483 506.619 332.283 506.619C337.379 506.619 343.231 500.683 349.839 488.811C350.679 487.299 351.855 486.795 353.367 487.299C354.655 487.691 355.271 488.475 355.215 489.651C355.159 489.987 355.047 490.323 354.879 490.659C346.815 505.723 338.163 513.255 328.923 513.255C325.619 513.255 322.959 512.415 320.943 510.735C318.927 509.055 317.919 506.815 317.919 504.015C317.919 500.207 320.075 495.083 324.387 488.643C326.963 485.003 328.251 482.371 328.251 480.747C328.251 479.067 326.823 477.135 323.967 474.951C322.231 480.159 319.935 485.395 317.079 490.659C316.183 492.339 314.979 492.899 313.467 492.339C312.235 491.891 311.647 491.079 311.703 489.903C311.703 489.511 311.815 489.147 312.039 488.811C315.511 482.651 317.947 476.603 319.347 470.667C316.659 468.651 315.315 466.635 315.315 464.619C315.315 462.603 316.071 460.783 317.583 459.159C319.095 457.479 320.887 456.639 322.959 456.639ZM367.327 451.347C369.175 451.347 370.603 451.907 371.611 453.027C372.619 454.147 373.123 455.491 373.123 457.059C373.123 458.683 372.563 460.111 371.443 461.343C370.379 462.519 368.923 463.107 367.075 463.107C365.339 463.107 363.939 462.575 362.875 461.511C361.811 460.447 361.279 459.075 361.279 457.395C361.279 455.659 361.839 454.231 362.959 453.111C364.135 451.935 365.591 451.347 367.327 451.347ZM361.615 466.719C363.015 466.719 364.135 467.167 364.975 468.063C365.871 468.903 366.319 469.911 366.319 471.087C366.319 471.703 366.207 472.375 365.983 473.103C365.815 473.831 365.507 474.643 365.059 475.539C364.611 476.379 364.219 477.107 363.883 477.723C363.547 478.339 363.043 479.179 362.371 480.243C361.755 481.307 361.307 482.091 361.027 482.595C357.835 488.419 356.239 494.103 356.239 499.647C356.239 504.295 357.723 506.619 360.691 506.619C362.819 506.619 365.535 504.995 368.839 501.747C372.143 498.499 375.307 494.187 378.331 488.811C378.835 487.915 379.591 487.383 380.599 487.215H381.019C381.747 487.215 382.363 487.411 382.867 487.803C383.427 488.195 383.707 488.727 383.707 489.399C383.707 489.847 383.595 490.267 383.371 490.659C379.619 497.603 375.447 503.119 370.855 507.207C366.263 511.239 361.755 513.255 357.331 513.255C353.691 513.255 350.835 512.191 348.763 510.063C346.691 507.879 345.655 504.855 345.655 500.991C345.655 493.935 349.099 483.743 355.987 470.415C356.491 469.463 357.275 468.623 358.339 467.895C359.403 467.111 360.495 466.719 361.615 466.719ZM401 442.359C402.456 442.359 403.604 442.779 404.444 443.619C405.34 444.459 405.788 445.523 405.788 446.811C405.788 448.827 404.976 451.655 403.352 455.295C401.728 458.879 399.544 463.079 396.8 467.895C394.056 472.655 392.656 475.091 392.6 475.203C389.128 482.035 386.16 488.839 383.696 495.615C385.544 497.351 386.552 498.387 386.72 498.723C389.296 499.843 391.676 500.403 393.86 500.403C400.804 500.403 406.404 496.539 410.66 488.811C411.388 487.635 412.228 487.047 413.18 487.047C413.908 487.047 414.552 487.327 415.112 487.887C415.672 488.447 415.952 489.063 415.952 489.735C415.952 490.015 415.868 490.323 415.7 490.659C413.012 495.699 409.68 499.563 405.704 502.251C401.784 504.883 397.416 506.199 392.6 506.199C392.04 506.199 391.256 506.143 390.248 506.031C392.32 512.583 393.356 518.799 393.356 524.679C393.356 531.791 391.928 537.391 389.072 541.479C386.272 545.623 382.296 547.695 377.144 547.695C373.28 547.695 370.312 546.379 368.24 543.747C366.112 541.171 365.048 537.503 365.048 532.743C365.048 523.335 368.576 509.307 375.632 490.659C382.688 471.955 389.324 457.087 395.54 446.055C396.884 443.591 398.704 442.359 401 442.359ZM381.176 504.015C379.328 508.943 377.76 514.179 376.472 519.723C375.128 525.267 374.456 529.915 374.456 533.667C374.456 538.595 375.688 541.059 378.152 541.059C380.616 541.059 382.52 539.547 383.864 536.523C385.208 533.555 385.88 529.719 385.88 525.015C385.88 520.815 385.46 516.755 384.62 512.835C383.78 508.915 382.632 505.975 381.176 504.015ZM428.112 451.347C429.96 451.347 431.388 451.907 432.396 453.027C433.404 454.147 433.908 455.491 433.908 457.059C433.908 458.683 433.348 460.111 432.228 461.343C431.164 462.519 429.708 463.107 427.86 463.107C426.124 463.107 424.724 462.575 423.66 461.511C422.596 460.447 422.064 459.075 422.064 457.395C422.064 455.659 422.624 454.231 423.744 453.111C424.92 451.935 426.376 451.347 428.112 451.347ZM422.4 466.719C423.8 466.719 424.92 467.167 425.76 468.063C426.656 468.903 427.104 469.911 427.104 471.087C427.104 471.703 426.992 472.375 426.768 473.103C426.6 473.831 426.292 474.643 425.844 475.539C425.396 476.379 425.004 477.107 424.668 477.723C424.332 478.339 423.828 479.179 423.156 480.243C422.54 481.307 422.092 482.091 421.812 482.595C418.62 488.419 417.024 494.103 417.024 499.647C417.024 504.295 418.508 506.619 421.476 506.619C423.604 506.619 426.32 504.995 429.624 501.747C432.928 498.499 436.092 494.187 439.116 488.811C439.62 487.915 440.376 487.383 441.384 487.215H441.804C442.532 487.215 443.148 487.411 443.652 487.803C444.212 488.195 444.492 488.727 444.492 489.399C444.492 489.847 444.38 490.267 444.156 490.659C440.404 497.603 436.232 503.119 431.64 507.207C427.048 511.239 422.54 513.255 418.116 513.255C414.476 513.255 411.62 512.191 409.548 510.063C407.476 507.879 406.44 504.855 406.44 500.991C406.44 493.935 409.884 483.743 416.772 470.415C417.276 469.463 418.06 468.623 419.124 467.895C420.188 467.111 421.28 466.719 422.4 466.719ZM461.869 467.559C465.621 467.559 468.701 468.455 471.109 470.247C473.573 472.039 474.805 474.391 474.805 477.303C474.805 482.175 472.285 486.263 467.245 489.567C462.205 492.871 456.101 494.523 448.933 494.523C448.093 494.523 447.001 494.467 445.657 494.355V495.531C445.657 499.059 446.553 501.803 448.345 503.763C450.193 505.667 452.797 506.619 456.157 506.619C460.469 506.619 464.921 505.023 469.513 501.831C474.105 498.583 477.885 494.243 480.853 488.811C481.357 487.915 482.085 487.411 483.037 487.299H483.457C484.185 487.299 484.829 487.523 485.389 487.971C485.949 488.363 486.229 488.867 486.229 489.483C486.229 489.875 486.117 490.267 485.893 490.659C482.029 497.715 477.269 503.259 471.613 507.291C466.013 511.267 460.049 513.255 453.721 513.255C448.177 513.255 443.697 511.715 440.281 508.635C436.865 505.555 435.157 501.467 435.157 496.371C435.157 489.147 437.929 482.539 443.473 476.547C449.017 470.555 455.149 467.559 461.869 467.559ZM461.365 474.195C458.509 474.195 455.681 475.595 452.881 478.395C450.137 481.195 448.065 484.723 446.665 488.979C447.897 489.091 448.821 489.147 449.437 489.147C454.029 489.147 457.725 488.195 460.525 486.291C463.325 484.387 464.725 481.811 464.725 478.563C464.725 477.163 464.389 476.099 463.717 475.371C463.045 474.587 462.261 474.195 461.365 474.195ZM533.527 442.359C534.983 442.359 536.131 442.779 536.971 443.619C537.867 444.459 538.315 445.523 538.315 446.811C538.315 448.715 537.615 451.235 536.215 454.371C534.871 457.507 532.743 461.651 529.831 466.803C526.919 471.955 525.351 474.755 525.127 475.203C523.111 479.067 521.347 483.323 519.835 487.971C518.379 492.563 517.651 496.427 517.651 499.563C517.651 501.635 518.043 503.343 518.827 504.687C519.667 505.975 520.927 506.619 522.607 506.619C525.071 506.619 528.011 505.023 531.427 501.831C534.843 498.639 538.035 494.299 541.003 488.811C541.451 487.971 542.207 487.439 543.271 487.215H543.691C544.419 487.215 545.035 487.411 545.539 487.803C546.099 488.195 546.379 488.727 546.379 489.399C546.379 489.847 546.267 490.267 546.043 490.659C542.403 497.547 538.203 503.035 533.443 507.123C528.683 511.211 523.979 513.255 519.331 513.255C516.531 513.255 514.123 512.583 512.107 511.239C510.091 509.839 508.747 507.963 508.075 505.611C503.147 510.707 497.799 513.255 492.031 513.255C487.215 513.255 483.407 511.883 480.607 509.139C477.807 506.339 476.407 502.559 476.407 497.799C476.407 494.215 477.219 490.603 478.843 486.963C480.411 483.267 482.427 480.019 484.891 477.219C487.411 474.363 490.295 472.039 493.543 470.247C496.847 468.455 500.095 467.559 503.287 467.559C506.647 467.559 509.419 468.315 511.603 469.827C513.787 471.339 515.215 473.103 515.887 475.119C522.327 458.375 526.387 448.687 528.067 446.055C529.635 443.591 531.455 442.359 533.527 442.359ZM503.707 474.195C499.843 474.195 496.063 476.659 492.367 481.587C488.727 486.515 486.907 491.611 486.907 496.875C486.907 499.955 487.523 502.363 488.755 504.099C490.043 505.779 491.835 506.619 494.131 506.619C497.435 506.619 500.515 504.939 503.371 501.579C506.283 498.163 508.579 493.515 510.259 487.635C510.315 487.131 510.343 486.067 510.343 484.443C510.343 481.419 509.727 478.955 508.495 477.051C507.263 475.147 505.667 474.195 503.707 474.195Z" fill="white"/>
</svg>
