<svg width="715" height="716" viewBox="0 0 715 716" fill="none" xmlns="http://www.w3.org/2000/svg">
<path d="M447.63 661.907C445.578 661.518 442.72 661.725 442.227 659.102L432.823 668.506C432.823 668.506 432.9 668.558 432.926 668.584C433.81 669.259 434.667 670.013 435.394 670.844C436.589 672.195 438.356 673.52 437.161 675.624C436.356 677.053 434.719 677.079 433.212 676.975C431.082 676.845 429.757 675.728 429.393 673.624C429.315 673.078 429.264 672.533 429.264 672.013C418.508 682.482 405.831 690.328 391.984 695.186C392.244 695.705 392.452 696.251 392.634 696.796C392.971 699.264 390.659 701.602 387.776 701.551C386.269 701.551 384.866 700.875 384.607 699.16C384.529 698.589 384.555 698.017 384.659 697.42C375.93 699.784 366.811 701.031 357.485 701.031C352.705 701.031 347.951 700.693 343.301 700.044C342.314 701.992 340.339 703.317 337.741 703.499C337.3 703.525 336.313 702.512 336.391 702.33C336.858 701.265 337.352 700.2 337.845 699.16C317.764 695.342 299.345 685.678 284.641 670.974L175.766 562.098C174.778 566.904 172.57 571.268 169.92 575.425C169.843 575.555 169.687 575.633 169.505 575.711L223.306 629.512C223.462 628.005 224.319 626.862 225.93 626.317C227.774 625.693 229.307 627.642 229.385 630.603C229.437 632.084 228.736 633.461 227.827 634.032L274.718 680.924C284.278 690.484 295.085 697.991 306.619 703.551C306.827 703.161 307.087 702.823 307.476 702.564C310.776 700.2 314.205 697.965 317.686 695.861C319.972 694.458 323.115 695.42 324.466 697.758C325.557 699.628 325.012 701.369 323.713 702.875C321.843 705.057 319.297 706.746 316.543 707.785C329.714 712.669 343.587 715.163 357.459 715.163C387.438 715.163 417.391 703.759 440.226 680.95L454.489 666.687C452.514 664.687 450.696 662.505 447.604 661.933L447.63 661.907ZM245.076 639.176C244.972 641.073 244.505 642.813 242.998 644.086C242.478 644.528 241.699 644.943 241.102 644.891C239.673 644.788 239.543 643.722 239.984 642.605C240.998 640.008 239.595 636.5 242.972 634.812C245.076 635.591 245.154 637.358 245.102 639.202L245.076 639.176ZM274.12 669.987C273.263 669.753 273.159 669.285 273.886 668.818C274.068 668.688 274.51 668.818 274.744 668.973C274.9 669.077 274.873 669.441 274.925 669.675C274.666 669.779 274.354 670.013 274.12 669.961V669.987ZM300.021 691.964C299.761 691.705 299.397 691.523 299.267 691.211C298.956 690.38 299.267 689.73 300.151 689.548C300.358 689.497 300.67 689.99 300.93 690.25C300.618 690.821 300.332 691.393 300.021 691.964Z" fill="#F25A3E"/>
<path d="M562.169 558.979L672.811 448.336C672.759 447.921 672.811 447.531 672.915 447.115C673.486 445.427 674.396 443.686 676.682 443.79C676.864 443.79 677.046 443.842 677.227 443.894L680.838 440.283C692.113 429.008 700.764 415.811 706.557 401.393C706.479 401.134 706.453 400.874 706.557 400.64C706.765 400.042 707.077 399.575 707.44 399.159C712.402 386.04 715 372.012 715 357.542C715 326.186 702.868 296.804 680.864 274.8L640.104 234.04C640.104 234.04 639.896 234.014 639.792 233.962C639.143 233.676 638.753 233.157 638.597 232.533L599.837 193.773C597.993 193.773 596.123 193.02 594.824 191.617C594.2 190.942 594.2 190.318 594.798 189.617C594.928 189.461 595.084 189.331 595.239 189.175L551.05 144.986C550.842 145.375 550.66 145.791 550.401 146.155C549.595 147.428 548.296 148.337 546.763 147.817C544.841 147.142 544.01 145.401 544.036 143.505C544.062 142.206 544.997 141.011 546.218 140.206L440.226 34.2136C418.846 12.8073 391.153 1.45476 363.07 0.129861C363.226 0.545516 363.278 1.06507 363.174 1.81844C362.784 2.36399 362.057 3.585 361.095 4.59816C358.602 7.22198 356.497 7.68962 355.796 5.92309C354.835 3.53307 355.952 1.71455 357.536 0.129861C357.588 0.0779037 357.64 0.0519569 357.692 0C348.496 0 339.273 1.06515 330.285 3.19538C330.753 4.33843 330.519 5.4295 329.713 6.41668C329.038 7.22202 328.103 7.84552 327.168 8.39107C325.921 9.11847 324.57 9.58603 323.011 8.98853C322.439 7.84547 322.258 6.65048 322.232 5.42949C315.971 7.40385 309.84 9.89782 303.917 12.9373C303.683 13.8465 303.06 14.548 301.839 14.548C301.605 14.548 301.423 14.444 301.189 14.3921C292.72 19.0422 284.719 24.7834 277.393 31.6937C279.211 37.4869 279.445 43.2542 277.341 49.0474C277.237 49.5669 277.029 50.0865 276.743 50.6061C276.639 51.2815 276.406 51.9049 276.068 52.4765C276.068 52.5804 276.068 52.6583 276.068 52.7623L284.667 44.1634C302.332 26.498 325.427 16.0807 350.314 14.3921C350.86 14.0284 351.457 13.7426 352.133 13.5348C353.38 13.1451 354.393 13.4308 355.198 14.1842C355.978 14.1842 356.731 14.1323 357.484 14.1323C369.538 14.1323 381.281 16.1586 392.27 20.0814C392.815 18.3668 393.854 17.1977 396.374 18.081C398.4 18.7824 398.868 20.0034 397.985 22.3415C409.909 27.4073 420.872 34.7592 430.302 44.1634L596.85 210.711C597.525 209.231 599.474 208.036 601.162 208.555C602.955 209.127 604.462 210.218 604.462 212.296C604.332 213.777 602.981 215.076 601.5 215.335L670.94 284.776C690.294 304.13 700.972 330.004 700.972 357.594C700.972 385.183 690.294 411.057 670.94 430.411L447.396 653.982C454.358 650.865 459.268 653.358 460.671 660.58L559.909 561.343C560.012 559.914 560.87 558.979 562.221 559.031L562.169 558.979ZM670.837 275.891C671.018 274.462 672.265 273.553 673.772 273.423C675.019 273.293 675.643 274.073 675.85 275.242C675.85 277.164 674.188 278.749 672.525 278.099C671.746 277.814 670.733 276.567 670.837 275.891ZM675.357 286.075C674.214 286.023 673.331 285.477 672.993 284.282C672.889 282.931 673.72 282.282 674.863 282.074C676.006 281.866 677.072 282.152 677.695 283.217C678.37 284.334 676.916 286.127 675.383 286.075H675.357ZM700.244 319.016C699.829 318.782 699.465 317.821 699.621 317.327C699.933 316.262 700.946 315.872 701.907 316.418C702.323 316.651 702.4 317.535 702.608 318.106C702.089 319.119 701.232 319.561 700.27 319.016H700.244ZM684.112 419.163C685.67 419.007 687.047 419.474 687.359 421.215C687.229 423.033 686.32 424.176 684.683 424.332C683.15 424.462 681.592 423.891 681.462 422.072C681.332 420.384 682.449 419.318 684.112 419.163ZM652.21 453.35C653.275 453.506 654.003 454.311 653.821 456.208C653.665 456.909 653.379 458.416 651.483 458.13C650.366 457.974 649.638 457.065 649.716 455.948C649.82 454.519 650.366 453.09 652.21 453.35Z" fill="#F25A3E"/>
<path d="M172.154 558.458L156.334 542.637C155.217 542.04 154.229 541.052 153.632 539.935L44.1066 430.41C3.94388 390.247 3.94388 324.912 44.1066 284.749L91.4394 237.416C90.2444 236.455 89.0493 235.468 87.9322 234.455C87.5426 234.091 87.4127 232.974 87.6725 232.454C87.9063 231.961 88.7896 231.597 89.413 231.545C90.4781 231.441 91.5952 231.623 94.4529 231.805C94.6087 231.805 95.3622 231.779 96.1415 231.831C96.4273 231.831 96.6869 231.883 96.9727 231.909L102.636 226.245C101.779 225.804 100.947 225.336 100.246 224.713C99.3887 223.959 99.103 222.531 100.636 222.193C101.571 221.985 102.558 221.933 103.519 221.907V216.633C105.831 216.633 107.598 215.386 109.39 214.139C109.806 213.854 110.352 213.542 110.871 213.516C111.001 213.412 111.105 213.308 111.235 213.204V213.152H111.261C113.157 210.061 116.483 210.087 119.444 209.385L143.916 184.914C143.838 183.303 144.383 181.77 146.228 180.679C146.747 180.861 147.215 181.043 147.631 181.199L269.236 59.5936C268.716 58.6584 268.275 57.6712 267.937 56.6061C266.3 54.5538 264.014 53.4627 261.702 52.3456C260.507 51.7741 259.624 50.9168 259.156 49.7997L225.878 83.0782C226.32 82.7404 226.787 82.5066 227.255 82.4287C229.177 82.1429 231.281 84.6369 231.749 87.7023C232.087 90.0664 230.684 92.1186 228.424 92.5083C226.268 92.872 223.696 91.2613 223.384 89.3649C223.098 87.5984 223.748 85.572 224.813 84.1432L205.563 103.419C205.771 103.809 205.875 104.432 206.03 104.874C205.381 105.134 204.731 105.368 204.082 105.627C204.03 105.472 203.926 105.29 203.848 105.108L161.685 147.271C161.088 148.206 160.334 149.115 159.503 149.947C158.983 150.466 158.438 150.83 157.892 151.064L104.481 204.475C104.481 204.475 104.481 204.579 104.481 204.657C104.221 205.904 103.39 206.684 101.987 206.969L40.5736 268.383C41.6906 269.37 41.9244 270.876 41.8725 272.383C41.7945 274.695 40.7813 276.67 39.0408 278.228C38.9109 279.423 38.2354 280.177 37.0664 280.488C36.9884 283.164 35.4038 285.217 34.2088 287.399C33.949 287.866 33.1178 287.996 32.1566 288.49C32.7281 285.71 30.6238 283.138 32.4423 280.514C32.4942 279.164 32.5202 277.839 32.5721 276.488C-11.3834 322.236 -10.8638 395.209 34.2088 440.282L118.509 524.582C119.003 524.556 119.548 524.556 120.197 524.582C121.652 524.634 123.107 525.024 124.562 525.257C124.926 525.128 125.289 524.946 125.653 524.79C125.965 524.66 126.302 524.53 126.614 524.504C129.238 524.296 130.537 525.309 130.095 527.102C129.965 527.674 129.809 528.219 129.628 528.765C129.082 530.479 128.329 532.038 127.446 533.545L165.712 571.811C165.712 566.875 168.491 561.03 172.18 558.432L172.154 558.458ZM126.822 192.655C127.264 192.915 127.368 193.746 127.627 194.344C127.264 195.175 126.64 195.409 125.991 194.786C125.549 194.344 125.367 193.642 125.081 193.071C125.679 192.915 126.432 192.447 126.822 192.655ZM16.7772 304.415C16.959 301.739 19.6089 299.089 21.5573 299.427C23.7135 299.816 26.1036 304.051 25.4801 306.363C24.9085 308.519 21.3755 310.598 19.4531 309.792C17.089 308.779 16.6213 306.649 16.7772 304.389V304.415ZM9.3994 358.917C8.36026 358.969 7.11325 358.736 7.24314 357.567C7.32108 356.787 8.36021 355.826 9.19152 355.488C10.1787 355.073 11.2439 355.748 11.3478 356.917C11.4517 358.138 10.5944 358.762 9.3994 358.917ZM12.4648 327.042C10.9581 326.652 10.1008 325.613 10.0229 323.924C10.3606 321.508 13.0104 318.937 15.0627 319.456C17.2709 320.002 17.2709 322.002 17.0111 323.743C16.6474 326.211 14.621 327.613 12.4648 327.042Z" fill="#F25A3E"/>
<path d="M425.08 409.11L379.735 345.095L421.64 298.975C424.37 295.975 424.05 291.415 420.93 288.785C417.815 286.155 413.08 286.465 410.35 289.465L371.005 332.765L354.36 309.27C352.76 307.01 349.645 306.485 347.385 308.08C345.135 309.675 344.595 312.795 346.195 315.055L411.33 407H393.585L315.67 297H333.42L336.89 301.905C338.485 304.16 341.61 304.69 343.865 303.095C346.115 301.5 346.65 298.38 345.055 296.12L340.085 289.105C339.145 287.79 337.62 287 336 287H306C304.13 287 302.415 288.045 301.555 289.71C300.7 291.37 300.84 293.365 301.92 294.895L347.26 358.905L305.355 405.025C302.625 408.025 302.945 412.585 306.065 415.215C307.485 416.41 309.24 417 310.995 417C313.085 417 315.16 416.165 316.645 414.53L355.99 371.23L386.92 414.895C387.855 416.215 389.38 417 391 417H421C422.87 417 424.585 415.955 425.445 414.295C426.3 412.635 426.16 410.64 425.08 409.11Z" fill="#F25A3E"/>
<path d="M122.362 347.896L127.334 342.924L132.306 347.896L117.39 362.811L112.419 357.839L117.39 352.867L80.9303 316.407L75.9584 321.379L80.9303 326.351L75.9584 331.323L66.0148 321.379L90.874 296.52L100.818 306.464L95.8458 311.435L90.874 306.464L85.9021 311.435L122.362 347.896ZM116.192 271.202L121.164 276.174L116.722 280.615L149.271 300.967L128.92 268.418L124.478 272.859L119.507 267.887L132.765 254.629L137.737 259.601L133.295 264.042L165.844 284.394L145.493 251.845L141.051 256.286L136.079 251.315L149.338 238.056L154.309 243.028L150.597 246.74L182.483 297.718L179.169 301.033L143.703 278.825L165.91 314.291L162.596 317.606L111.651 285.687L107.906 289.432L102.934 284.46L116.192 271.202ZM176.313 211.081L181.285 216.053L176.313 221.025L212.773 257.485L217.745 252.513L222.717 257.485L207.801 272.4L202.829 267.429L207.801 262.457L171.341 225.997L166.369 230.968L161.397 225.997L176.313 211.081ZM244.72 225.538L249.692 220.566L254.664 225.538L239.748 240.453L234.776 235.482L239.748 230.51L203.288 194.05L198.316 199.021L203.288 203.993L198.316 208.965L188.373 199.021L213.232 174.162L223.175 184.106L218.204 189.078L213.232 184.106L208.26 189.078L244.72 225.538ZM281.639 188.619L286.611 183.647L291.583 188.619L276.667 203.534L271.695 198.563L276.667 193.591L240.207 157.131L235.235 162.102L240.207 167.074L235.235 172.046L225.291 162.102L250.151 137.243L260.094 147.187L255.123 152.159L250.151 147.187L245.179 152.159L281.639 188.619ZM323.53 146.728L318.558 141.756L323.53 136.784L333.473 146.728L308.614 171.587L303.642 166.616L308.614 161.644L272.154 125.183L267.182 130.155L262.21 125.183L287.07 100.324L297.013 110.268L292.041 115.24L287.07 110.268L277.126 120.212L292.041 135.127L300.328 126.841L295.356 121.869L300.328 116.897L315.243 131.813L310.272 136.784L305.3 131.813L297.013 140.099L313.586 156.672L323.53 146.728ZM333.932 103.18L338.904 98.2083C342.219 94.8937 342.219 91.5791 338.904 88.2646L328.96 78.3209C325.646 75.0063 322.331 75.0063 319.017 78.3209L314.045 83.2927L333.932 103.18ZM350.505 119.753L353.82 116.438L358.791 121.41L345.533 134.668L340.561 129.697L345.533 124.725L309.073 88.2646L304.101 93.2364L299.129 88.2646L314.045 73.349C320.674 66.7199 327.303 66.7199 333.932 73.349L343.876 83.2927C348.384 87.8005 349.831 92.2973 348.218 96.783L366.216 104.042L368.735 101.523L373.707 106.495L362.106 118.096L357.134 113.124L360.78 109.478L344.24 102.816L338.904 108.152L350.505 119.753Z" fill="#F25A3E"/>
<path d="M351.273 591.727L356.245 596.699L351.803 601.141L384.352 621.492L364.001 588.943L359.559 593.385L354.588 588.413L367.846 575.155L372.818 580.127L369.105 583.839L400.991 634.817L397.677 638.131L346.732 606.212L342.987 609.958L338.015 604.986L351.273 591.727ZM441.225 584.64L436.253 579.668L441.225 574.696L451.169 584.64L426.309 609.499L421.338 604.527L426.309 599.555L389.849 563.095L384.877 568.067L379.906 563.095L404.765 538.236L414.708 548.179L409.737 553.151L404.765 548.179L394.821 558.123L409.737 573.039L418.023 564.752L413.051 559.78L418.023 554.809L432.939 569.724L427.967 574.696L422.995 569.724L414.708 578.01L431.281 594.583L441.225 584.64ZM451.627 541.092L456.599 536.12C459.914 532.805 459.914 529.491 456.599 526.176L446.656 516.232C443.341 512.918 440.026 512.918 436.712 516.232L431.74 521.204L451.627 541.092ZM468.2 557.664L471.515 554.35L476.487 559.322L463.228 572.58L458.256 567.608L463.228 562.636L426.768 526.176L421.796 531.148L416.824 526.176L431.74 511.26C438.369 504.631 444.998 504.631 451.627 511.26L461.571 521.204C466.079 525.712 467.526 530.209 465.913 534.694L483.911 541.953L486.43 539.434L491.402 544.406L479.801 556.007L474.829 551.035L478.475 547.389L461.936 540.727L456.599 546.063L468.2 557.664ZM471.973 471.027L476.945 475.999L471.973 480.971L508.434 517.431L513.406 512.459L518.377 517.431L503.462 532.346L498.49 527.375L503.462 522.403L467.002 485.943L462.03 490.914L457.058 485.943L471.973 471.027ZM535.409 490.456L540.381 485.484L545.353 490.456L530.437 505.371L525.465 500.399L530.437 495.427L493.977 458.967L489.005 463.939L484.033 458.967L508.892 434.108L518.836 444.052L513.864 449.024L508.892 444.052L498.949 453.995L513.864 468.911L522.151 460.625L517.179 455.653L522.151 450.681L537.066 465.596L532.094 470.568L527.123 465.596L518.836 473.883L535.409 490.456ZM535.868 407.133L540.839 412.105L535.868 417.077L572.328 453.537L577.3 448.565L582.272 453.537L567.356 468.452L562.384 463.48L567.356 458.509L530.896 422.048L525.924 427.02L520.952 422.048L535.868 407.133ZM609.247 416.618L604.275 411.646L609.247 406.674L619.19 416.618L594.331 441.477L589.359 436.505L594.331 431.533L557.871 395.073L552.899 400.045L547.927 395.073L572.787 370.214L582.73 380.158L577.758 385.129L572.787 380.158L562.843 390.101L577.758 405.017L586.045 396.73L581.073 391.759L586.045 386.787L600.96 401.702L595.989 406.674L591.017 401.702L582.73 409.989L599.303 426.561L609.247 416.618ZM631.25 394.614L594.79 358.154L589.818 363.126L584.846 358.154L599.762 343.239C606.391 336.61 613.02 336.61 619.649 343.239L646.166 369.755C652.795 376.384 652.795 383.013 646.166 389.643L631.25 404.558L626.278 399.586L631.25 394.614ZM599.762 353.182L636.222 389.643L641.194 384.671C644.508 381.356 644.508 378.042 641.194 374.727L614.677 348.211C611.363 344.896 608.048 344.896 604.734 348.211L599.762 353.182Z" fill="#F25A3E"/>
</svg>
