<svg xmlns="http://www.w3.org/2000/svg" xml:space="preserve" width="1500" height="1500" data-id="lg_IWrNdqkQfhqUh1qpQK" data-version="1" viewBox="0 0 1500 1500"><path fill="#fff" stroke="transparent" d="M0 0h1500v1500H0z"/><g data-padding="20"><g transform="translate(-555.115 -549.055)scale(1.68008)"><rect width="359.97" height="92.391" x="360.841" y="422.89" fill="none" rx="0" ry="0" transform="translate(191.47 459.26)scale(1.06)"/><path d="M626.175 995.08h-29.84v-2.42l31.05-49.79h-22.72q-2.26 0-2.43 1.91l-1.3 10.15h-2v-4.08q0-7.63-.78-11.19 2.78.78 9.63.78h28.02v2.43l-31.14 49.79h24.63q2.26 0 2.43-1.91l1.3-10.15h2v4.08q0 7.63.78 11.19-2.78-.79-9.63-.79m49.01 0h-28.71v-1.56h4.07q1.22 0 1.22-1.21v-49.27q0-1.04-1.22-1.04h-4.07v-1.56h27.49q6.85 0 9.63-.78-.78 3.56-.78 9.89v4.07h-2l-1.3-8.84q-.17-1.91-2.42-1.91h-18.22v23.68h17.43q1.05 0 1.22-1.22l.43-5.37h1.56v15.61h-1.56l-.43-5.38q-.17-1.21-1.22-1.21h-17.43v23.68h19.43q2.25 0 2.43-1.91l1.3-10.15h1.99v4.08q0 7.63.78 11.19-2.77-.79-9.62-.79m26.44-2.77v-49.27q0-1.04-1.21-1.04h-4.08v-1.56h17.7V942h-4.08q-1.22 0-1.22 1.04v49.27q0 1.21 1.22 1.21h4.08v1.56h-17.7v-1.56h4.08q1.21 0 1.21-1.21m27.41-12.4 2 7.98q1.3 5.37 4.16 5.37 1.47 0 2.3-1.08.82-1.09.82-2.6 0-1.52-.26-2.82l1.65-.26q.35 1.3.35 2.86 0 3.12-1.87 4.94-1.86 1.83-4.81 1.83-7.29 0-9.54-9.29l-2-7.98q-1.47-5.63-4.08-7.85-2.6-2.21-7.37-2.21v-1.91l20.47-24.89h-4.33v-1.56h11.79V942h-2.34q-1.39 0-2.43 1.22l-19.43 23.5q6.68.09 10.06 3.64 3.39 3.56 4.86 9.55m37.57 16.22q-5.73 0-11.45-3.13-1.91-.95-2.6-.95-1.3 0-1.39 1.82l-.09 1.21h-1.65V980.6h1.56q.79 6.68 4.99 9.84 4.21 3.17 9.98 3.17t8.76-3.12q2.99-3.13 2.99-7.38 0-6.76-7.81-10.23l-10.32-4.6q-4.68-2.08-7.02-5.68-2.35-3.6-2.35-7.76 0-6.33 4.25-10.89 4.25-4.55 12.23-4.55 4.69 0 9.63 3.12 1.65.96 2.26.96 1.12 0 1.21-1.83l.09-1.73h1.65v15.01h-1.56q-.7-6.68-4.3-9.85t-8.76-3.17-7.98 2.82-2.82 6.42 1.95 6.46q1.96 2.87 5.77 4.51l10.41 4.6q5.2 2.34 7.85 6.12 2.65 3.77 2.65 8.11 0 6.15-4.95 10.66-4.94 4.52-13.18 4.52m67.38-3.82v-23.33h-25.32v23.33q0 1.21 1.21 1.21h4.08v1.56h-17.7v-1.56h4.08q1.21 0 1.21-1.21v-49.27q0-1.04-1.21-1.04h-4.08v-1.56h17.7V942h-4.08q-1.21 0-1.21 1.22v23.33h25.32v-23.33q0-1.22-1.21-1.22h-4.08v-1.56h17.7V942h-4.08q-1.22 0-1.22 1.04v49.27q0 1.21 1.22 1.21h4.08v1.56h-17.7v-1.56h4.08q1.21 0 1.21-1.21m30.4-3.73q-6.89-7.55-6.89-20.82t6.89-20.81q6.9-7.55 17.96-7.55t17.95 7.55q6.9 7.54 6.9 20.81t-6.9 20.82q-6.89 7.55-17.95 7.55t-17.96-7.55m5.47-39.9q-4.99 7.03-4.99 19.08 0 12.06 4.99 19.08 4.99 7.03 12.44 7.03 7.46 0 12.5-7.03 5.03-7.02 5.03-19.08 0-12.05-5.03-19.08-5.04-7.03-12.5-7.03-7.45 0-12.44 7.03m52.52-6.68h-4.08v-1.56h21.16q7.38 0 12.45 4.47 5.08 4.46 5.08 12.01t-5.08 12.01q-5.07 4.47-12.45 4.47h-8.76v18.91q0 1.21 1.22 1.21h5.81v1.56h-19.43v-1.56h4.08q1.21 0 1.21-1.21v-49.27q0-1.04-1.21-1.04m16.65.87h-8.33v28.1h8.33q5.12 0 8.07-4.21 2.95-4.2 2.95-9.84t-2.95-9.84q-2.95-4.21-8.07-4.21"/><rect width="286.125" height="28.25" x="397.763" y="454.961" fill="none" rx="0" ry="0" transform="translate(203.54 544.49)scale(1.06)"/><path d="M977.283 710.635c6.312-2.567 10.68-8.848 10.471-16.058s-4.93-13.23-11.38-15.425c5.834-3.523 9.164-10.41 7.83-17.498s-6.94-12.296-13.655-13.455c5.212-4.39 7.424-11.714 4.997-18.508s-8.778-11.058-15.59-11.154c4.46-5.151 5.5-12.73 2.04-19.06s-10.399-9.55-17.143-8.577c3.6-5.785 3.44-13.435-.967-19.146s-11.765-7.805-18.274-5.79c2.65-6.278 1.296-13.806-3.95-18.76-5.246-4.951-12.842-5.867-18.955-2.86 1.635-6.613-.88-13.838-6.836-17.908s-13.6-3.788-19.168.139c.58-6.79-3.034-13.53-9.554-16.62-6.52-3.087-14.026-1.611-18.91 3.138-.488-6.797-5.113-12.89-12.036-14.92-6.924-2.03-14.106.6-18.188 6.057-1.546-6.637-7.066-11.932-14.222-12.854-7.154-.923-13.838 2.8-17.014 8.826-2.567-6.311-8.848-10.678-16.058-10.47-7.21.21-13.229 4.93-15.427 11.38-3.52-5.834-10.407-9.164-17.496-7.83-7.09 1.335-12.297 6.94-13.455 13.656-4.39-5.212-11.713-7.425-18.508-5-6.794 2.428-11.058 8.779-11.154 15.59-5.15-4.46-12.73-5.497-19.06-2.038s-9.55 10.399-8.577 17.143c-5.786-3.6-13.435-3.44-19.146.968s-7.804 11.763-5.79 18.273c-6.278-2.65-13.806-1.296-18.758 3.95-4.953 5.247-5.869 12.84-2.86 18.955-6.615-1.636-13.84.88-17.91 6.836s-3.788 13.6.14 19.168c-6.789-.58-13.53 3.034-16.62 9.554-3.087 6.52-1.612 14.027 3.14 18.912-6.798.487-12.893 5.112-14.923 12.034s.6 14.105 6.056 18.187c-6.636 1.547-11.93 7.068-12.853 14.222-.922 7.155 2.8 13.838 8.828 17.016-6.313 2.564-10.68 8.845-10.47 16.057s4.93 13.23 11.38 15.426c-5.835 3.52-9.166 10.407-7.83 17.497s6.94 12.297 13.653 13.456c-5.21 4.39-7.423 11.713-4.998 18.507 2.426 6.793 8.777 11.059 15.59 11.154-4.46 5.15-5.498 12.73-2.039 19.06s10.4 9.55 17.143 8.577c-3.6 5.786-3.44 13.434.968 19.146 4.407 5.71 11.763 7.804 18.272 5.79-2.649 6.278-1.295 13.806 3.951 18.758s12.841 5.869 18.955 2.86c-1.635 6.615.88 13.84 6.836 17.91s13.6 3.788 19.168-.14c-.58 6.789 3.034 13.53 9.554 16.62 6.52 3.087 14.027 1.612 18.912-3.138.488 6.797 5.112 12.89 12.034 14.92s14.105-.6 18.187-6.055c1.547 6.636 7.068 11.93 14.222 12.853 7.155.922 13.838-2.8 17.016-8.828 2.564 6.313 8.845 10.68 16.057 10.472s13.23-4.931 15.426-11.381c3.52 5.834 10.407 9.165 17.497 7.83s12.296-6.94 13.456-13.653c4.39 5.21 11.713 7.423 18.507 4.996 6.793-2.426 11.058-8.778 11.154-15.59 5.15 4.46 12.73 5.499 19.06 2.04s9.55-10.4 8.577-17.143c5.785 3.6 13.434 3.44 19.146-.967 5.71-4.408 7.805-11.764 5.791-18.273 6.277 2.649 13.805 1.295 18.757-3.951s5.87-12.842 2.86-18.955c6.615 1.635 13.84-.88 17.91-6.836s3.788-13.6-.14-19.168c6.79.58 13.53-3.034 16.62-9.554 3.087-6.52 1.612-14.026-3.137-18.911 6.796-.49 12.89-5.112 14.92-12.035 2.03-6.924-.6-14.104-6.056-18.188 6.635-1.546 11.93-7.066 12.853-14.222.922-7.155-2.8-13.838-8.827-17.014m-17.902 28.327c-5.707 1.33-10.55 5.614-12.317 11.639s-.003 12.245 4.08 16.448c-5.845.424-11.299 3.896-13.986 9.57s-1.92 12.094 1.456 16.884c-5.839-.497-11.77 2.08-15.31 7.265-3.543 5.182-3.789 11.643-1.206 16.902-5.689-1.402-11.949.215-16.258 4.78-4.308 4.567-5.562 10.908-3.834 16.507-5.4-2.276-11.835-1.656-16.805 2.178-4.97 3.835-7.2 9.904-6.369 15.703-4.976-3.091-11.43-3.487-16.939-.476-5.509 3.01-8.66 8.654-8.746 14.514-4.432-3.833-10.745-5.234-16.656-3.123s-9.909 7.194-10.91 12.968c-3.777-4.48-9.793-6.85-15.962-5.69s-10.912 5.557-12.804 11.102c-3.03-5.015-8.602-8.297-14.876-8.116-6.275.18-11.646 3.78-14.383 8.96-2.21-5.427-7.198-9.54-13.423-10.342-6.227-.802-12.096 1.912-15.61 6.602-1.33-5.707-5.614-10.55-11.638-12.317s-12.245-.003-16.449 4.079c-.423-5.844-3.896-11.298-9.57-13.986-5.673-2.687-12.093-1.92-16.883 1.457.497-5.84-2.08-11.77-7.264-15.311-5.183-3.542-11.644-3.788-16.903-1.205 1.402-5.69-.215-11.95-4.78-16.258s-10.909-5.562-16.508-3.834c2.276-5.4 1.657-11.835-2.177-16.805s-9.903-7.2-15.703-6.37c3.09-4.975 3.487-11.43.477-16.938s-8.656-8.66-14.514-8.746c3.832-4.433 5.234-10.745 3.122-16.656s-7.196-9.908-12.968-10.91c4.48-3.777 6.85-9.793 5.69-15.962s-5.557-10.912-11.102-12.804c5.015-3.032 8.297-8.602 8.117-14.876-.18-6.275-3.78-11.646-8.96-14.383 5.425-2.21 9.54-7.198 10.341-13.423.803-6.227-1.912-12.097-6.602-15.61 5.707-1.33 10.55-5.614 12.317-11.638s.003-12.245-4.078-16.45c5.844-.422 11.297-3.896 13.984-9.57 2.688-5.671 1.92-12.092-1.455-16.882 5.84.496 11.77-2.082 15.31-7.264s3.788-11.644 1.204-16.903c5.69 1.402 11.95-.215 16.258-4.78 4.31-4.565 5.563-10.908 3.835-16.507 5.4 2.275 11.835 1.656 16.805-2.18s7.2-9.902 6.37-15.702c4.975 3.092 11.43 3.488 16.937.478 5.51-3.01 8.66-8.656 8.747-14.514 4.433 3.832 10.744 5.234 16.656 3.122s9.91-7.196 10.91-12.97c3.777 4.48 9.793 6.85 15.963 5.69s10.912-5.555 12.804-11.1c3.03 5.015 8.6 8.297 14.875 8.117 6.274-.18 11.646-3.78 14.383-8.961 2.21 5.426 7.198 9.54 13.423 10.342 6.227.803 12.097-1.912 15.61-6.602 1.33 5.707 5.613 10.55 11.638 12.317s12.245.003 16.448-4.078c.424 5.844 3.898 11.297 9.57 13.984 5.673 2.688 12.094 1.92 16.884-1.455-.496 5.839 2.081 11.769 7.263 15.31s11.645 3.788 16.904 1.205c-1.402 5.688.216 11.949 4.78 16.257 4.566 4.309 10.908 5.563 16.507 3.835-2.276 5.4-1.656 11.835 2.178 16.805 3.835 4.968 9.904 7.2 15.703 6.369-3.09 4.977-3.487 11.43-.476 16.938 3.01 5.508 8.655 8.66 14.514 8.747-3.833 4.43-5.234 10.744-3.123 16.656s7.195 9.909 12.97 10.91c-4.48 3.777-6.852 9.793-5.69 15.963 1.16 6.169 5.554 10.91 11.1 12.803-5.015 3.03-8.297 8.602-8.116 14.876s3.78 11.646 8.96 14.383c-5.427 2.21-9.54 7.198-10.342 13.423-.802 6.227 1.912 12.095 6.602 15.609"/><path d="M751.37 763.223v-18.564l-11.01 5.369Zm9.1-1.456v64.064h36.4v-64.064a36.4 36.4 0 0 1-36.4 0m-68.25 36.764h27.3v9.1h-27.3Zm9.1 18.2h18.2v9.1h-18.2Zm85.95-81.9h-17.2a54.6 54.6 0 0 1-9.6-.91v16.698a27.164 27.164 0 0 0 36.4 0v-15.834q-2.275 0-4.55-.227-2.502.273-5.05.273m-52.144-25.162a45.5 45.5 0 0 0 31.805 15.925 54.6 54.6 0 0 1-24.66-45.91v-49.503a63.7 63.7 0 0 1 30.484-54.281 54.6 54.6 0 0 0-48.685 54.28v49.55a45.5 45.5 0 0 0 2.867 15.925 45.5 45.5 0 0 0 8.19 14.014M714.97 666.58v-18.2a9.1 9.1 0 0 0 0 18.2"/><path d="M701.32 762.086v27.3h18.2v-22.75h9.1v59.15h22.75v-48.412l-21.703-26.026a4.55 4.55 0 0 1 1.501-7.007l20.202-9.874v-3.003a54.6 54.6 0 0 1-16.607-9.555 40.95 40.95 0 0 0-33.443 40.177m136.5 27.345h18.2v-27.3a40.95 40.95 0 0 0-16.926-33.124 54.6 54.6 0 0 1-24.525 5.824h-7.962l19.565 9.555a4.55 4.55 0 0 1 1.501 7.007l-21.703 26.026v48.412h22.75v-59.15h9.1Z"/><path d="M805.97 744.659v18.564l11.011-13.195Zm31.85 72.072h18.2v9.1h-18.2Zm0-18.2h27.3v9.1h-27.3Zm11.693-88.862a45.5 45.5 0 0 0 11.057-29.938v-49.55c0-30.153-24.447-54.6-54.6-54.6s-54.6 24.447-54.6 54.6v49.55a45.955 45.955 0 0 0 45.955 46h17.29a45.96 45.96 0 0 0 34.853-16.061m-38.948-6.69h-9.1v-9.1h9.1Zm0-18.2h-9.1v-18.2a4.55 4.55 0 0 1 4.55-4.55 22.75 22.75 0 1 0-19.7-11.374l-7.873 4.55a31.85 31.85 0 1 1 32.123 15.607Z"/></g><path fill="transparent" stroke="transparent" stroke-width="1.764" d="M377.866 250h744.268v1000H377.866z"/></g></svg>