<svg id="V6WnbKMrk" viewBox="0 0 250 236.34115630907834" height="236.34115630907834" width="250" style="width: 120px; height: 106.341px;"><defs id="SvgjsDefs1041"><linearGradient id="SvgjsLinearGradient1046"><stop id="SvgjsStop1047" stop-color="#905e26" offset="0"></stop><stop id="SvgjsStop1048" stop-color="#f5ec9b" offset="0.5"></stop><stop id="SvgjsStop1049" stop-color="#905e26" offset="1"></stop></linearGradient><linearGradient id="SvgjsLinearGradient1050"><stop id="SvgjsStop1051" stop-color="#905e26" offset="0"></stop><stop id="SvgjsStop1052" stop-color="#f5ec9b" offset="0.5"></stop><stop id="SvgjsStop1053" stop-color="#905e26" offset="1"></stop></linearGradient></defs><g id="SvgjsG1042" featurekey="7KWit6-0" transform="matrix(31.44654257803673,0,0,31.44654257803673,48.96226246048287,0.8867918799126038)" fill="url(#SvgjsLinearGradient1046)"><g xmlns="http://www.w3.org/2000/svg"><g><circle fill="url(#SvgjsLinearGradient1046)" cx="1.033" cy="1.554" r="0.144"></circle></g><g><circle fill="url(#SvgjsLinearGradient1046)" cx="0.972" cy="2.041" r="0.144"></circle></g><g><circle fill="url(#SvgjsLinearGradient1046)" cx="1.21" cy="1.131" r="0.144"></circle></g><g><circle fill="url(#SvgjsLinearGradient1046)" cx="3.04" cy="1.393" r="0.144"></circle></g><g><circle fill="url(#SvgjsLinearGradient1046)" cx="3.864" cy="1.675" r="0.144"></circle></g><g><circle fill="url(#SvgjsLinearGradient1046)" cx="3.805" cy="2.256" r="0.144"></circle></g><g><circle fill="url(#SvgjsLinearGradient1046)" cx="3.438" cy="3.139" r="0.144"></circle></g><g><circle fill="url(#SvgjsLinearGradient1046)" cx="3.226" cy="0.752" r="0.144"></circle></g><g><circle fill="url(#SvgjsLinearGradient1046)" cx="3.592" cy="1.195" r="0.144"></circle></g><g><circle fill="url(#SvgjsLinearGradient1046)" cx="2.271" cy="1.662" r="0.144"></circle></g><g><circle fill="url(#SvgjsLinearGradient1046)" cx="2.854" cy="0.561" r="0.144"></circle></g><g><circle fill="url(#SvgjsLinearGradient1046)" cx="1.61" cy="0.752" r="0.144"></circle></g><g><path fill="url(#SvgjsLinearGradient1046)" d="M1.818,4.254c-0.036,0-0.064-0.028-0.064-0.063V2.419l-0.69-0.744C1.04,1.649,1.041,1.608,1.066,1.584    C1.093,1.56,1.133,1.561,1.157,1.588l0.708,0.763c0.011,0.011,0.017,0.027,0.017,0.042v1.797C1.882,4.227,1.854,4.254,1.818,4.254    z"></path></g><g><path fill="url(#SvgjsLinearGradient1046)" d="M2.201,4.583c-0.036,0-0.064-0.029-0.064-0.065V2.149L1.165,1.177c-0.025-0.024-0.025-0.066,0-0.09    c0.025-0.025,0.065-0.025,0.09,0l0.991,0.991C2.258,2.09,2.265,2.106,2.265,2.123v2.395C2.265,4.553,2.236,4.583,2.201,4.583z"></path></g><g><path fill="url(#SvgjsLinearGradient1046)" d="M2.628,4.583c-0.036,0-0.064-0.029-0.064-0.065V1.319c0-0.017,0.006-0.034,0.019-0.045l0.481-0.481    c0.025-0.024,0.065-0.024,0.09,0c0.025,0.025,0.025,0.066,0,0.09L2.692,1.346v3.172C2.692,4.553,2.664,4.583,2.628,4.583z"></path></g><g><path fill="url(#SvgjsLinearGradient1046)" d="M3.036,4.254C3,4.254,2.971,4.227,2.971,4.191v-1.68c0-0.017,0.008-0.033,0.019-0.044l0.833-0.833    c0.026-0.026,0.066-0.026,0.091,0c0.025,0.024,0.025,0.065,0,0.09L3.1,2.538v1.653C3.1,4.227,3.072,4.254,3.036,4.254z"></path></g><g><path fill="url(#SvgjsLinearGradient1046)" d="M3.593,2.019c-0.017,0-0.033-0.005-0.045-0.017L3.019,1.473c-0.025-0.026-0.025-0.066,0-0.091    c0.024-0.025,0.065-0.025,0.091,0L3.638,1.91c0.024,0.026,0.024,0.065,0,0.092C3.625,2.014,3.608,2.019,3.593,2.019z"></path></g><g><path fill="url(#SvgjsLinearGradient1046)" d="M1.77,1.727c-0.017,0-0.033-0.006-0.046-0.019c-0.025-0.027-0.025-0.066,0-0.092l1.092-1.092    c0.025-0.026,0.066-0.026,0.091,0c0.025,0.025,0.025,0.065,0,0.09L1.815,1.708C1.802,1.72,1.786,1.727,1.77,1.727z"></path></g><g><path fill="url(#SvgjsLinearGradient1046)" d="M2.126,1.369c-0.016,0-0.032-0.006-0.044-0.019L1.634,0.902c-0.025-0.024-0.025-0.066,0-0.09    c0.024-0.024,0.065-0.024,0.09,0L2.172,1.26c0.024,0.024,0.024,0.066,0,0.09C2.159,1.363,2.143,1.369,2.126,1.369z"></path></g><g><circle fill="url(#SvgjsLinearGradient1046)" cx="2.129" cy="0.587" r="0.144"></circle></g><g><path fill="url(#SvgjsLinearGradient1046)" d="M2.469,1.026c-0.016,0-0.032-0.006-0.045-0.019L2.153,0.736c-0.025-0.024-0.025-0.064,0-0.089    c0.025-0.025,0.066-0.025,0.091,0l0.271,0.271c0.025,0.024,0.025,0.066,0,0.09C2.502,1.02,2.485,1.026,2.469,1.026z"></path></g><g><path fill="url(#SvgjsLinearGradient1046)" d="M2.62,2.07c-0.017,0-0.033-0.006-0.045-0.02L2.271,1.747c-0.025-0.024-0.025-0.064,0-0.089    c0.024-0.025,0.065-0.025,0.091,0l0.303,0.304c0.025,0.024,0.025,0.065,0,0.089C2.652,2.064,2.636,2.07,2.62,2.07z"></path></g><g><circle fill="url(#SvgjsLinearGradient1046)" cx="3.031" cy="1.966" r="0.144"></circle></g><g><path fill="url(#SvgjsLinearGradient1046)" d="M3.301,2.296c-0.016,0-0.033-0.007-0.045-0.02L3.031,2.052c-0.025-0.026-0.025-0.065,0-0.091    c0.025-0.025,0.066-0.025,0.091,0l0.225,0.224c0.026,0.026,0.026,0.066,0,0.091C3.334,2.289,3.318,2.296,3.301,2.296z"></path></g><g><path fill="url(#SvgjsLinearGradient1046)" d="M3.219,1.647c-0.017,0-0.033-0.006-0.045-0.02c-0.025-0.024-0.025-0.065,0-0.091L3.521,1.19    c0.026-0.026,0.066-0.026,0.091,0c0.025,0.025,0.025,0.065,0,0.09L3.265,1.627C3.252,1.641,3.235,1.647,3.219,1.647z"></path></g><g><path fill="url(#SvgjsLinearGradient1046)" d="M1.817,2.951c-0.016,0-0.032-0.006-0.045-0.019L0.926,2.085c-0.025-0.024-0.025-0.064,0-0.089    c0.025-0.025,0.065-0.025,0.091,0l0.846,0.846c0.025,0.024,0.025,0.066,0,0.09C1.851,2.945,1.834,2.951,1.817,2.951z"></path></g><g><circle fill="url(#SvgjsLinearGradient1046)" cx="1.235" cy="2.86" r="0.144"></circle></g><g><path fill="url(#SvgjsLinearGradient1046)" d="M1.816,3.505c-0.017,0-0.033-0.007-0.046-0.02L1.189,2.905c-0.025-0.025-0.025-0.066,0-0.09    c0.025-0.026,0.065-0.026,0.091,0l0.58,0.58c0.025,0.024,0.025,0.066,0,0.091C1.848,3.498,1.832,3.505,1.816,3.505z"></path></g><g><path fill="url(#SvgjsLinearGradient1046)" d="M3.043,3.1c-0.017,0-0.033-0.006-0.046-0.019c-0.024-0.025-0.024-0.066,0-0.09L3.72,2.269    c0.024-0.026,0.065-0.026,0.09,0c0.024,0.024,0.024,0.064,0,0.09L3.088,3.082C3.076,3.094,3.059,3.1,3.043,3.1z"></path></g><g><path fill="url(#SvgjsLinearGradient1046)" d="M3.036,3.605c-0.016,0-0.033-0.005-0.045-0.018c-0.025-0.026-0.025-0.065,0-0.091l0.403-0.403    c0.024-0.024,0.065-0.024,0.091,0c0.024,0.026,0.024,0.066,0,0.092L3.082,3.587C3.069,3.601,3.052,3.605,3.036,3.605z"></path></g></g></g><g id="SvgjsG1043" featurekey="ewgXDI-0" transform="matrix(3.859215880070344,0,0,3.859215880070344,-3.4732946601068164,158.38499258730934)" fill="url(#SvgjsLinearGradient1050)"><path d="M4.82 20.16 c-1.94 0 -3.92 -1.3 -3.92 -4.6 l0 -5.96 l3.16 0 l0 5.74 c0 1.58 0.54 2.08 1.54 2.08 c1.42 0 2.24 -1.38 2.44 -1.98 l0 -5.84 l3.16 0 l0 10.4 l-3.16 0 l0 -1.8 c-0.2 0.5 -1.26 1.96 -3.22 1.96 z M27.14 9.44 c2.22 0 4.18 1.44 4.18 4.96 l0 5.6 l-3.16 0 l0 -5.5 c0 -1.32 -0.56 -2.32 -2.02 -2.32 c-1.22 0 -2.04 1.08 -2.28 2.04 l0 5.78 l-3.16 0 l0 -5.5 c0 -1.32 -0.82 -2.32 -2.02 -2.32 c-1.3 0 -2.08 0.88 -2.28 2.04 l0 5.78 l-3.16 0 l0 -10.4 l3.16 0 l0 1.9 c0.04 -0.48 1.06 -2.06 3.1 -2.06 c1.5 0 2.94 0.8 3.8 2.26 c0.24 -0.56 1.44 -2.26 3.84 -2.26 z M39.08 9.42 c2.38 0 5.12 1.78 5.12 5.36 c0 3.72 -2.74 5.42 -5.12 5.42 c-1.6 0 -2.54 -0.88 -2.68 -1.24 l0 1.04 l-3.16 0 l0 -10.4 l0 -3.74 l3.16 0 l0 4.7 c0.14 -0.22 1.08 -1.14 2.68 -1.14 z M38.62 17.42 c1.36 0 2.52 -0.92 2.52 -2.64 c0 -1.66 -1.16 -2.58 -2.52 -2.58 c-1.3 0 -2.36 0.9 -2.36 2.58 c0 1.74 1.06 2.64 2.36 2.64 z M52.6 9.44 c0.28 0 0.56 0 0.82 0.06 l0 3.02 c-0.24 -0.06 -0.52 -0.06 -0.72 -0.06 c-1.92 0 -3.46 1.38 -3.62 3.3 l0 4.24 l-3.16 0 l0 -10.4 l3.16 0 l0 2.54 c0.48 -1.56 1.68 -2.7 3.52 -2.7 z M62.519999999999996 9.6 l3.16 0 l0 10.4 l-3.16 0 l0 -1.04 c-0.14 0.36 -1.08 1.24 -2.68 1.24 c-2.38 0 -5.12 -1.7 -5.12 -5.42 c0 -3.58 2.74 -5.36 5.12 -5.36 c1.6 0 2.54 0.92 2.68 1.14 l0 -0.96 z M60.3 17.42 c1.3 0 2.36 -0.9 2.36 -2.64 c0 -1.68 -1.06 -2.58 -2.36 -2.58 c-1.36 0 -2.52 0.92 -2.52 2.58 c0 1.72 1.16 2.64 2.52 2.64 z"></path></g></svg>